<?xml version="1.0" encoding="UTF-8"?>
<!-- Generator: visioncortex VTracer 0.6.12 -->
<svg version="1.1" xmlns="http://www.w3.org/2000/svg" width="1228" height="764">
<path d="M0 0 C0.3665 0.0001 0.3665 0.0001 2.2212 0.0004 C24.8765 0.005 47.4325 0.3652 70.0345 2.0293 C73.1828 2.2541 76.3327 2.4523 79.4826 2.6527 C110.2224 4.6224 140.7744 8.043 171.1875 12.9375 C171.8514 13.0442 172.5153 13.151 173.1992 13.2609 C183.8552 14.9901 183.8552 14.9901 186.25 16.1875 C186.2734 38.3372 186.291 60.4869 186.3018 82.6366 C186.307 92.9224 186.314 103.2083 186.3254 113.4941 C186.3354 122.4656 186.3419 131.437 186.3441 140.4084 C186.3454 145.153 186.3484 149.8976 186.3557 154.6421 C186.3626 159.1203 186.3646 163.5985 186.3631 168.0767 C186.3634 169.7084 186.3653 171.34 186.3692 172.9716 C186.4023 187.6354 186.3412 202.1208 182.5 216.375 C182.2298 217.4082 181.9596 218.4414 181.6812 219.5059 C177.4062 235.4784 170.8649 251.6136 161.25 265.1875 C160.59 265.1875 159.93 265.1875 159.25 265.1875 C159.027 266.0473 158.804 266.9071 158.5742 267.793 C157.046 271.7105 154.8318 274.4201 152.0625 277.5 C151.0622 278.6418 150.0635 279.7851 149.0664 280.9297 C148.5819 281.4837 148.0974 282.0376 147.5981 282.6084 C145.803 284.711 144.15 286.9075 142.5 289.125 C139.9381 292.4818 137.2075 295.0864 133.9297 297.7305 C132.1838 299.2449 130.7772 300.8397 129.3125 302.625 C127.2214 305.1586 125.0377 307.3507 122.5508 309.4961 C122.1977 309.8008 122.1977 309.8008 120.4109 311.343 C119.6978 311.9517 118.9847 312.5604 118.25 313.1875 C117.6059 313.7375 116.9617 314.2876 116.2981 314.8542 C92.1708 335.291 65.928 351.9788 38.25 367.1875 C37.5483 367.5763 36.8465 367.9651 36.1235 368.3657 C31.8716 370.7175 27.5783 372.9794 23.25 375.1875 C22.406 375.6229 21.562 376.0583 20.6924 376.5068 C17.8886 377.9428 15.0716 379.3494 12.25 380.75 C11.8074 380.9773 11.8074 380.9773 9.5679 382.1277 C4.3688 384.661 1.0256 385.9121 -4.75 384.1875 C-7.3039 383.0969 -9.6826 381.9814 -12.125 380.6875 C-12.8113 380.3344 -13.4975 379.9813 -14.2046 379.6174 C-16.3931 378.4865 -18.5725 377.3395 -20.75 376.1875 C-21.4661 375.8096 -22.1821 375.4318 -22.9199 375.0425 C-25.794 373.5242 -28.6669 372.004 -31.5327 370.4702 C-35.8915 368.1425 -40.2932 365.9491 -44.75 363.8125 C-52.5187 359.9684 -59.6441 355.2326 -66.8521 350.4375 C-69.33 348.8055 -71.8513 347.2475 -74.375 345.6875 C-80.7917 341.6174 -86.8579 337.0751 -92.9438 332.5322 C-94.5958 331.3023 -96.2564 330.0841 -97.918 328.8672 C-107.8172 321.5703 -117.3607 313.8646 -125.9219 305.0156 C-127.8077 303.1298 -129.7783 301.4112 -131.8125 299.6875 C-135.8846 296.1589 -139.3266 292.3416 -142.75 288.1875 C-142.964 287.9323 -142.964 287.9323 -144.0469 286.6411 C-170.6847 254.7983 -185.9567 220.4031 -185.8635 178.6423 C-185.8632 176.8676 -185.8634 175.0929 -185.864 173.3182 C-185.8643 168.5214 -185.8584 163.7246 -185.8514 158.9277 C-185.8451 153.9069 -185.8446 148.8861 -185.8434 143.8652 C-185.8403 134.367 -185.8321 124.8687 -185.822 115.3705 C-185.8108 104.553 -185.8053 93.7356 -185.8003 82.9182 C-185.7899 60.6746 -185.7723 38.4311 -185.75 16.1875 C-181.3428 14.3247 -177.0927 13.4788 -172.375 12.8203 C-171.5511 12.7008 -170.7271 12.5812 -169.8782 12.4581 C-167.1698 12.0683 -164.4602 11.6894 -161.75 11.3125 C-160.8134 11.1809 -159.8768 11.0493 -158.9118 10.9137 C-132.5264 7.2161 -106.1401 4.3767 -79.5625 2.5 C-79.1347 2.4695 -79.1347 2.4695 -76.9695 2.3153 C-51.326 0.5157 -25.6982 -0.0187 0 0 Z M50.25 28.1875 C50.25 28.5175 50.25 28.8475 50.25 29.1875 C52.23 29.1875 54.21 29.1875 56.25 29.1875 C56.25 28.8575 56.25 28.5275 56.25 28.1875 C54.27 28.1875 52.29 28.1875 50.25 28.1875 Z M-5.75 29.1875 C-5.75 29.5175 -5.75 29.8475 -5.75 30.1875 C-4.1 30.1875 -2.45 30.1875 -0.75 30.1875 C-0.75 29.8575 -0.75 29.5275 -0.75 29.1875 C-2.4 29.1875 -4.05 29.1875 -5.75 29.1875 Z M61.25 29.1875 C61.25 29.5175 61.25 29.8475 61.25 30.1875 C62.9 30.1875 64.55 30.1875 66.25 30.1875 C66.25 29.8575 66.25 29.5275 66.25 29.1875 C64.6 29.1875 62.95 29.1875 61.25 29.1875 Z M86.25 33.1875 C90.25 34.1875 90.25 34.1875 90.25 34.1875 Z M1.25 43.1875 C5.25 44.1875 5.25 44.1875 5.25 44.1875 Z M-36.75 74.1875 C-35.75 76.1875 -35.75 76.1875 -35.75 76.1875 Z M8.25 75.1875 C8.25 75.5175 8.25 75.8475 8.25 76.1875 C10.23 76.1875 12.21 76.1875 14.25 76.1875 C14.25 75.8575 14.25 75.5275 14.25 75.1875 C12.27 75.1875 10.29 75.1875 8.25 75.1875 Z M-86.75 79.1875 C-85.75 82.1875 -85.75 82.1875 -85.75 82.1875 Z M-2.75 81.1875 C-2.42 81.8475 -2.09 82.5075 -1.75 83.1875 C-1.09 82.8575 -0.43 82.5275 0.25 82.1875 C-0.74 81.8575 -1.73 81.5275 -2.75 81.1875 Z M-87.75 82.1875 C-86.75 86.1875 -86.75 86.1875 -86.75 86.1875 Z M-88.75 87.1875 C-87.75 91.1875 -87.75 91.1875 -87.75 91.1875 Z M-38.75 89.1875 C-38.75 90.8375 -38.75 92.4875 -38.75 94.1875 C-38.42 94.1875 -38.09 94.1875 -37.75 94.1875 C-37.75 92.5375 -37.75 90.8875 -37.75 89.1875 C-38.08 89.1875 -38.41 89.1875 -38.75 89.1875 Z M-37.75 95.1875 C-37.09 96.5075 -36.43 97.8275 -35.75 99.1875 C-36.08 97.8675 -36.41 96.5475 -36.75 95.1875 C-37.08 95.1875 -37.41 95.1875 -37.75 95.1875 Z M-35.75 100.1875 C-34.75 102.1875 -34.75 102.1875 -34.75 102.1875 Z M-34.75 102.1875 C-33.75 104.1875 -33.75 104.1875 -33.75 104.1875 Z M-88.75 104.1875 C-87.75 108.1875 -87.75 108.1875 -87.75 108.1875 Z M-33.75 105.1875 C-33.75 105.8475 -33.75 106.5075 -33.75 107.1875 C-33.09 106.8575 -32.43 106.5275 -31.75 106.1875 C-32.41 105.8575 -33.07 105.5275 -33.75 105.1875 Z M-31.75 107.1875 C-30.75 109.1875 -30.75 109.1875 -30.75 109.1875 Z M-87.75 108.1875 C-87.42 110.8275 -87.09 113.4675 -86.75 116.1875 C-86.09 116.1875 -85.43 116.1875 -84.75 116.1875 C-85.2972 112.8129 -85.8049 111.1052 -87.75 108.1875 Z M-152.75 120.1875 C-153.08 121.5075 -153.41 122.8275 -153.75 124.1875 C-153.42 124.3525 -153.42 124.3525 -151.75 125.1875 C-151.75 123.5375 -151.75 121.8875 -151.75 120.1875 C-152.08 120.1875 -152.41 120.1875 -152.75 120.1875 Z M-83.75 120.1875 C-82.75 122.1875 -82.75 122.1875 -82.75 122.1875 Z M-82.75 122.1875 C-81.75 124.1875 -81.75 124.1875 -81.75 124.1875 Z M-73.75 136.1875 C-73.42 136.8475 -73.09 137.5075 -72.75 138.1875 C-72.42 137.5275 -72.09 136.8675 -71.75 136.1875 C-72.41 136.1875 -73.07 136.1875 -73.75 136.1875 Z M-66.75 144.1875 C-66.09 144.8475 -65.43 145.5075 -64.75 146.1875 C-64.75 145.5275 -64.75 144.8675 -64.75 144.1875 C-65.41 144.1875 -66.07 144.1875 -66.75 144.1875 Z M-56.75 153.1875 C-56.09 153.8475 -55.43 154.5075 -54.75 155.1875 C-54.75 154.5275 -54.75 153.8675 -54.75 153.1875 C-55.41 153.1875 -56.07 153.1875 -56.75 153.1875 Z M-51.75 157.1875 C-51.42 157.8475 -51.09 158.5075 -50.75 159.1875 C-50.09 158.8575 -49.43 158.5275 -48.75 158.1875 C-49.74 157.8575 -50.73 157.5275 -51.75 157.1875 Z " fill="#0C2942" transform="translate(607.75,35.8125)"/>
<path d="M0 0 C2.4702 0.0186 4.9401 0.0205 7.4104 0.0203 C8.9853 0.0252 10.5601 0.031 12.135 0.0378 C12.5032 0.0384 12.5032 0.0384 14.3664 0.0412 C19.5159 0.0896 19.5159 0.0896 21.7483 1.2058 C23.665 1.2058 25.5817 1.2029 27.4983 1.1824 C31.2875 1.2218 34.9938 1.7229 38.7483 2.2058 C39.9909 2.3515 41.2336 2.4971 42.5139 2.6472 C43.863 2.812 45.2119 2.9773 46.5608 3.1433 C47.8254 3.2967 49.0899 3.4501 50.3928 3.6082 C53.3404 4.1332 55.179 4.7829 57.7483 6.2058 C60.0745 6.5856 62.41 6.9089 64.7483 7.2058 C68.4202 7.8442 72.0843 8.5234 75.7483 9.2058 C75.7483 9.8658 75.7483 10.5258 75.7483 11.2058 C76.3309 11.0189 76.9136 10.832 77.5139 10.6394 C81.4649 9.8727 85.0779 11.8325 88.7483 13.2058 C90.0591 13.673 91.3703 14.1391 92.6819 14.6042 C94.1002 15.1163 95.5182 15.6293 96.9358 16.1433 C97.6129 16.3838 98.29 16.6243 98.9875 16.8721 C103.6599 18.5993 108.1658 20.6233 111.7483 24.2058 C111.9547 25.5976 112.0969 26.9989 112.2131 28.4011 C112.29 29.3255 112.3669 30.25 112.446 31.2024 C112.5252 32.2348 112.6043 33.2671 112.6858 34.3308 C112.7701 35.4109 112.8543 36.491 112.9412 37.6038 C113.7298 48.1713 114.3171 58.7489 114.8733 69.3308 C114.9177 70.1553 114.9621 70.9799 115.0078 71.8294 C116.5908 101.5208 116.5908 101.5208 114.7483 105.2058 C111.0639 103.9777 110.4592 102.7483 108.3108 99.5808 C107.6908 98.6669 107.0707 97.7529 106.4319 96.8113 C104.8358 94.3412 103.3844 91.819 101.9631 89.2449 C97.0288 80.9627 91.2661 73.2969 84.7483 66.2058 C83.5374 64.8122 82.3291 63.4164 81.1233 62.0183 C76.9786 57.2908 72.6859 53.104 67.7483 49.2058 C67.2739 48.7224 66.7995 48.239 66.3108 47.741 C64.7518 46.2092 63.17 45.0081 61.3733 43.7683 C59.3332 42.357 57.4126 40.924 55.51 39.3269 C52.1554 36.7504 48.6336 34.7443 44.9358 32.7058 C44.2623 32.3281 43.5887 31.9504 42.8948 31.5613 C35.7028 27.5558 28.7181 23.9445 20.8108 21.5808 C20.1592 21.3771 19.5075 21.1735 18.8362 20.9636 C16.8149 20.3448 14.7853 19.7703 12.7483 19.2058 C12.1047 19.0124 11.4612 18.8189 10.7981 18.6196 C3.9488 16.7905 -2.9726 16.9368 -10.0105 17 C-12.1431 17.0185 -14.2753 17.0205 -16.408 17.0203 C-26.8075 17.0578 -26.8075 17.0578 -30.2517 18.2058 C-30.9117 17.8758 -31.5717 17.5458 -32.2517 17.2058 C-32.2517 17.8658 -32.2517 18.5258 -32.2517 19.2058 C-33.0135 19.4855 -33.7754 19.7653 -34.5603 20.0535 C-44.7419 24.0066 -52.7906 29.303 -59.2517 38.2058 C-59.7158 38.8375 -60.1798 39.4691 -60.658 40.1199 C-65.6124 47.8108 -66.8917 57.6734 -66.0642 66.7058 C-65.1796 70.5165 -63.8564 73.6475 -62.2517 77.2058 C-62.2517 78.1958 -62.2517 79.1858 -62.2517 80.2058 C-61.5917 80.2058 -60.9317 80.2058 -60.2517 80.2058 C-58.2517 82.2058 -58.2517 82.2058 -57.3142 84.2683 C-56.2517 86.2058 -56.2517 86.2058 -53.2517 87.2058 C-53.2517 88.1958 -53.2517 89.1858 -53.2517 90.2058 C-52.5917 90.2058 -51.9317 90.2058 -51.2517 90.2058 C-50.9217 90.8658 -50.5917 91.5258 -50.2517 92.2058 C-48.6085 93.1448 -46.9634 94.0805 -45.3064 94.9949 C-41.7608 97.0845 -38.3002 99.4344 -35.2517 102.2058 C-35.2517 102.8658 -35.2517 103.5258 -35.2517 104.2058 C-34.6549 104.3257 -34.058 104.4456 -33.4431 104.5691 C-30.6369 105.3845 -28.6928 107.0167 -26.3767 108.7488 C-23.9049 110.4436 -21.3414 111.8112 -18.6892 113.2058 C-15.5817 114.8589 -12.7599 116.4285 -10.1267 118.7683 C-7.08 121.3514 -4.0233 123.0898 -0.5212 124.9714 C4.1001 127.4849 8.4875 130.3695 12.8694 133.2761 C18.8532 137.2291 24.889 141.0069 31.2483 144.3308 C32.3517 144.9109 33.4552 145.491 34.592 146.0886 C38.1926 147.3631 40.1128 147.2745 43.7483 146.2058 C47.4369 142.5172 47.1036 138.1385 47.1467 133.2175 C45.2048 118.539 35.5455 102.8834 25.7483 92.2058 C25.0754 91.3537 24.4025 90.5017 23.7092 89.6238 C16.8774 81.1996 7.039 74.6296 -2.2517 69.2058 C-2.2517 68.5458 -2.2517 67.8858 -2.2517 67.2058 C-2.8808 67.0357 -3.5098 66.8655 -4.158 66.6902 C-9.1716 65.2707 -13.703 63.638 -18.2947 61.1785 C-20.3842 60.14 -22.4809 59.3925 -24.6892 58.6433 C-25.8648 58.1689 -27.0405 57.6946 -28.2517 57.2058 C-28.5817 56.2158 -28.9117 55.2258 -29.2517 54.2058 C-26.9767 51.0371 -25.4992 49.5248 -21.6697 48.5457 C-13.9844 47.6694 -7.5587 48.8676 -0.2517 51.2058 C0.3052 51.3708 0.3052 51.3708 3.1233 52.2058 C12.4038 55.1888 19.8274 59.6882 27.7483 65.2058 C28.5514 65.7408 29.3545 66.2757 30.1819 66.8269 C31.7491 67.8896 33.2594 69.0359 34.7483 70.2058 C34.7483 70.8658 34.7483 71.5258 34.7483 72.2058 C35.1191 72.3333 35.1191 72.3333 36.9958 72.9783 C39.905 74.2757 41.5407 75.6113 43.7874 77.8464 C44.5275 78.5805 45.2677 79.3145 46.0303 80.0708 C46.8035 80.8579 47.5767 81.6449 48.3733 82.4558 C48.7731 82.86 48.7731 82.86 50.7964 84.9053 C73.8705 108.5481 88.6249 135.7051 88.7483 169.2058 C87.7135 201.7552 69.3908 228.2863 47.7483 251.2058 C47.0419 251.9818 46.3355 252.7578 45.6077 253.5574 C43.7483 255.2058 43.7483 255.2058 40.7483 255.2058 C39.7689 252.2677 39.4448 249.5776 39.1543 246.5083 C37.7517 232.1299 32.9992 221.1559 25.6809 208.8386 C24.7483 207.2058 24.7483 207.2058 23.6624 204.7996 C22.7483 203.2058 22.7483 203.2058 19.7483 202.2058 C18.3108 200.6746 18.3108 200.6746 16.7483 198.7058 C8.3466 188.8215 -3.1272 180.7826 -14.2517 174.2058 C-15.8797 173.1688 -17.5045 172.1269 -19.1267 171.0808 C-24.8147 167.45 -30.5859 163.9709 -36.3806 160.5144 C-36.6879 160.3308 -36.6879 160.3308 -38.2429 159.4016 C-39.6706 158.5517 -41.1013 157.7069 -42.5339 156.8655 C-49.1414 152.9575 -55.5282 148.7701 -61.8767 144.4558 C-62.3788 144.12 -62.3788 144.12 -64.9197 142.4207 C-65.3934 142.099 -65.3934 142.099 -67.7908 140.4714 C-68.6488 139.8917 -69.5068 139.3119 -70.3909 138.7146 C-70.6979 138.4656 -70.6979 138.4656 -72.2517 137.2058 C-72.2517 136.5458 -72.2517 135.8858 -72.2517 135.2058 C-73.2417 134.8758 -74.2317 134.5458 -75.2517 134.2058 C-75.2517 133.5458 -75.2517 132.8858 -75.2517 132.2058 C-76.2417 131.8758 -76.2417 131.8758 -81.2517 130.2058 C-81.2517 129.5458 -81.2517 128.8858 -81.2517 128.2058 C-81.9117 128.2058 -82.5717 128.2058 -83.2517 128.2058 C-83.2517 127.5458 -83.2517 126.8858 -83.2517 126.2058 C-83.9736 126.1646 -84.6955 126.1233 -85.4392 126.0808 C-89.5336 124.807 -90.7762 122.6715 -93.2517 119.2058 C-93.2517 118.5458 -93.2517 117.8858 -93.2517 117.2058 C-93.9942 117.1852 -94.7367 117.1646 -95.5017 117.1433 C-99.0076 115.9481 -99.6643 114.1774 -101.2869 110.9714 C-102.567 108.6288 -104.3421 107.0558 -106.2517 105.2058 C-109.299 101.2008 -110.773 98.2328 -111.2517 93.2058 C-111.9117 93.2058 -112.5717 93.2058 -113.2517 93.2058 C-113.5198 91.9271 -113.788 90.6483 -114.0642 89.3308 C-115.0021 85.0396 -116.2522 80.9173 -117.6658 76.7605 C-120.2831 65.3491 -115.6366 51.1331 -109.7361 41.4207 C-98.9911 25.388 -78.7293 13.1682 -60.2517 8.2058 C-57.4353 8.1042 -57.4353 8.1042 -55.2517 8.2058 C-55.2517 7.5458 -55.2517 6.8858 -55.2517 6.2058 C-50.2925 5.121 -45.2759 4.4691 -40.2517 3.7683 C-38.4808 3.5204 -36.7099 3.2717 -34.9392 3.0222 C-34.4773 2.9584 -34.4773 2.9584 -32.1396 2.6353 C-30.1955 2.3462 -28.2561 2.0233 -26.3228 1.6689 C-17.5085 0.103 -8.9209 -0.0696 0 0 Z " fill="#C7974F" transform="translate(636.251708984375,62.794189453125)"/>
<path d="M0 0 C0.558 0.0517 0.558 0.0517 3.3821 0.3131 C24.5529 2.2861 45.6612 4.5842 66.6145 8.2424 C68.8803 8.6368 71.148 9.0189 73.416 9.4004 C74.8855 9.6529 76.3549 9.9062 77.8242 10.1602 C79.1116 10.382 80.399 10.6038 81.7253 10.8323 C84.7507 11.4821 87.353 12.1972 90.125 13.5625 C91.6333 16.5792 91.273 19.6948 91.2722 23.0041 C91.2758 23.7809 91.2795 24.5578 91.2833 25.3581 C91.2944 27.9767 91.2982 30.5953 91.302 33.2139 C91.3083 35.0866 91.3149 36.9594 91.3219 38.8322 C91.343 45.0079 91.3533 51.1836 91.3633 57.3594 C91.3673 59.4928 91.3714 61.6262 91.3756 63.7596 C91.3947 73.8083 91.4089 83.857 91.4172 93.9058 C91.427 105.4432 91.4531 116.9804 91.4937 128.5177 C91.5242 137.465 91.5387 146.4124 91.542 155.3598 C91.5444 160.6861 91.553 166.0122 91.5785 171.3385 C91.8455 230.1941 91.8455 230.1941 82.125 257.5625 C81.8195 258.519 81.514 259.4755 81.1992 260.4609 C77.4138 271.8338 71.4966 282.4875 65.375 292.75 C65.0106 293.3613 64.6462 293.9727 64.2708 294.6025 C62.1133 298.1448 59.76 301.365 57.125 304.5625 C55.9565 306.0966 54.7882 307.6309 53.6235 309.168 C49.5487 314.5353 45.3612 319.7039 40.8125 324.6836 C39.3877 326.27 38.0567 327.94 36.75 329.625 C36.2138 330.2644 35.6775 330.9038 35.125 331.5625 C34.465 331.5625 33.805 331.5625 33.125 331.5625 C32.8609 332.1564 32.5968 332.7502 32.3247 333.3621 C31.0779 335.6489 29.8391 337.015 27.9297 338.7695 C27.3006 339.3523 26.6716 339.9352 26.0234 340.5356 C25.6896 340.8391 25.6896 340.8391 24 342.375 C23.3142 343.0052 22.6284 343.6354 21.9219 344.2847 C19.9954 346.0505 18.0615 347.8078 16.125 349.5625 C15.3851 350.2393 14.6452 350.916 13.8828 351.6133 C7.7611 357.0956 1.2397 362.128 -5.1995 367.229 C-6.6754 368.4037 -8.1395 369.5933 -9.6016 370.7852 C-16.9915 376.5625 -16.9915 376.5625 -20.875 376.5625 C-21.205 377.5525 -21.535 378.5425 -21.875 379.5625 C-24.3594 381.3242 -24.3594 381.3242 -27.625 383.25 C-28.8283 383.9671 -30.0314 384.6846 -31.2344 385.4023 C-31.8473 385.7644 -32.4603 386.1265 -33.0918 386.4995 C-35.7125 388.0618 -38.2901 389.6918 -40.875 391.3125 C-54.5605 399.7191 -68.5068 407.6189 -82.96 414.627 C-85.5908 415.9122 -88.2024 417.2342 -90.8149 418.5562 C-92.7988 419.5556 -94.7891 420.5408 -96.7812 421.5234 C-99.6593 422.9443 -102.5046 424.4171 -105.3438 425.9141 C-106.8329 426.6727 -108.3225 427.4305 -109.8125 428.1875 C-110.486 428.5549 -111.1594 428.9223 -111.8533 429.3008 C-116.4149 431.5701 -119.5102 431.8668 -124.4172 430.4663 C-129.3517 428.6517 -134.0428 426.395 -138.75 424.0625 C-139.8528 423.5235 -140.9556 422.9845 -142.0918 422.4292 C-151.7898 417.6631 -161.3887 412.7365 -170.875 407.5625 C-171.8656 407.0233 -172.8563 406.4842 -173.877 405.9287 C-185.5009 399.5777 -196.9908 393.1732 -207.8828 385.6211 C-210.4801 383.8342 -213.1067 382.1775 -215.8125 380.5625 C-216.8231 379.9025 -217.8338 379.2425 -218.875 378.5625 C-218.875 377.9025 -218.875 377.2425 -218.875 376.5625 C-219.6587 376.2531 -220.4425 375.9438 -221.25 375.625 C-223.875 374.5625 -223.875 374.5625 -225.875 373.5625 C-225.875 372.9025 -225.875 372.2425 -225.875 371.5625 C-226.2256 371.4491 -226.2256 371.4491 -228 370.875 C-230.5059 369.731 -231.963 368.762 -234 367 C-236.875 364.5625 -236.875 364.5625 -239.875 363.5625 C-241.5626 361.9171 -243.229 360.2496 -244.875 358.5625 C-245.865 357.9025 -246.855 357.2425 -247.875 356.5625 C-247.875 355.9025 -247.875 355.2425 -247.875 354.5625 C-248.4538 354.3008 -249.0326 354.0391 -249.6289 353.7695 C-252.0107 352.4896 -253.7982 351.0489 -255.8125 349.25 C-256.4609 348.6764 -257.1093 348.1027 -257.7773 347.5117 C-260.2065 345.2544 -262.5388 342.916 -264.875 340.5625 C-265.9028 339.5447 -266.9315 338.5278 -267.9609 337.5117 C-273.8201 331.7108 -279.6247 325.9306 -284.875 319.5625 C-285.5995 318.6924 -286.3239 317.8223 -287.0703 316.9258 C-292.875 309.8368 -292.875 309.8368 -292.875 307.5625 C-293.535 307.5625 -294.195 307.5625 -294.875 307.5625 C-296.2911 305.6546 -297.5599 303.7632 -298.8125 301.75 C-299.2015 301.1327 -299.5904 300.5154 -299.9912 299.8794 C-315.313 275.3392 -315.313 275.3392 -319.875 262.5625 C-320.1426 261.8659 -320.4103 261.1693 -320.686 260.4517 C-331.8005 231.4451 -331.4556 202.0938 -331.3135 171.5049 C-331.2919 165.978 -331.2928 160.4511 -331.2908 154.9241 C-331.2844 145.6781 -331.2633 136.4322 -331.2317 127.1863 C-331.1911 115.3102 -331.1739 103.4342 -331.1644 91.5581 C-331.1561 81.3193 -331.1389 71.0805 -331.1193 60.8417 C-331.1153 58.6485 -331.1116 56.4552 -331.1081 54.262 C-331.0984 48.033 -331.0839 41.804 -331.0613 35.5751 C-331.0551 33.6876 -331.0507 31.8001 -331.048 29.9126 C-331.0441 27.3464 -331.034 24.7803 -331.0222 22.2141 C-331.0223 21.8371 -331.0223 21.8371 -331.0227 19.9294 C-330.9892 14.791 -330.9892 14.791 -329.875 12.5625 C-326.8479 11.8471 -323.8759 11.266 -320.8125 10.75 C-319.8393 10.5811 -318.8662 10.4123 -317.8635 10.2383 C-314.5359 9.6679 -311.2057 9.1147 -307.875 8.5625 C-307.284 8.4624 -307.284 8.4624 -304.293 7.9556 C-282.5695 4.2939 -260.7973 1.6984 -238.875 -0.4375 C-238.1178 -0.5114 -237.3606 -0.5853 -236.5805 -0.6614 C-231.4298 -1.1622 -226.278 -1.6488 -221.125 -2.125 C-219.8367 -2.2444 -218.5483 -2.3638 -217.2209 -2.4868 C-200.9915 -3.9401 -184.7872 -4.6491 -168.5 -5 C-167.555 -5.0208 -166.6101 -5.0417 -165.6364 -5.0632 C-110.2362 -6.2601 -55.1835 -5.131 0 0 Z M-237.875 12.5625 C-238.5315 12.6251 -238.5315 12.6251 -241.854 12.9419 C-254.5828 14.1791 -267.242 15.6214 -279.8555 17.7383 C-287.4857 19.015 -295.1478 20.0902 -302.803 21.2048 C-303.907 21.3667 -305.011 21.5285 -306.1484 21.6953 C-307.1325 21.8386 -308.1165 21.9818 -309.1304 22.1294 C-309.5832 22.2009 -309.5832 22.2009 -311.875 22.5625 C-312.7975 22.7041 -313.72 22.8458 -314.6704 22.9917 C-315.3979 23.1801 -316.1254 23.3684 -316.875 23.5625 C-318.3323 26.4771 -318.001 29.0243 -318.002 32.2809 C-318.0035 32.9797 -318.0051 33.6786 -318.0067 34.3986 C-318.0107 36.7526 -318.0075 39.1066 -318.0044 41.4607 C-318.0057 43.1444 -318.0075 44.8282 -318.0097 46.5119 C-318.0143 51.0997 -318.0125 55.6875 -318.0093 60.2753 C-318.0068 65.087 -318.0091 69.8988 -318.0107 74.7106 C-318.0125 82.8106 -318.0101 90.9105 -318.0054 99.0105 C-318 108.3328 -318.0017 117.6551 -318.0072 126.9774 C-318.0118 134.9997 -318.0124 143.0221 -318.0098 151.0444 C-318.0082 155.8265 -318.008 160.6086 -318.0113 165.3907 C-318.0142 169.9059 -318.0121 174.421 -318.0064 178.9362 C-318.0051 180.5779 -318.0054 182.2195 -318.0077 183.8612 C-318.0184 192.5352 -317.8627 201.1779 -317.4167 209.8416 C-317.3763 210.6308 -317.3358 211.4201 -317.2942 212.2332 C-316.9801 217.8136 -316.3492 223.227 -315.125 228.6875 C-314.9487 229.5104 -314.7724 230.3333 -314.5908 231.1812 C-310.8354 248.2114 -305.605 264.8729 -296.0959 279.6384 C-294.9471 281.4489 -293.8837 283.2838 -292.8398 285.1562 C-290.8629 288.5835 -288.7331 291.8448 -286.4375 295.0625 C-286.0179 295.652 -285.5983 296.2415 -285.166 296.8489 C-280.2508 303.6163 -274.7226 309.8509 -269.1367 316.0671 C-267.875 317.5625 -267.875 317.5625 -265.875 320.5625 C-265.215 320.5625 -264.555 320.5625 -263.875 320.5625 C-263.875 321.2225 -263.875 321.8825 -263.875 322.5625 C-263.215 322.5625 -262.555 322.5625 -261.875 322.5625 C-261.7478 322.8546 -261.7478 322.8546 -261.1042 324.3325 C-259.7432 326.8016 -258.2683 328.3252 -256.207 330.2422 C-255.4781 330.9241 -254.7491 331.606 -253.998 332.3086 C-253.2356 333.0111 -252.4731 333.7137 -251.6875 334.4375 C-250.9444 335.1323 -250.2012 335.8271 -249.4355 336.543 C-236.5219 348.5625 -236.5219 348.5625 -233.875 348.5625 C-233.875 349.2225 -233.875 349.8825 -233.875 350.5625 C-232.5049 351.856 -232.5049 351.856 -230.5781 353.3203 C-230.2257 353.5897 -230.2257 353.5897 -228.4424 354.9531 C-227.6776 355.5255 -226.9129 356.0978 -226.125 356.6875 C-225.3422 357.2779 -224.5594 357.8683 -223.7529 358.4766 C-217.6093 363.0786 -211.3735 367.4743 -204.875 371.5625 C-204.0798 372.0631 -203.2846 372.5638 -202.4653 373.0796 C-199.7097 374.809 -196.9498 376.5313 -194.1875 378.25 C-193.308 378.7972 -192.4286 379.3444 -191.5225 379.9082 C-186.7345 382.8649 -181.9068 385.7066 -176.9724 388.4119 C-175.0258 389.4798 -173.0928 390.568 -171.1641 391.668 C-157.6127 399.3809 -143.9545 406.9212 -129.75 413.375 C-129.3715 413.5591 -129.3715 413.5591 -127.4558 414.4905 C-123.5794 416.183 -120.8494 416.9408 -116.7383 415.6953 C-115.0997 415.0256 -113.4804 414.3082 -111.875 413.5625 C-110.7993 413.0764 -109.7236 412.5904 -108.6152 412.0896 C-104.7819 410.3146 -100.9819 408.4812 -97.1875 406.625 C-96.848 406.4598 -96.848 406.4598 -95.1298 405.6241 C-86.1594 401.2565 -77.2658 396.7681 -68.5 392 C-67.647 391.5367 -66.7941 391.0733 -65.9153 390.5959 C-61.1312 387.9479 -56.5609 385.0884 -52.0378 382.0171 C-50.0015 380.6476 -47.9414 379.3353 -45.8555 378.043 C-33.7144 370.5122 -22.0756 362.4264 -10.875 353.5625 C-10.4889 353.2731 -10.4889 353.2731 -8.5352 351.8086 C-2.6551 347.3959 2.6644 342.4562 8.0273 337.4414 C11.1335 334.5399 14.3133 331.7328 17.5391 328.9648 C19.1442 327.5455 20.6958 326.1606 22.125 324.5625 C22.125 323.9025 22.125 323.2425 22.125 322.5625 C23.115 322.2325 24.105 321.9025 25.125 321.5625 C26.8789 319.8555 26.8789 319.8555 28.6875 317.75 C29.2869 317.0629 29.8863 316.3759 30.5039 315.668 C32.0215 313.6969 33.104 311.8229 34.125 309.5625 C34.785 309.5625 35.445 309.5625 36.125 309.5625 C51.1521 293.9093 62.2252 272.2567 69.2656 252 C70.125 249.5625 70.125 249.5625 71.1406 247.2461 C72.414 243.7746 73.0211 240.2582 73.625 236.625 C73.7423 235.954 73.8596 235.2831 73.9805 234.5918 C74.2273 233.1521 74.4643 231.7106 74.6924 230.2678 C74.9903 228.4049 75.304 226.5444 75.6308 224.6863 C77.2704 214.619 77.3957 204.7989 77.3521 194.6235 C77.3515 192.7594 77.3518 190.8953 77.3529 189.0312 C77.3535 184.0136 77.3418 178.996 77.3278 173.9784 C77.3152 168.7187 77.3141 163.459 77.3117 158.1993 C77.3055 148.2585 77.2892 138.3177 77.269 128.3769 C77.2466 117.0515 77.2357 105.7262 77.2256 94.4008 C77.2048 71.1213 77.1697 47.8419 77.125 24.5625 C72.9787 23.3587 68.9428 22.2643 64.6758 21.5977 C63.6746 21.4391 62.6734 21.2805 61.6418 21.1172 C60.5844 20.9548 59.527 20.7923 58.4375 20.625 C57.8782 20.538 57.8782 20.538 55.0476 20.0977 C52.7807 19.7458 50.5135 19.3957 48.2461 19.0474 C45.6195 18.6393 42.9969 18.2145 40.375 17.7773 C14.7277 13.5803 -11.271 11.5168 -37.1875 9.875 C-38.1394 9.8143 -39.0912 9.7537 -40.0719 9.6912 C-46.671 9.2761 -53.2716 8.9024 -59.875 8.5625 C-60.3544 8.5378 -60.3544 8.5378 -62.7807 8.4126 C-80.8086 7.5149 -98.8288 7.3617 -116.875 7.375 C-117.2373 7.3751 -117.2373 7.3751 -119.0706 7.3754 C-158.7759 7.3836 -198.3394 8.7669 -237.875 12.5625 Z " fill="#A9793A" transform="translate(727.875,17.4375)"/>
<path d="M0 0 C0.4697 0.01 0.4697 0.01 2.8464 0.0606 C3.9074 0.0807 4.9685 0.1008 6.0616 0.1215 C7.2158 0.1485 8.3699 0.1755 9.5591 0.2034 C10.734 0.227 11.909 0.2506 13.1196 0.2749 C16.8899 0.3518 20.66 0.4357 24.4302 0.5198 C26.979 0.573 29.5278 0.6257 32.0766 0.678 C38.3404 0.8074 44.6041 0.9427 50.8677 1.0823 C50.8677 2.7323 50.8677 4.3823 50.8677 6.0823 C47.5677 6.7423 44.2677 7.4023 40.8677 8.0823 C40.2798 14.6847 42.3213 19.4581 44.9302 25.4573 C45.3385 26.4239 45.7468 27.3906 46.1675 28.3865 C46.9986 30.3541 47.8344 32.3198 48.6748 34.2835 C50.362 38.2421 51.9897 42.2241 53.6177 46.2073 C54.4505 48.2288 55.285 50.2495 56.1196 52.2703 C56.8025 53.9245 57.4836 55.5795 58.1645 57.2346 C61.6108 65.5706 65.2326 73.8274 68.8677 82.0823 C71.7284 80.6519 71.8998 78.9146 73.0552 75.9573 C74.9733 71.2068 77.0009 66.5305 79.1802 61.8948 C79.4679 61.2772 79.7556 60.6597 80.052 60.0235 C81.6967 56.51 83.3898 53.0263 85.1294 49.5589 C85.5022 48.8024 85.8749 48.046 86.259 47.2666 C86.9817 45.8019 87.717 44.3433 88.4665 42.8921 C90.5981 38.5375 91.3471 35.9033 89.8677 31.0823 C82.6135 12.5795 82.6135 12.5795 75.8677 8.0823 C73.5466 7.3742 71.2139 6.702 68.8677 6.0823 C68.8677 4.4323 68.8677 2.7823 68.8677 1.0823 C86.3577 0.7523 103.8477 0.4223 121.8677 0.0823 C122.0327 0.9073 122.0327 0.9073 122.8677 5.0823 C119.583 7.272 116.6607 8.0804 112.8677 9.0823 C112.5461 13.9722 113.4316 16.9132 115.6177 21.2698 C116.2651 22.5952 116.9094 23.9221 117.5513 25.2503 C117.9159 26.0023 118.2805 26.7543 118.6562 27.5291 C121.095 32.6691 123.3773 37.8803 125.6802 43.0823 C125.9351 43.6576 125.9351 43.6576 127.2251 46.5691 C128.7752 50.0724 130.3219 53.5771 131.8677 57.0823 C132.3689 58.2168 132.8702 59.3514 133.3867 60.5203 C134.8015 63.7265 136.2107 66.9351 137.6177 70.1448 C138.048 71.12 138.4783 72.0951 138.9216 73.0999 C139.3112 73.9925 139.7007 74.8852 140.102 75.8049 C140.4446 76.5862 140.7872 77.3675 141.1401 78.1724 C141.8677 80.0823 141.8677 80.0823 141.8677 82.0823 C144.1507 80.0051 145.4212 78.2525 146.5513 75.387 C146.6941 75.0312 146.6941 75.0312 147.4172 73.2307 C147.7102 72.4805 148.0033 71.7303 148.3052 70.9573 C148.9241 69.4127 149.5439 67.8684 150.1645 66.3245 C150.3118 65.9556 150.3118 65.9556 151.0571 64.0891 C152.2668 61.094 153.5723 58.1468 154.9065 55.2056 C171.8677 17.7376 171.8677 17.7376 171.8677 9.0823 C171.4461 9.0217 171.4461 9.0217 169.313 8.7151 C168.2173 8.5475 167.1216 8.3799 165.9927 8.2073 C164.9021 8.0449 163.8116 7.8824 162.688 7.7151 C159.8677 7.0823 159.8677 7.0823 157.8677 5.0823 C158.1977 3.7623 158.5277 2.4423 158.8677 1.0823 C172.7277 1.0823 186.5877 1.0823 200.8677 1.0823 C200.8677 2.7323 200.8677 4.3823 200.8677 6.0823 C200.2038 6.2898 199.5399 6.4974 198.8559 6.7112 C197.9729 7.0193 197.0899 7.3274 196.1802 7.6448 C195.31 7.9348 194.4399 8.2249 193.5434 8.5237 C187.107 12.2728 184.6228 19.4409 181.9927 26.0823 C181.2931 27.7942 180.5913 29.5051 179.8872 31.2151 C179.5438 32.0507 179.2004 32.8864 178.8467 33.7473 C177.5421 36.8588 176.1255 39.9089 174.6802 42.9573 C170.5075 51.7651 166.5501 60.6685 162.574 69.5662 C160.1248 75.0462 157.6718 80.5238 155.1802 85.9846 C153.51 89.6496 151.8821 93.3286 150.2937 97.0296 C146.7816 105.2076 142.9368 113.1667 138.8677 121.0823 C131.4231 121.4484 131.4231 121.4484 129.3091 120.0549 C127.1353 117.0801 125.9378 113.7432 124.6177 110.3323 C122.3424 104.6196 119.9613 99.0033 117.3052 93.4573 C114.3308 87.2199 111.7299 80.8793 109.2036 74.4495 C107.5446 70.268 105.7418 66.1707 103.8677 62.0823 C103.4204 61.0962 102.9731 60.11 102.5122 59.094 C101.3002 56.4221 100.0851 53.7517 98.8677 51.0823 C89.587 68.3547 89.587 68.3547 86.8052 74.887 C84.6184 80.0076 82.2204 85.0363 79.8677 90.0823 C79.5201 90.8293 79.1725 91.5763 78.8144 92.346 C66.7741 118.1758 66.7741 118.1758 63.8677 121.0823 C60.8504 120.9055 57.8653 120.4623 54.8677 120.0823 C50.4477 110.6998 46.3444 101.2208 42.3677 91.6448 C30.7705 63.7943 30.7705 63.7943 26.4302 54.8323 C23.8123 49.3395 21.5273 43.7698 19.3677 38.0823 C9.2952 11.6406 9.2952 11.6406 2.5083 7.719 C1.7194 7.4058 0.9305 7.0925 0.1177 6.7698 C-0.6816 6.4437 -1.4808 6.1175 -2.3042 5.7815 C-2.9075 5.5508 -3.5108 5.32 -4.1323 5.0823 C-3.011 0.1162 -3.011 0.1162 0 0 Z " fill="#0C2942" transform="translate(664.1323394775391,530.9177093505859)"/>
<path d="M0 0 C0.883 -0.0093 1.766 -0.0187 2.6758 -0.0283 C8.5037 -0 13.7453 0.7837 19.375 2.25 C19.9441 2.3802 19.9441 2.3802 22.8242 3.0391 C40.3625 7.5664 54.1215 17.3148 63.4531 33.0703 C67.4661 40.4673 69.6156 48.8961 70.375 57.25 C70.4395 57.9268 70.5039 58.6035 70.5703 59.3008 C71.3654 75.0695 65.2232 90.6759 55.125 102.5625 C41.4504 116.8397 22.731 124.6542 3.0508 125.3711 C-19.2919 125.7615 -38.9511 120.775 -55.625 105.3516 C-58.8478 101.9652 -61.2948 98.2885 -63.625 94.25 C-64.004 93.6145 -64.383 92.979 -64.7734 92.3242 C-72.8703 77.622 -73.1655 59.2435 -68.8438 43.3828 C-63.6545 27.5913 -52.85 15.5778 -38.2109 7.9375 C-32.8131 5.3974 -27.4127 3.658 -21.625 2.25 C-20.7936 2.0257 -19.9621 1.8014 -19.1055 1.5703 C-12.7841 0.1169 -6.4563 0.0471 0 0 Z M-29.625 22.25 C-30.1213 22.696 -30.6176 23.142 -31.1289 23.6016 C-37.7422 30.8883 -39.1636 41.9246 -40.625 51.25 C-40.7146 51.7205 -40.7146 51.7205 -41.168 54.1016 C-43.4184 69.5647 -38.675 87.0542 -29.918 99.7188 C-24.0771 107.0966 -15.0816 113.0069 -5.625 114.25 C7.3676 115.1251 16.3955 112.7756 26.375 104.25 C37.6953 92.4112 39.7361 78.4005 39.6072 62.5598 C39.2337 45.913 35.1098 32.4715 23.5 20.2812 C7.9544 5.4879 -14.5977 8.3223 -29.625 22.25 Z " fill="#0C2942" transform="translate(316.625,527.75)"/>
<path d="M0 0 C1.5597 -0.0165 3.1194 -0.0438 4.6787 -0.082 C6.9289 -0.137 9.1774 -0.1587 11.4282 -0.1733 C12.1211 -0.196 12.814 -0.2187 13.5279 -0.242 C17.378 -0.2253 18.9285 0.2056 21.9119 2.7173 C22.634 3.5861 23.3561 4.4549 24.1001 5.3501 C24.9857 6.2241 25.8713 7.0981 26.7837 7.9985 C31.3171 12.487 35.7659 16.9695 39.8501 21.8774 C42.4213 24.9067 45.3329 27.6101 48.1899 30.3657 C48.9234 31.0824 49.6569 31.7992 50.4126 32.5376 C51.11 33.2118 51.8074 33.886 52.5259 34.5806 C54.1001 36.3501 54.1001 36.3501 54.1001 38.3501 C54.7601 38.3501 55.4201 38.3501 56.1001 38.3501 C57.2993 39.5728 57.2993 39.5728 58.7876 41.4126 C62.501 45.7983 66.516 49.8149 70.6001 53.8501 C74.9777 58.1843 79.261 62.5087 83.2192 67.2349 C85.6414 69.9588 88.2161 72.5191 90.8032 75.0845 C91.3132 75.5922 91.8232 76.0999 92.3486 76.623 C93.598 77.8665 94.8489 79.1085 96.1001 80.3501 C96.1465 72.1264 96.182 63.9028 96.2037 55.6791 C96.2141 51.86 96.2282 48.041 96.251 44.2219 C96.2728 40.5326 96.2847 36.8433 96.2899 33.1539 C96.2935 31.7502 96.3007 30.3464 96.3116 28.9427 C96.3262 26.9685 96.3269 24.9941 96.3271 23.0198 C96.3316 21.8984 96.336 20.777 96.3406 19.6216 C96.0679 15.9128 95.23 12.884 94.1001 9.3501 C93.2687 9.2289 92.4372 9.1078 91.5806 8.9829 C90.4939 8.8153 89.4072 8.6478 88.2876 8.4751 C87.2087 8.3127 86.1297 8.1503 85.0181 7.9829 C82.1001 7.3501 82.1001 7.3501 79.1001 5.3501 C79.4301 4.0301 79.7601 2.7101 80.1001 1.3501 C84.8717 0.0904 89.4537 0.3157 94.3384 0.4712 C94.7788 0.483 94.7788 0.483 97.0074 0.5427 C99.8093 0.6191 102.6109 0.7032 105.4126 0.7876 C107.3169 0.8408 109.2212 0.8936 111.1255 0.9458 C115.7839 1.0746 120.442 1.2105 125.1001 1.3501 C125.1001 3.0001 125.1001 4.6501 125.1001 6.3501 C124.2687 6.4622 123.4372 6.5744 122.5806 6.6899 C121.4939 6.8872 120.4072 7.0844 119.2876 7.2876 C118.2087 7.4616 117.1297 7.6356 116.0181 7.8149 C112.7195 9.5503 112.5608 9.9406 111.4447 13.297 C109.8662 18.4762 109.6593 23.3515 109.6677 28.7351 C109.6575 29.7313 109.6473 30.7275 109.6368 31.7538 C109.6069 35.0164 109.5975 38.2788 109.5884 41.5415 C109.5715 43.8155 109.5534 46.0895 109.534 48.3635 C109.4866 54.3261 109.4567 60.2887 109.4305 66.2514 C109.4007 72.3449 109.3542 78.4383 109.3091 84.5317 C109.2232 96.4711 109.1558 108.4105 109.1001 120.3501 C107.6637 120.5458 106.2259 120.7314 104.7876 120.9126 C104.3873 120.9648 104.3873 120.9648 102.3618 121.229 C100.1001 121.3501 100.1001 121.3501 97.1001 120.3501 C94.4126 117.9126 94.4126 117.9126 92.1001 115.3501 C92.1001 114.6901 92.1001 114.0301 92.1001 113.3501 C91.4607 113.082 90.8213 112.8138 90.1626 112.5376 C88.1001 111.3501 88.1001 111.3501 87.1001 108.3501 C85.7744 107.6684 84.4395 107.0045 83.1001 106.3501 C81.575 104.9614 80.0985 103.5183 78.6626 102.0376 C77.8814 101.2358 77.1003 100.434 76.2954 99.6079 C75.571 98.8628 74.8465 98.1178 74.1001 97.3501 C73.0813 96.3688 72.0609 95.3892 71.0376 94.4126 C69.1001 92.3501 69.1001 92.3501 69.1001 90.3501 C68.4401 90.0201 68.4401 90.0201 65.1001 88.3501 C65.1001 87.6901 65.1001 87.0301 65.1001 86.3501 C64.8133 86.2321 64.8133 86.2321 63.3618 85.6353 C60.5927 84.0618 58.987 82.2021 56.9126 79.7876 C53.8671 76.312 50.7708 72.9645 47.4751 69.7251 C44.7921 67.079 42.2304 64.4063 39.7876 61.5376 C36.116 57.2308 32.0862 53.307 28.011 49.386 C26.6711 48.0768 25.3809 46.7171 24.1001 45.3501 C24.1001 44.6901 24.1001 44.0301 24.1001 43.3501 C23.1101 43.0201 22.1201 42.6901 21.1001 42.3501 C19.4092 40.3705 17.7418 38.3706 16.1001 36.3501 C15.4401 36.0201 14.7801 35.6901 14.1001 35.3501 C14.1615 43.6698 14.2388 51.9892 14.3358 60.3086 C14.3804 64.1724 14.4197 68.0362 14.4465 71.9001 C14.4727 75.6351 14.5132 79.3697 14.5633 83.1044 C14.5799 84.5231 14.5914 85.942 14.5977 87.3608 C14.6365 95.3169 15.0493 101.9592 18.1001 109.3501 C22.3901 110.3401 26.6801 111.3301 31.1001 112.3501 C31.1001 114.3301 31.1001 116.3101 31.1001 118.3501 C16.2501 118.3501 1.4001 118.3501 -13.8999 118.3501 C-14.0649 117.5251 -14.0649 117.5251 -14.8999 113.3501 C-14.3082 113.1683 -13.7165 112.9866 -13.1069 112.7993 C-3.5498 109.7591 -3.5498 109.7591 -0.8999 107.3501 C1.9056 98.5455 1.4093 89.3593 1.4009 80.2173 C1.4048 78.4533 1.4091 76.6893 1.4139 74.9253 C1.4213 71.2422 1.4211 67.5591 1.4158 63.876 C1.41 59.1674 1.427 54.4593 1.4501 49.7508 C1.4649 46.1133 1.4657 42.4759 1.4626 38.8384 C1.4631 37.1025 1.4683 35.3666 1.4784 33.6308 C1.4908 31.2022 1.484 28.7743 1.4724 26.3457 C1.4801 25.637 1.4877 24.9282 1.4956 24.198 C1.4427 19.1464 0.3868 15.7629 -1.8999 11.3501 C-5.7382 8.1698 -10.1251 7.4022 -14.8999 6.3501 C-14.9426 4.684 -14.9405 3.0163 -14.8999 1.3501 C-12.2691 -1.2807 -3.6969 0.0287 0 0 Z " fill="#0C2942" transform="translate(411.89990234375,530.64990234375)"/>
<path d="M0 0 C1 1 1 1 1.1135 3.4084 C1.1109 3.9295 1.1109 3.9295 1.0977 6.5664 C1.096 7.1288 1.096 7.1288 1.0879 9.9746 C1.0837 10.5666 1.0837 10.5666 1.0625 13.5625 C1.058 14.7504 1.0535 15.9382 1.0488 17.1621 C1.037 20.1081 1.0205 23.054 1 26 C-0.98 26.66 -2.96 27.32 -5 28 C-5.4731 26.9868 -5.9462 25.9736 -6.4336 24.9297 C-11.4319 14.646 -15.829 8.9843 -26.9375 5.125 C-36.1941 2.7394 -44.4689 3.5078 -53 8 C-56.0401 10.5703 -57.7311 13.1934 -59 17 C-59.4269 22.2118 -59.4244 27.2666 -57 32 C-54.8125 33.125 -54.8125 33.125 -52 34 C-50.3052 34.9778 -48.6106 35.9559 -46.918 36.9375 C-41.6448 39.8587 -36.0858 41.9824 -30.4194 44.0122 C-13.9112 49.9697 0.6326 56.7617 9 73 C11.2007 81.174 10.7389 90.3449 7.0352 97.9922 C-0.6865 111.3555 -12.5887 116.9837 -27 121 C-45.6187 124.5467 -69.5332 123.8014 -86.1016 113.7214 C-88 112 -88 112 -88.47 109.8586 C-88.4554 109.0455 -88.4408 108.2323 -88.4258 107.3945 C-88.4174 106.4928 -88.409 105.5911 -88.4004 104.6621 C-88.3714 103.7217 -88.3424 102.7814 -88.3125 101.8125 C-88.3028 100.8915 -88.2932 99.9704 -88.2832 99.0215 C-88.1949 93.6108 -87.7739 88.3545 -87 83 C-84.69 83 -82.38 83 -80 83 C-79.4431 84.1344 -78.8863 85.2687 -78.3125 86.4375 C-77.5435 87.9593 -76.7726 89.48 -76 91 C-75.6146 91.7786 -75.2291 92.5572 -74.832 93.3594 C-72.2901 98.2622 -69.7284 101.9872 -65 105 C-64.3142 105.4538 -63.6284 105.9075 -62.9219 106.375 C-53.845 111.6649 -42.4231 112.3773 -32.2852 109.8555 C-26.7532 107.7845 -22.2909 104.9363 -19 100 C-17.0597 94.1791 -16.7376 90.7289 -18.918 85.0273 C-25.006 73.6205 -40.2908 69.9497 -51.7146 65.7527 C-64.3359 61.1091 -77.6599 54.2202 -84.0625 41.75 C-87.3481 34.5943 -88.1213 27.134 -85.875 19.5625 C-82.4452 10.3528 -77.4578 4.8541 -69 0 C-68.2523 -0.504 -67.5047 -1.008 -66.7344 -1.5273 C-47.7973 -11.7263 -18.8702 -8.5844 0 0 Z " fill="#0C2942" transform="translate(100,531)"/>
<path d="M0 0 C0.4564 0.0018 0.4564 0.0018 2.766 0.0109 C3.722 0.0107 4.678 0.0106 5.6629 0.0105 C8.8392 0.0112 12.0153 0.0189 15.1915 0.0268 C17.3873 0.0286 19.583 0.0301 21.7788 0.0311 C27.5706 0.0349 33.3623 0.0447 39.1541 0.0558 C45.0592 0.066 50.9642 0.0705 56.8693 0.0756 C68.465 0.0863 80.0607 0.1039 91.6564 0.1244 C91.9864 8.7044 92.3164 17.2844 92.6564 26.1244 C91.0064 26.7844 89.3564 27.4444 87.6564 28.1244 C84.3438 26.4681 83.9621 22.9249 82.754 19.5697 C81.5813 16.9571 80.9978 15.7571 78.6564 14.1244 C73.082 12.4851 68.0093 11.8024 62.2189 11.7104 C61.5389 11.6927 60.8589 11.6751 60.1583 11.6569 C57.6579 11.5946 55.1571 11.5479 52.6564 11.4994 C47.0464 11.3757 41.4364 11.2519 35.6564 11.1244 C35.8214 17.8894 35.8214 17.8894 36.6564 52.1244 C65.1564 52.1244 65.1564 52.1244 69.0939 49.4994 C70.4361 47.4593 71.3073 45.679 72.2189 43.4369 C72.6932 42.3438 73.1676 41.2507 73.6564 40.1244 C74.6464 39.7944 75.6364 39.4644 76.6564 39.1244 C77.3164 39.4544 77.9764 39.7844 78.6564 40.1244 C79.9541 46.991 79.8057 53.9077 79.7814 60.8744 C79.7852 61.9972 79.7891 63.12 79.7931 64.2768 C79.7918 65.3557 79.7905 66.4347 79.7892 67.5463 C79.7881 68.5218 79.7869 69.4973 79.7858 70.5023 C79.6691 72.8662 79.3293 74.8643 78.6564 77.1244 C76.6764 76.7944 74.6964 76.4644 72.6564 76.1244 C72.57 75.4257 72.4836 74.7271 72.3947 74.0072 C72.2541 73.0972 72.1136 72.1871 71.9689 71.2494 C71.8413 70.3445 71.7136 69.4396 71.5822 68.5072 C70.6564 66.1244 70.6564 66.1244 68.5392 65.0014 C65.1376 63.9666 62.1602 63.8011 58.6056 63.7104 C57.9468 63.691 57.288 63.6716 56.6092 63.6517 C54.5209 63.5923 52.4325 63.5456 50.3439 63.4994 C48.9213 63.4612 47.4988 63.4222 46.0763 63.3822 C42.6032 63.2866 39.1299 63.2024 35.6564 63.1244 C35.7743 69.0877 35.8985 75.0508 36.0287 81.0138 C36.0721 83.0441 36.1138 85.0743 36.1537 87.1046 C36.2112 90.0163 36.275 92.9278 36.34 95.8393 C36.3567 96.7528 36.3734 97.6663 36.3906 98.6076 C36.5425 105.0105 36.5425 105.0105 37.6564 106.1244 C44.3273 107.4567 51.0638 107.3447 57.8439 107.3744 C58.9995 107.395 60.1552 107.4157 61.3458 107.4369 C70.0296 107.4759 78.8287 106.8531 86.5314 102.4994 C89.1574 99.5645 91.0894 96.3731 93.0314 92.9525 C94.6564 91.1244 94.6564 91.1244 97.2814 90.7963 C99.6564 91.1244 99.6564 91.1244 100.6564 92.1244 C100.3218 101.493 97.427 108.7042 94.6564 118.1244 C60.6664 118.1244 26.6764 118.1244 -8.3436 118.1244 C-8.5086 117.2994 -8.5086 117.2994 -9.3436 113.1244 C-6.109 112.0199 -2.8979 111.0056 0.4064 110.1244 C3.6564 109.1244 3.6564 109.1244 5.6564 107.1244 C6.0658 104.0279 6.0658 104.0279 6.2731 100.0639 C6.3107 99.3512 6.3483 98.6385 6.387 97.9042 C6.7715 89.969 6.8015 82.0358 6.7892 74.0932 C6.7899 72.5209 6.7908 70.9487 6.7921 69.3765 C6.7935 66.116 6.7915 62.8556 6.7867 59.5951 C6.781 55.4352 6.7844 51.2753 6.7903 47.1154 C6.7939 43.8828 6.7928 40.6501 6.7902 37.4175 C6.7895 35.8835 6.7903 34.3494 6.7927 32.8153 C6.8117 16.9019 6.8117 16.9019 5.6564 11.1244 C2.0807 7.8643 -1.675 7.741 -6.3436 7.1244 C-7.0036 6.4644 -7.6636 5.8044 -8.3436 5.1244 C-7.0732 -0.5016 -5.7445 0.0096 0 0 Z " fill="#0C2942" transform="translate(556.3436279296875,530.8755798339844)"/>
<path d="M0 0 C0 8.91 0 17.82 0 27 C-1.98 27 -3.96 27 -6 27 C-6.1154 26.6623 -6.1154 26.6623 -6.6992 24.9531 C-10.0854 15.6913 -10.0854 15.6913 -15 13 C-19.7977 11.9621 -24.571 11.7915 -29.4609 11.6836 C-30.1626 11.6649 -30.8642 11.6463 -31.5872 11.6271 C-34.183 11.5593 -36.779 11.4988 -39.375 11.4375 C-45.1912 11.2931 -51.0075 11.1487 -57 11 C-56.835 17.6 -56.835 17.6 -56 51 C-52.1314 52.2895 -48.4676 52.1483 -44.4375 52.125 C-43.6292 52.1223 -42.8209 52.1197 -41.988 52.1169 C-28.0187 52.0062 -28.0187 52.0062 -22 50 C-21.8788 49.3735 -21.7577 48.747 -21.6328 48.1016 C-21.4652 47.2843 -21.2977 46.467 -21.125 45.625 C-20.9626 44.8129 -20.8002 44.0008 -20.6328 43.1641 C-20 41 -20 41 -18 39 C-14.125 39.875 -14.125 39.875 -13 41 C-12.9115 43.5936 -12.8847 46.1604 -12.9023 48.7539 C-12.9038 49.5294 -12.9052 50.3048 -12.9066 51.1037 C-12.9122 53.59 -12.9248 56.0762 -12.9375 58.5625 C-12.9425 60.2441 -12.9471 61.9258 -12.9512 63.6074 C-12.9622 67.7383 -12.9795 71.8691 -13 76 C-15.375 76.625 -15.375 76.625 -18 77 C-20.7191 74.2809 -20.6757 71.8057 -21.2422 68.0938 C-22 66 -22 66 -23.5991 64.895 C-26.8407 63.6866 -29.7153 63.6709 -33.1719 63.5859 C-33.5131 63.5763 -33.5131 63.5763 -35.2398 63.5273 C-37.4097 63.4677 -39.5797 63.4212 -41.75 63.375 C-43.2253 63.3368 -44.7005 63.2977 -46.1758 63.2578 C-49.7837 63.162 -53.3917 63.0779 -57 63 C-56.8813 68.1596 -56.7571 73.3191 -56.6277 78.4785 C-56.5845 80.2321 -56.5428 81.9856 -56.5027 83.7393 C-56.4446 86.2664 -56.381 88.7933 -56.3164 91.3203 C-56.2997 92.0987 -56.283 92.877 -56.2658 93.679 C-56.1527 97.8755 -55.8079 101.8654 -55 106 C-42.5982 109.6773 -23.454 108.4502 -11 105 C-9.3089 104.0418 -7.6384 103.0456 -6 102 C-5.01 101.67 -4.02 101.34 -3 101 C-2.271 99.3597 -1.6134 97.687 -1 96 C-0.0276 94.3171 0.9656 92.6456 2 91 C4.375 90.8125 4.375 90.8125 7 91 C9 94 9 94 8.7998 95.8977 C8.5926 96.5979 8.3854 97.2981 8.1719 98.0195 C7.9489 98.7949 7.7259 99.5703 7.4961 100.3691 C7.2499 101.1754 7.0037 101.9818 6.75 102.8125 C6.5193 103.6072 6.2885 104.4019 6.0508 105.2207 C4.7925 109.518 3.417 113.749 2 118 C-31.99 118 -65.98 118 -101 118 C-101.33 116.68 -101.66 115.36 -102 114 C-97.5327 110.6856 -93.3799 110.3399 -88 110 C-85.9335 104.8743 -85.7145 100.474 -85.7412 95.0447 C-85.7377 94.1643 -85.7342 93.2838 -85.7306 92.3767 C-85.7218 89.4789 -85.7276 86.5814 -85.7344 83.6836 C-85.733 81.6639 -85.7311 79.6442 -85.7286 77.6245 C-85.7256 73.3972 -85.7299 69.1699 -85.7393 64.9426 C-85.7507 59.5265 -85.7441 54.1106 -85.7321 48.6946 C-85.7249 44.5261 -85.7272 40.3577 -85.7324 36.1893 C-85.7337 34.1922 -85.7321 32.1952 -85.7274 30.1981 C-85.7223 27.4073 -85.7301 24.6167 -85.7412 21.8259 C-85.7372 21.0024 -85.7331 20.1789 -85.7289 19.3304 C-85.7602 15.0993 -86.0496 11.8625 -88 8 C-88.6987 7.9626 -89.3973 7.9252 -90.1172 7.8867 C-91.0273 7.821 -91.9373 7.7552 -92.875 7.6875 C-93.7799 7.6295 -94.6848 7.5715 -95.6172 7.5117 C-98 7 -98 7 -100 4 C-99.67 3.01 -99.34 2.02 -99 1 C-87.5686 0.8689 -76.1371 0.7385 -64.7056 0.6088 C-59.3969 0.5486 -54.0881 0.4882 -48.7793 0.4272 C-43.6505 0.3684 -38.5218 0.3101 -33.393 0.2522 C-31.4419 0.2301 -29.4908 0.2077 -27.5397 0.1852 C-24.7949 0.1535 -22.05 0.1226 -19.3052 0.0918 C-18.907 0.0871 -18.907 0.0871 -16.8923 0.0635 C-11.2604 0.0013 -5.6331 0 0 0 Z " fill="#0C2942" transform="translate(972,531)"/>
<path d="M0 0 C3.3724 1.0302 4.0391 2.0721 5.7539 5.2383 C6.3627 6.5937 6.9652 7.952 7.5625 9.3125 C11.5076 17.7737 16.7678 24.1388 23 31 C27 35.7047 27 35.7047 27 38 C28.32 38.33 29.64 38.66 31 39 C31 39.66 31 40.32 31 41 C31.544 41.2333 32.088 41.4666 32.6484 41.707 C35.6544 43.3598 38.0263 45.4488 40.625 47.6875 C47.3615 53.412 54.3821 58.4991 62 63 C62 63.66 62 64.32 62 65 C62.7012 65.2269 63.4025 65.4538 64.125 65.6875 C67.6168 67.2816 70.0619 69.5416 73 72 C74.9907 73.0185 76.9925 74.0152 79 75 C85.1907 78.7376 91.1841 82.7842 97.1875 86.8125 C103.0118 90.7201 108.9131 94.4805 114.8733 98.1768 C121.26 102.1434 127.5689 106.2251 133.8711 110.3242 C136.5612 112.0728 139.2609 113.8047 141.9727 115.5195 C142.6003 115.9178 143.2279 116.316 143.8745 116.7263 C145.5643 117.7969 147.2567 118.8635 148.9492 119.9297 C152.1697 122.1152 155.0524 124.4634 158 127 C157.6564 132.4971 154.271 135.8658 151 140 C149.4593 142.1407 147.922 144.2834 146.3945 146.4336 C145 148 145 148 142 149 C139.4766 147.707 139.4766 147.707 136.625 145.8125 C135.6891 145.2002 134.7533 144.5879 133.7891 143.957 C131 142 131 142 128.5859 140.0117 C126.1331 138.1036 123.6191 136.5992 120.9058 135.0942 C117.3459 133.0503 113.9673 130.7273 110.5625 128.4375 C109.7783 127.9123 108.994 127.3871 108.186 126.8459 C101.0861 122.0805 94.0368 117.2431 87.0029 112.3809 C84.9145 110.9411 82.8212 109.5088 80.7266 108.0781 C74.6533 103.926 68.6306 99.7759 62.8125 95.2695 C59.9645 93.2747 56.8924 91.7267 53.7852 90.1758 C52 89 52 89 51 86 C49.3574 85.276 47.6858 84.6166 46 84 C44.4828 83.0778 42.9931 82.1092 41.5312 81.1016 C40.7127 80.5395 39.8941 79.9775 39.0508 79.3984 C38.209 78.8132 37.3673 78.228 36.5 77.625 C36.0791 77.3363 36.0791 77.3363 33.9492 75.875 C25.0459 69.7338 25.0459 69.7338 22 67 C22 66.34 22 65.68 22 65 C21.3813 64.7113 20.7625 64.4225 20.125 64.125 C18 63 18 63 16 61 C15.2291 60.2794 14.4583 59.5588 13.6641 58.8164 C2.0665 46.5556 -1.75 31.5545 -2 15 C-1.5494 1.5494 -1.5494 1.5494 0 0 Z " fill="#C6964F" transform="translate(454,160)"/>
<path d="M0 0 C38.61 0 77.22 0 117 0 C117 8.91 117 17.82 117 27 C115.02 27.33 113.04 27.66 111 28 C110.6133 27.1686 110.2266 26.3371 109.8281 25.4805 C109.3073 24.3938 108.7866 23.3071 108.25 22.1875 C107.7395 21.1086 107.2291 20.0296 106.7031 18.918 C104.9682 15.9455 104.0176 14.5879 101 13 C94.892 11.8758 88.7585 11.6834 82.5625 11.4375 C81.5448 11.3943 80.5271 11.3511 79.4785 11.3066 C76.9858 11.2013 74.493 11.0992 72 11 C72.0844 23.1698 72.1792 35.3395 72.2875 47.5092 C72.3375 53.16 72.3838 58.8108 72.4219 64.4617 C72.4587 69.9147 72.5051 75.3676 72.5581 80.8205 C72.5766 82.9013 72.5917 84.9821 72.6033 87.0629 C72.6202 89.9766 72.6493 92.8899 72.6812 95.8035 C72.6833 96.6645 72.6855 97.5255 72.6877 98.4125 C72.6989 99.2103 72.71 100.0081 72.7215 100.8301 C72.7271 101.5187 72.7326 102.2073 72.7383 102.9167 C73 105 73 105 75 110 C79.29 110.66 83.58 111.32 88 112 C88.33 113.65 88.66 115.3 89 117 C88 118 88 118 85.6019 118.1203 C84.5382 118.118 83.4746 118.1158 82.3787 118.1135 C81.1775 118.1134 79.9763 118.1134 78.7388 118.1133 C77.4315 118.1081 76.1242 118.103 74.7773 118.0977 C73.4336 118.0958 72.0898 118.0944 70.746 118.0934 C67.2032 118.0895 63.6604 118.0797 60.1176 118.0687 C56.5048 118.0584 52.8921 118.0539 49.2793 118.0488 C42.1862 118.0381 35.0931 118.021 28 118 C28 116.35 28 114.7 28 113 C32.3342 110.9683 36.286 110.4794 41 110 C43.0979 104.8117 43.3048 100.2833 43.3188 94.7817 C43.3239 94.3278 43.3239 94.3278 43.3493 92.0303 C43.3801 89.0437 43.3971 86.0571 43.4141 83.0703 C43.4328 80.9938 43.4524 78.9173 43.4727 76.8408 C43.524 71.3862 43.5637 65.9315 43.6009 60.4767 C43.641 54.9063 43.692 49.336 43.7422 43.7656 C43.8389 32.8438 43.9233 21.922 44 11 C40.3536 11.1113 36.7081 11.2415 33.0625 11.375 C32.0409 11.4059 31.0193 11.4369 29.9668 11.4688 C14.0872 12.0776 14.0872 12.0776 9.625 16.1875 C8 19 8 19 6.5 22.6875 C5 26 5 26 2.8125 27.4375 C2.2144 27.6231 1.6162 27.8088 1 28 C0.01 27.34 -0.98 26.68 -2 26 C-3.327 17.4958 -1.1825 8.2772 0 0 Z " fill="#0C2942" transform="translate(121,531)"/>
<path d="M0 0 C4.9242 0.4179 7.6219 2.9257 11.125 6.125 C16.017 10.4364 20.9756 14.1134 26.5625 17.5078 C28.7422 18.8422 30.8104 20.2461 32.875 21.75 C35.5327 23.6635 38.19 25.3282 41 27 C46.9649 30.7326 52.863 34.556 58.7031 38.4805 C61.1957 40.1295 63.7197 41.7219 66.25 43.3125 C70.432 45.9562 74.5126 48.7222 78.5625 51.5625 C83.0963 54.7385 87.7111 57.682 92.4844 60.4844 C103.345 67.0277 113.8061 74.4863 124.0625 81.9375 C126.3484 83.5425 128.4538 84.8797 131 86 C131 86.66 131 87.32 131 88 C131.3448 88.1199 131.3448 88.1199 133.0898 88.7266 C136.5358 90.2345 139.5018 92.2195 142.5625 94.375 C143.1265 94.7617 143.6904 95.1484 144.2715 95.5469 C152.6378 101.3788 152.6378 101.3788 153.5618 105.5144 C153.5754 105.978 153.5754 105.978 153.6445 108.3242 C153.6629 108.8389 153.6629 108.8389 153.7559 111.4434 C153.7746 112.5139 153.7932 113.5845 153.8125 114.6875 C153.8505 115.7387 153.8886 116.79 153.9277 117.873 C154.1077 124.0276 153.8366 129.9009 153 136 C150.8008 136.7539 150.8008 136.7539 148 137 C145.6055 135.3398 145.6055 135.3398 143.1875 132.9375 C138.9793 128.9155 134.7205 125.3904 130 122 C129.1454 121.3735 128.2907 120.747 127.4102 120.1016 C123.0567 116.9143 118.6819 113.7648 114.25 110.6875 C109.973 107.7093 105.7619 104.6485 101.5625 101.5625 C100.9115 101.0843 100.2605 100.6062 99.5898 100.1135 C96.8107 98.0707 94.0338 96.025 91.2617 93.9727 C84.7511 89.1834 78.0942 84.6246 71.4158 80.0745 C65.8514 76.279 60.3165 72.445 54.8125 68.5625 C54.1427 68.091 53.4728 67.6196 52.7827 67.1338 C48.1246 63.8387 43.5523 60.4393 39 57 C38.4273 56.5716 37.8545 56.1433 37.2644 55.7019 C20.2919 43.0059 5.2909 24.8749 0.5 3.5 C0.335 2.345 0.17 1.19 0 0 Z " fill="#C4954E" transform="translate(454,240)"/>
<path d="M0 0 C1.1379 -0.0032 2.2758 -0.0063 3.4481 -0.0096 C4.6866 -0.0075 5.9251 -0.0055 7.2012 -0.0034 C8.4626 -0.0044 9.7239 -0.0053 11.0236 -0.0063 C13.6969 -0.007 16.3701 -0.0056 19.0435 -0.001 C22.477 0.0047 25.9104 0.0014 29.344 -0.0045 C32.6089 -0.009 35.8738 -0.0059 39.1387 -0.0034 C40.3772 -0.0054 41.6157 -0.0075 42.8917 -0.0096 C44.0296 -0.0064 45.1675 -0.0032 46.3398 0 C47.3472 0.0008 48.3546 0.0016 49.3925 0.0024 C51.6699 0.1294 51.6699 0.1294 52.6699 1.1294 C52.7106 2.7956 52.7126 4.4633 52.6699 6.1294 C50.7123 6.6323 48.7538 7.1316 46.7949 7.6294 C46.2496 7.7686 46.2496 7.7686 43.4902 8.4731 C40.6699 9.1294 40.6699 9.1294 38.6699 9.1294 C37.3509 13.0864 37.5308 16.8664 37.5405 20.9912 C37.5388 21.8971 37.537 22.803 37.5352 23.7364 C37.5308 26.7346 37.5337 29.7328 37.5371 32.731 C37.5364 34.8094 37.5355 36.8878 37.5342 38.9662 C37.5327 43.3223 37.5349 47.6785 37.5396 52.0347 C37.5453 57.6317 37.542 63.2286 37.536 68.8256 C37.5324 73.1166 37.5335 77.4075 37.5361 81.6984 C37.5368 83.763 37.5359 85.8276 37.5336 87.8921 C37.5311 90.7702 37.5349 93.6483 37.5405 96.5264 C37.5385 97.3877 37.5365 98.249 37.5344 99.1364 C37.5557 105.0151 37.5557 105.0151 38.6699 106.1294 C53.5758 109.1783 74.2413 108.9579 87.6699 101.1294 C88.3603 99.4724 89.023 97.8038 89.6699 96.1294 C91.234 94.0191 92.9276 92.1009 94.6699 90.1294 C96.3199 90.4594 97.9699 90.7894 99.6699 91.1294 C99.1047 97.5524 97.9622 103.4434 96.1699 109.6294 C95.9443 110.4389 95.7188 111.2485 95.4863 112.0825 C93.812 117.9873 93.812 117.9873 92.6699 119.1294 C89.5641 119.1946 86.4817 119.1943 83.3767 119.1511 C82.4012 119.1415 81.4257 119.1319 80.4206 119.122 C77.1794 119.0889 73.9384 119.0486 70.6973 119.0083 C68.4567 118.984 66.2161 118.9602 63.9755 118.9368 C58.0653 118.8738 52.1552 118.8048 46.2451 118.7345 C40.2194 118.6639 34.1937 118.599 28.168 118.5337 C16.3352 118.4045 4.5026 118.2689 -7.3301 118.1294 C-7.3301 116.4794 -7.3301 114.8294 -7.3301 113.1294 C-4.0508 111.2165 -0.8196 110.5057 2.8652 109.7896 C4.6699 109.1294 4.6699 109.1294 6.6699 106.1294 C6.8651 103.1601 6.9428 100.2848 6.9287 97.3152 C6.9322 96.4141 6.9357 95.513 6.9393 94.5846 C6.9481 91.6008 6.9423 88.6171 6.9355 85.6333 C6.9369 83.5621 6.9388 81.4909 6.9413 79.4197 C6.9443 75.076 6.94 70.7325 6.9307 66.3889 C6.9193 60.8191 6.9258 55.2494 6.9378 49.6796 C6.945 45.4014 6.9427 41.1232 6.9376 36.845 C6.9362 34.7913 6.9379 32.7376 6.9425 30.6838 C6.9476 27.8134 6.9399 24.9434 6.9287 22.073 C6.9328 21.2225 6.9368 20.3719 6.941 19.4957 C6.9122 15.5007 6.81 12.5384 4.6699 9.1294 C2.3574 8.3716 2.3574 8.3716 -0.3301 8.0044 C-5.1402 7.3192 -5.1402 7.3192 -7.3301 5.1294 C-6.155 -0.0744 -5.3095 0.0042 0 0 Z " fill="#0C2942" transform="translate(999.330078125,530.87060546875)"/>
<path d="M0 0 C0.9844 0.0014 1.9687 0.0029 2.9829 0.0043 C4.0975 0.0012 5.212 -0.0018 6.3604 -0.005 C6.9645 -0.0014 6.9645 -0.0014 10.022 0.0168 C11.2574 0.0172 12.4928 0.0177 13.7656 0.0182 C17.0529 0.022 20.34 0.035 23.6272 0.0516 C26.9723 0.0651 30.3174 0.0619 33.6626 0.0617 C36.1991 0.0666 38.7355 0.0724 41.272 0.0793 C41.8761 0.0798 41.8761 0.0798 44.9336 0.0826 C46.0481 0.089 47.1627 0.0954 48.311 0.102 C49.2954 0.1058 50.2798 0.1096 51.2939 0.1135 C53.647 0.2472 53.647 0.2472 55.647 1.2472 C55.6897 2.9134 55.6876 4.5811 55.647 6.2472 C53.5022 8.392 49.1216 8.1348 46.2134 8.5519 C43.647 9.2472 43.647 9.2472 41.647 12.2472 C40.5803 16.901 40.4987 21.5014 40.5017 26.2529 C40.4984 27.0325 40.495 27.8122 40.4915 28.6155 C40.4821 31.179 40.4801 33.7424 40.479 36.3058 C40.4758 38.0965 40.4724 39.8872 40.4689 41.6779 C40.4629 45.426 40.4611 49.1742 40.4617 52.9223 C40.4618 57.7149 40.4481 62.5074 40.4309 67.2999 C40.4198 70.9966 40.4178 74.6933 40.4183 78.39 C40.4171 80.1565 40.4127 81.9231 40.4049 83.6896 C40.3951 86.1639 40.398 88.6379 40.4041 91.1122 C40.3984 91.835 40.3928 92.5579 40.387 93.3026 C40.416 98.0121 41.1897 101.8205 42.647 106.2472 C53.5023 107.6195 64.1443 107.5354 75.022 106.4972 C75.7709 106.4356 76.5199 106.374 77.2915 106.3105 C83.7121 105.6216 88.4986 103.8372 92.7563 98.7043 C93.2978 97.8316 93.8392 96.9589 94.397 96.0597 C97.3509 91.3459 97.3509 91.3459 100.647 90.2472 C101.967 91.5672 103.287 92.8872 104.647 94.2472 C104.0719 96.5413 103.4871 98.8321 102.897 101.1222 C102.5721 102.3984 102.2473 103.6746 101.9126 104.9894 C100.4691 109.8458 98.5286 114.5432 96.647 119.2472 C63.317 118.9172 29.987 118.5872 -4.353 118.2472 C-4.353 116.5972 -4.353 114.9472 -4.353 113.2472 C-0.7534 111.2666 2.6085 110.5943 6.6235 109.9074 C8.647 109.2472 8.647 109.2472 10.647 106.2472 C10.8473 103.2782 10.9303 100.4028 10.9216 97.433 C10.9267 96.5319 10.9319 95.6308 10.9371 94.7024 C10.951 91.7186 10.9501 88.735 10.9478 85.7511 C10.9516 83.6799 10.956 81.6087 10.9607 79.5375 C10.9682 75.1939 10.9679 70.8504 10.9626 66.5068 C10.9569 60.9368 10.9738 55.3673 10.997 49.7974 C11.0117 45.5192 11.0126 41.2411 11.0095 36.9629 C11.01 34.9091 11.0152 32.8554 11.0253 30.8017 C11.0376 27.9312 11.0309 25.0613 11.0193 22.1908 C11.0269 21.3403 11.0346 20.4898 11.0424 19.6135 C11.0112 16.1238 10.9786 13.8578 9.2924 10.7537 C7.023 8.676 4.9355 8.1975 1.9595 7.4972 C0.9656 7.2549 -0.0283 7.0126 -1.0522 6.7629 C-1.8115 6.5927 -2.5708 6.4226 -3.353 6.2472 C-3.683 4.9272 -4.013 3.6072 -4.353 2.2472 C-2.353 0.2472 -2.353 0.2472 0 0 Z " fill="#0C2942" transform="translate(1111.35302734375,530.7527618408203)"/>
<path d="M0 0 C0.8471 0.122 1.6941 0.244 2.5669 0.3698 C11.0233 1.6003 19.4538 2.9503 27.8594 4.4922 C28.2008 4.554 28.2008 4.554 29.9285 4.8667 C34.629 5.754 34.629 5.754 35.75 6.875 C35.8515 9.1716 35.8808 11.4713 35.8837 13.7701 C35.886 14.5 35.8882 15.23 35.8906 15.9821 C35.8969 18.4474 35.8961 20.9128 35.8953 23.3782 C35.8983 25.139 35.9017 26.8997 35.9054 28.6605 C35.9143 33.4633 35.9166 38.2661 35.9173 43.0689 C35.918 46.0753 35.9201 49.0818 35.9228 52.0882 C35.932 62.5957 35.9361 73.1031 35.9353 83.6106 C35.9347 93.3686 35.9452 103.1265 35.961 112.8844 C35.9742 121.2796 35.9795 129.6747 35.9788 138.0699 C35.9786 143.0751 35.9813 148.0802 35.992 153.0853 C36.0018 157.8123 36.0017 162.5391 35.9945 167.2661 C35.9935 168.9847 35.9957 170.7034 36.0019 172.422 C36.0536 187.9427 35.231 203.6404 32.0625 218.875 C31.8944 219.6864 31.7264 220.4978 31.5532 221.3337 C26.3313 245.1163 15.2913 265.5491 0.75 284.875 C0.0977 285.7606 -0.5545 286.6462 -1.2266 287.5586 C-23.5691 316.7416 -53.9919 341.822 -85.25 360.875 C-86.249 361.495 -87.248 362.1151 -88.2773 362.7539 C-91.0203 364.4529 -93.7696 366.1406 -96.5244 367.8203 C-97.679 368.526 -98.832 369.2344 -99.9834 369.9453 C-115.1192 379.2907 -130.8419 387.4322 -146.9922 394.8789 C-149.5726 396.0703 -152.0608 397.309 -154.5703 398.6523 C-161.8744 402.4875 -161.8744 402.4875 -166.6875 401 C-168.2205 400.3184 -169.741 399.6081 -171.25 398.875 C-171.6722 398.7132 -171.6722 398.7132 -173.8086 397.8945 C-186.4557 393.0357 -198.5739 386.2809 -210.0781 379.1602 C-212.3574 377.8115 -214.6776 376.6507 -217.0625 375.5 C-222.1063 373.0289 -226.8238 370.1455 -231.5781 367.1602 C-234.1897 365.5211 -236.827 363.9348 -239.4844 362.3711 C-250.3639 355.9316 -260.374 348.7585 -270.25 340.875 C-270.7922 340.4446 -271.3344 340.0142 -271.8931 339.5708 C-274.0265 337.8772 -276.1535 336.1763 -278.2695 334.4609 C-279.6477 333.3573 -281.0661 332.3028 -282.5117 331.2891 C-283.0854 330.8224 -283.659 330.3558 -284.25 329.875 C-284.25 329.215 -284.25 328.555 -284.25 327.875 C-284.843 327.6107 -285.4359 327.3465 -286.0469 327.0742 C-288.3303 325.8313 -289.7243 324.571 -291.5 322.6875 C-293.9902 320.1175 -296.5347 317.7061 -299.25 315.375 C-307.1717 308.5209 -307.1717 308.5209 -310.25 304.875 C-310.25 304.215 -310.25 303.555 -310.25 302.875 C-310.91 302.875 -311.57 302.875 -312.25 302.875 C-339.4242 277.322 -360.5195 235.2029 -362.3481 197.872 C-362.3907 195.7762 -362.4054 193.6822 -362.4082 191.5859 C-362.4107 191.1885 -362.4107 191.1885 -362.4232 189.177 C-362.4384 186.5346 -362.4469 183.8923 -362.4553 181.25 C-362.4649 179.3474 -362.4749 177.4447 -362.4853 175.5421 C-362.5123 170.3919 -362.5333 165.2417 -362.5533 160.0915 C-362.5752 154.7037 -362.6026 149.3158 -362.6294 143.928 C-362.6792 133.732 -362.7242 123.536 -362.7674 113.34 C-362.8168 101.7294 -362.8717 90.1188 -362.9271 78.5082 C-363.0408 54.6305 -363.1477 30.7528 -363.25 6.875 C-359.4872 5.3138 -356.0656 4.3732 -352.0352 3.7266 C-350.808 3.528 -349.5809 3.3294 -348.3167 3.1248 C-346.982 2.9159 -345.6473 2.7077 -344.3125 2.5 C-343.6261 2.3917 -342.9396 2.2835 -342.2324 2.1719 C-262.1191 -10.4565 -181.3095 -13.4153 0 0 Z M-281.25 -4.125 C-281.9065 -4.0624 -281.9065 -4.0624 -285.229 -3.7456 C-297.9578 -2.5084 -310.617 -1.0661 -323.2305 1.0508 C-330.8607 2.3275 -338.5228 3.4027 -346.178 4.5173 C-347.282 4.6792 -348.386 4.841 -349.5234 5.0078 C-350.5075 5.1511 -351.4915 5.2943 -352.5054 5.4419 C-352.9582 5.5134 -352.9582 5.5134 -355.25 5.875 C-356.1725 6.0166 -357.095 6.1583 -358.0454 6.3042 C-358.7729 6.4926 -359.5004 6.6809 -360.25 6.875 C-361.7073 9.7896 -361.376 12.3368 -361.377 15.5934 C-361.3785 16.2922 -361.3801 16.9911 -361.3817 17.7111 C-361.3857 20.0651 -361.3825 22.4191 -361.3794 24.7732 C-361.3807 26.4569 -361.3825 28.1407 -361.3847 29.8244 C-361.3893 34.4122 -361.3875 39 -361.3843 43.5878 C-361.3818 48.3995 -361.3841 53.2113 -361.3857 58.0231 C-361.3875 66.1231 -361.3851 74.223 -361.3804 82.323 C-361.375 91.6453 -361.3767 100.9676 -361.3822 110.2899 C-361.3868 118.3122 -361.3874 126.3346 -361.3848 134.3569 C-361.3832 139.139 -361.383 143.9211 -361.3863 148.7032 C-361.3892 153.2184 -361.3871 157.7335 -361.3814 162.2487 C-361.3801 163.8904 -361.3804 165.532 -361.3827 167.1737 C-361.3934 175.8477 -361.2377 184.4904 -360.7917 193.1541 C-360.7513 193.9433 -360.7108 194.7326 -360.6692 195.5457 C-360.3551 201.1261 -359.7242 206.5395 -358.5 212 C-358.3237 212.8229 -358.1474 213.6458 -357.9658 214.4937 C-354.2104 231.5239 -348.98 248.1854 -339.4709 262.9509 C-338.3221 264.7614 -337.2587 266.5963 -336.2148 268.4688 C-334.2379 271.896 -332.1081 275.1573 -329.8125 278.375 C-329.3929 278.9645 -328.9733 279.554 -328.541 280.1614 C-323.6258 286.9288 -318.0976 293.1634 -312.5117 299.3796 C-311.25 300.875 -311.25 300.875 -309.25 303.875 C-308.59 303.875 -307.93 303.875 -307.25 303.875 C-307.25 304.535 -307.25 305.195 -307.25 305.875 C-306.59 305.875 -305.93 305.875 -305.25 305.875 C-305.1228 306.1671 -305.1228 306.1671 -304.4792 307.645 C-303.1182 310.1141 -301.6433 311.6377 -299.582 313.5547 C-298.8531 314.2366 -298.1241 314.9185 -297.373 315.6211 C-296.6106 316.3236 -295.8481 317.0262 -295.0625 317.75 C-294.3194 318.4448 -293.5762 319.1396 -292.8105 319.8555 C-279.8969 331.875 -279.8969 331.875 -277.25 331.875 C-277.25 332.535 -277.25 333.195 -277.25 333.875 C-275.8799 335.1685 -275.8799 335.1685 -273.9531 336.6328 C-273.6007 336.9022 -273.6007 336.9022 -271.8174 338.2656 C-271.0526 338.838 -270.2879 339.4103 -269.5 340 C-268.7172 340.5904 -267.9344 341.1808 -267.1279 341.7891 C-260.9843 346.3911 -254.7485 350.7868 -248.25 354.875 C-247.4548 355.3756 -246.6596 355.8763 -245.8403 356.3921 C-243.0847 358.1215 -240.3248 359.8438 -237.5625 361.5625 C-236.683 362.1097 -235.8036 362.6569 -234.8975 363.2207 C-230.1095 366.1774 -225.2818 369.0191 -220.3474 371.7244 C-218.4008 372.7923 -216.4678 373.8805 -214.5391 374.9805 C-200.9877 382.6934 -187.3295 390.2337 -173.125 396.6875 C-172.7465 396.8716 -172.7465 396.8716 -170.8308 397.803 C-166.9544 399.4955 -164.2244 400.2533 -160.1133 399.0078 C-158.4747 398.3381 -156.8554 397.6207 -155.25 396.875 C-154.1743 396.3889 -153.0986 395.9029 -151.9902 395.4021 C-148.1569 393.6271 -144.3569 391.7937 -140.5625 389.9375 C-140.223 389.7723 -140.223 389.7723 -138.5048 388.9366 C-129.5344 384.569 -120.6408 380.0806 -111.875 375.3125 C-111.022 374.8492 -110.1691 374.3858 -109.2903 373.9084 C-104.5062 371.2604 -99.9359 368.4009 -95.4128 365.3296 C-93.3765 363.9601 -91.3164 362.6478 -89.2305 361.3555 C-77.0894 353.8247 -65.4506 345.7389 -54.25 336.875 C-53.8639 336.5856 -53.8639 336.5856 -51.9102 335.1211 C-46.0301 330.7084 -40.7106 325.7687 -35.3477 320.7539 C-32.2415 317.8524 -29.0617 315.0453 -25.8359 312.2773 C-24.2308 310.858 -22.6792 309.4731 -21.25 307.875 C-21.25 307.215 -21.25 306.555 -21.25 305.875 C-20.26 305.545 -19.27 305.215 -18.25 304.875 C-16.4961 303.168 -16.4961 303.168 -14.6875 301.0625 C-14.0881 300.3754 -13.4887 299.6884 -12.8711 298.9805 C-11.3535 297.0094 -10.271 295.1354 -9.25 292.875 C-8.59 292.875 -7.93 292.875 -7.25 292.875 C7.7771 277.2218 18.8502 255.5692 25.8906 235.3125 C26.75 232.875 26.75 232.875 27.7656 230.5586 C29.039 227.0871 29.6461 223.5707 30.25 219.9375 C30.3673 219.2665 30.4846 218.5956 30.6055 217.9043 C30.8523 216.4646 31.0893 215.0231 31.3174 213.5803 C31.6153 211.7174 31.929 209.8569 32.2558 207.9988 C33.8954 197.9315 34.0207 188.1114 33.9771 177.936 C33.9765 176.0719 33.9768 174.2078 33.9779 172.3437 C33.9785 167.3261 33.9668 162.3085 33.9528 157.2909 C33.9402 152.0312 33.9391 146.7715 33.9367 141.5118 C33.9305 131.571 33.9142 121.6302 33.894 111.6894 C33.8716 100.364 33.8607 89.0387 33.8506 77.7133 C33.8298 54.4338 33.7947 31.1544 33.75 7.875 C29.6037 6.6712 25.5678 5.5768 21.3008 4.9102 C20.2996 4.7516 19.2984 4.593 18.2668 4.4297 C17.2094 4.2673 16.152 4.1048 15.0625 3.9375 C14.5032 3.8505 14.5032 3.8505 11.6726 3.4102 C9.4057 3.0583 7.1385 2.7082 4.8711 2.3599 C2.2445 1.9518 -0.3781 1.527 -3 1.0898 C-28.6473 -3.1072 -54.646 -5.1707 -80.5625 -6.8125 C-81.5144 -6.8732 -82.4662 -6.9338 -83.4469 -6.9963 C-90.046 -7.4114 -96.6466 -7.7851 -103.25 -8.125 C-103.7294 -8.1497 -103.7294 -8.1497 -106.1557 -8.2749 C-124.1836 -9.1726 -142.2038 -9.3258 -160.25 -9.3125 C-160.6123 -9.3124 -160.6123 -9.3124 -162.4456 -9.3121 C-202.1509 -9.3039 -241.7144 -7.9206 -281.25 -4.125 Z " fill="#C89850" transform="translate(771.25,34.125)"/>
<path d="M0 0 C0.558 0.0517 0.558 0.0517 3.3821 0.3131 C24.5529 2.2861 45.6612 4.5842 66.6145 8.2424 C68.8803 8.6368 71.148 9.0189 73.416 9.4004 C74.8855 9.6529 76.3549 9.9062 77.8242 10.1602 C79.1116 10.382 80.399 10.6038 81.7253 10.8323 C84.7507 11.4821 87.353 12.1972 90.125 13.5625 C91.6333 16.5792 91.273 19.6948 91.2722 23.0041 C91.2758 23.7809 91.2795 24.5578 91.2833 25.3581 C91.2944 27.9767 91.2982 30.5953 91.302 33.2139 C91.3083 35.0866 91.3149 36.9594 91.3219 38.8322 C91.343 45.0079 91.3533 51.1836 91.3633 57.3594 C91.3673 59.4928 91.3714 61.6262 91.3756 63.7596 C91.3947 73.8083 91.4089 83.857 91.4172 93.9058 C91.427 105.4432 91.4531 116.9804 91.4937 128.5177 C91.5242 137.465 91.5387 146.4124 91.542 155.3598 C91.5444 160.6861 91.553 166.0122 91.5785 171.3385 C91.8455 230.1941 91.8455 230.1941 82.125 257.5625 C81.8195 258.519 81.514 259.4755 81.1992 260.4609 C77.4039 271.8635 71.4502 282.5485 65.375 292.875 C65.0106 293.5031 64.6462 294.1312 64.2708 294.7783 C62.2721 298.0965 60.4295 300.5009 57.125 302.5625 C58.5157 298.7293 60.3226 295.5869 62.5625 292.1875 C86.3162 254.5356 88.7614 215.5997 88.5306 172.3385 C88.5052 166.7746 88.5032 161.2107 88.4985 155.6468 C88.4861 145.1538 88.4534 134.661 88.4131 124.1681 C88.3681 112.204 88.3463 100.2399 88.3263 88.2758 C88.2847 63.7046 88.2145 39.1336 88.125 14.5625 C82.1448 13.5972 76.1639 12.6358 70.1825 11.6776 C68.1548 11.3522 66.1273 11.0259 64.0999 10.6985 C47.8271 8.0717 31.5896 5.9077 15.1875 4.25 C12.9159 4.0108 10.6444 3.7706 8.373 3.5293 C2.9589 2.9577 -2.4569 2.4041 -7.8742 1.8627 C-9.8263 1.6674 -11.7783 1.4705 -13.7301 1.2716 C-26.2457 -0.0022 -38.7436 -1.0078 -51.3125 -1.5625 C-52.2499 -1.6042 -53.1873 -1.6459 -54.1531 -1.6888 C-143.3258 -5.4598 -231.2931 -0.9809 -319.3918 13.177 C-322.549 13.6671 -325.712 14.1125 -328.875 14.5625 C-328.8984 38.9287 -328.916 63.2949 -328.9268 87.6611 C-328.932 98.9761 -328.939 110.291 -328.9504 121.606 C-328.9604 131.4739 -328.9669 141.3419 -328.9691 151.2099 C-328.9704 156.4295 -328.9734 161.6491 -328.9807 166.8688 C-328.9876 171.7935 -328.9896 176.7182 -328.9881 181.6429 C-328.9884 183.439 -328.9903 185.2351 -328.9942 187.0313 C-329.024 201.5991 -328.8871 216.1449 -326.125 230.5 C-325.9487 231.4304 -325.7724 232.3608 -325.5908 233.3193 C-319.6858 263.3802 -305.6726 292.3569 -284.9832 315.115 C-283.875 316.5625 -283.875 316.5625 -283.875 318.5625 C-283.215 318.5625 -282.555 318.5625 -281.875 318.5625 C-280.5269 320.098 -279.2478 321.6944 -278 323.3125 C-272.7572 329.8895 -266.9071 335.7141 -260.875 341.5625 C-263.875 341.5625 -263.875 341.5625 -265.3896 340.4043 C-265.9159 339.8687 -266.4422 339.3331 -266.9844 338.7812 C-267.5707 338.1905 -268.1571 337.5998 -268.7612 336.9912 C-269.3763 336.3547 -269.9913 335.7183 -270.625 335.0625 C-271.2568 334.4183 -271.8886 333.7741 -272.5396 333.1104 C-276.8129 328.7277 -280.9885 324.2947 -284.875 319.5625 C-285.2366 319.1281 -285.2366 319.1281 -287.0664 316.9297 C-292.875 309.8382 -292.875 309.8382 -292.875 307.5625 C-293.535 307.5625 -294.195 307.5625 -294.875 307.5625 C-296.2911 305.6546 -297.5599 303.7632 -298.8125 301.75 C-299.2015 301.1327 -299.5904 300.5154 -299.9912 299.8794 C-315.313 275.3392 -315.313 275.3392 -319.875 262.5625 C-320.1426 261.8659 -320.4103 261.1693 -320.686 260.4517 C-331.8005 231.4451 -331.4556 202.0938 -331.3135 171.5049 C-331.2919 165.978 -331.2928 160.4511 -331.2908 154.9241 C-331.2844 145.6781 -331.2633 136.4322 -331.2317 127.1863 C-331.1911 115.3102 -331.1739 103.4342 -331.1644 91.5581 C-331.1561 81.3193 -331.1389 71.0805 -331.1193 60.8417 C-331.1153 58.6485 -331.1116 56.4552 -331.1081 54.262 C-331.0984 48.033 -331.0839 41.804 -331.0613 35.5751 C-331.0551 33.6876 -331.0507 31.8001 -331.048 29.9126 C-331.0441 27.3464 -331.034 24.7803 -331.0222 22.2141 C-331.0223 21.8371 -331.0223 21.8371 -331.0227 19.9294 C-330.9892 14.791 -330.9892 14.791 -329.875 12.5625 C-326.8479 11.8471 -323.8759 11.266 -320.8125 10.75 C-319.8393 10.5811 -318.8662 10.4123 -317.8635 10.2383 C-314.5359 9.6679 -311.2057 9.1147 -307.875 8.5625 C-307.284 8.4624 -307.284 8.4624 -304.293 7.9556 C-282.5695 4.2939 -260.7973 1.6984 -238.875 -0.4375 C-238.1178 -0.5114 -237.3606 -0.5853 -236.5805 -0.6614 C-231.4298 -1.1622 -226.278 -1.6488 -221.125 -2.125 C-219.8367 -2.2444 -218.5483 -2.3638 -217.2209 -2.4868 C-200.9915 -3.9401 -184.7872 -4.6491 -168.5 -5 C-167.555 -5.0208 -166.6101 -5.0417 -165.6364 -5.0632 C-110.2362 -6.2601 -55.1835 -5.131 0 0 Z " fill="#C89850" transform="translate(727.875,17.4375)"/>
<path d="M0 0 C1.1911 0.0412 2.3822 0.0825 3.6094 0.125 C9.8641 0.4417 14.5133 0.7457 20 4 C23.9393 8.3651 25.2981 10.9585 25.2227 16.9062 C24.7901 20.9737 22.8474 24.0013 20.25 27.0625 C19 29 19 29 19.1992 31.3203 C20.1351 34.452 21.4952 36.2942 23.5625 38.8125 C24.2032 39.6027 24.8438 40.3929 25.5039 41.207 C25.7508 41.5029 25.7508 41.5029 27 43 C26.835 43.33 26.835 43.33 26 45 C23.3556 45.8815 21.7194 46.1617 19 46.1875 C18.6597 46.1946 18.6597 46.1946 16.9375 46.2305 C15 46 15 46 12 44 C10.9815 42.0093 9.9848 40.0075 9 38 C7.607 35.3368 6.276 32.9929 4 31 C1.0973 30.3903 -1.0015 30.6442 -4 31 C-5.9838 34.9677 -5.3263 39.8553 -4 44 C-7.6414 46.3305 -10.7525 46.3089 -15 46 C-15.99 45.34 -16.98 44.68 -18 44 C-18.3608 42.165 -18.3608 42.165 -18.3406 39.9175 C-18.3403 39.0768 -18.3401 38.236 -18.3399 37.3698 C-18.3244 36.4615 -18.3089 35.5531 -18.293 34.6172 C-18.2887 33.6878 -18.2845 32.7584 -18.2801 31.8008 C-18.2633 28.8252 -18.2256 25.8504 -18.1875 22.875 C-18.1725 20.8607 -18.1588 18.8464 -18.1465 16.832 C-18.1134 11.8878 -18.0616 6.944 -18 2 C-11.652 0.1255 -6.5657 -0.2639 0 0 Z M-4 10 C-5.866 14.1808 -6.0458 16.5033 -5 21 C-1.5369 22.1015 1.4543 22.0183 5.0625 21.75 C5.5839 21.7165 5.5839 21.7165 8.2227 21.5469 C11.2278 20.9551 12.2348 20.4569 14 18 C14.4375 15.5 14.4375 15.5 14 13 C11.5265 10.416 10.1539 10.0131 6.5469 9.707 C5.2939 9.7418 4.0409 9.7766 2.75 9.8125 C1.4867 9.8396 0.2234 9.8666 -1.0781 9.8945 C-1.5602 9.9119 -1.5602 9.9119 -4 10 Z " fill="#AC7C3D" transform="translate(994,705)"/>
<path d="M0 0 C2.6875 2 2.6875 2 5 5 C6.0764 6.2352 7.1604 7.4639 8.25 8.6875 C8.8378 9.3643 9.4256 10.041 10.0312 10.7383 C12.2576 13.2959 14.4972 15.8406 16.75 18.375 C17.1187 18.7914 17.1187 18.7914 18.9844 20.8984 C21 23 21 23 24 25 C23.9948 24.2782 23.9895 23.5564 23.9841 22.8127 C23.9634 19.5627 23.9504 16.3126 23.9375 13.0625 C23.9291 11.9262 23.9207 10.7899 23.9121 9.6191 C23.9089 8.5396 23.9057 7.46 23.9023 6.3477 C23.8971 5.3474 23.8919 4.3472 23.8865 3.3167 C24 1 24 1 25 0 C26.6861 -0.0721 28.375 -0.0839 30.0625 -0.0625 C30.9816 -0.0535 31.9007 -0.0445 32.8477 -0.0352 C33.5579 -0.0236 34.2682 -0.012 35 0 C35.8023 2.8029 36.1046 5.2157 36.0217 8.126 C36.0016 8.9265 35.9815 9.727 35.9608 10.5518 C35.9473 10.979 35.9473 10.979 35.8789 13.1406 C35.8671 13.5817 35.8671 13.5817 35.8074 15.8139 C35.7309 18.6261 35.6468 21.438 35.5625 24.25 C35.5093 26.1588 35.4565 28.0677 35.4043 29.9766 C35.2753 34.6512 35.1395 39.3256 35 44 C28.3257 45.1362 28.3257 45.1362 25.3945 43.9102 C22.5333 41.6277 20.1344 39.1599 17.6875 36.4375 C16.8045 35.4668 15.9215 34.4962 15.0117 33.4961 C13 31 13 31 13 29 C12.4045 28.7435 11.8089 28.487 11.1953 28.2227 C8.803 26.8903 7.5727 25.5663 5.875 23.4375 C3.1944 20.0972 3.1944 20.0972 1 19 C1 27.25 1 35.5 1 44 C-8 45.125 -8 45.125 -12 43 C-11.67 42.01 -11.34 41.02 -11 40 C-10.8995 37.5504 -10.8592 35.1367 -10.875 32.6875 C-10.876 32.3234 -10.876 32.3234 -10.8809 30.4807 C-10.9547 20.6448 -11.4848 10.8209 -12 1 C-8.2725 -0.8638 -4.0597 -0.5542 0 0 Z " fill="#A8783A" transform="translate(853,706)"/>
<path d="M0 0 C2.0878 -0.0171 4.1739 -0.0609 6.2612 -0.1052 C18.7948 -0.2524 18.7948 -0.2524 24.4917 4.2952 C28.2137 8.3989 29.1368 11.7218 28.8823 17.1116 C28.2651 20.5621 26.7765 22.693 24.4917 25.2952 C23.1811 26.0055 21.8503 26.6815 20.4917 27.2952 C21.591 29.069 22.6963 30.8392 23.8042 32.6077 C24.4191 33.5938 25.034 34.5799 25.6675 35.5959 C27.4917 38.2952 27.4917 38.2952 29.2222 39.9631 C30.4917 41.2952 30.4917 41.2952 30.4917 44.2952 C28.9104 44.5185 27.3265 44.7232 25.7417 44.9202 C24.86 45.0362 23.9783 45.1522 23.0698 45.2717 C20.1198 45.2985 18.8982 44.9817 16.4917 43.2952 C14.5698 40.9827 14.5698 40.9827 12.7417 38.2952 C12.1281 37.4083 11.5145 36.5214 10.8823 35.6077 C9.4917 33.2952 9.4917 33.2952 9.4917 31.2952 C6.0184 30.1374 3.131 30.2265 -0.5083 30.2952 C-0.5083 34.5852 -0.5083 38.8752 -0.5083 43.2952 C-4.488 45.285 -5.1851 45.5192 -9.2583 44.9202 C-10.0575 44.8093 -10.8567 44.6984 -11.6802 44.5842 C-11.9818 44.5365 -11.9818 44.5365 -13.5083 44.2952 C-13.5329 38.1896 -13.5511 32.0841 -13.5632 25.9785 C-13.5683 23.8997 -13.5751 21.821 -13.5837 19.7422 C-13.5958 16.7611 -13.6015 13.7801 -13.606 10.7991 C-13.6085 10.3314 -13.6085 10.3314 -13.6216 7.9645 C-13.6217 7.1037 -13.6217 6.2429 -13.6218 5.356 C-13.624 4.5943 -13.6263 3.8326 -13.6286 3.0479 C-13.2771 -2.0751 -3.7979 0.0217 0 0 Z M-1.5083 10.2952 C-1.5289 11.5739 -1.5496 12.8527 -1.5708 14.1702 C-1.5824 14.8895 -1.594 15.6088 -1.606 16.3499 C-1.5083 18.2952 -1.5083 18.2952 -0.5083 20.2952 C5.4718 21.9178 10.6945 21.1586 16.4917 19.2952 C17.4917 18.2952 17.4917 18.2952 17.5542 14.7327 C17.5439 14.1655 17.5439 14.1655 17.4917 11.2952 C12.0868 8.9579 3.9823 7.5499 -1.5083 10.2952 Z " fill="#B48442" transform="translate(731.50830078125,705.704833984375)"/>
<path d="M0 0 C0 3.3 0 6.6 0 10 C-8.58 10 -17.16 10 -26 10 C-26.33 12.31 -26.66 14.62 -27 17 C-23.7 16.835 -23.7 16.835 -7 16 C-6 25 -6 25 -7 27 C-13.6 27 -20.2 27 -27 27 C-27 29.64 -27 32.28 -27 35 C-17.76 35 -8.52 35 1 35 C1 37.97 1 40.94 1 44 C-0.779 45.779 -3.1565 45.1284 -5.5251 45.1389 C-6.298 45.1369 -7.0709 45.1349 -7.8672 45.1328 C-8.6577 45.1338 -9.4482 45.1347 -10.2627 45.1357 C-11.939 45.1364 -13.6152 45.1345 -15.2915 45.1304 C-17.8572 45.125 -20.4226 45.1303 -22.9883 45.1367 C-24.6146 45.1361 -26.2409 45.1348 -27.8672 45.1328 C-28.636 45.1348 -29.4049 45.1369 -30.197 45.1389 C-33.3957 45.1249 -35.9431 45.019 -39 44 C-39 29.48 -39 14.96 -39 0 C-33.4931 -0.1856 -27.9863 -0.3713 -22.3125 -0.5625 C-21.4477 -0.5932 -21.4477 -0.5932 -17.0715 -0.7483 C-15.6896 -0.7923 -14.3077 -0.8359 -12.9258 -0.8789 C-12.2172 -0.9056 -11.5087 -0.9323 -10.7787 -0.9598 C-7.0297 -1.0709 -3.6425 -0.9223 0 0 Z " fill="#A8783A" transform="translate(953,706)"/>
<path d="M0 0 C0.4744 0.4538 0.9488 0.9075 1.4375 1.375 C0.625 4.8125 0.625 4.8125 -0.5625 8.375 C-4.0803 9.5476 -4.8175 9.116 -8.1875 7.875 C-13.4278 6.1719 -17.1725 6.4187 -22.5625 7.375 C-22.8925 8.695 -23.2225 10.015 -23.5625 11.375 C-20.1768 13.3719 -17.1938 13.769 -13.3125 14.1875 C-7.5564 15.0098 -2.853 16.2985 1.4375 20.375 C3.8196 24.2224 3.977 27.9525 3.4375 32.375 C1.4901 37.6086 -2.7793 39.9359 -7.5625 42.375 C-9.9375 43.1875 -9.9375 43.1875 -12.5625 43.375 C-13.2341 43.4485 -13.9057 43.522 -14.5977 43.5977 C-22.5811 44.1039 -29.2795 41.3134 -36.5625 38.375 C-35.9471 31.8519 -35.9471 31.8519 -34 29.4375 C-33.7628 29.2622 -33.7628 29.2622 -32.5625 28.375 C-31.49 29.035 -30.4175 29.695 -29.3125 30.375 C-23.9371 33.0819 -18.4618 33.0998 -12.5625 32.375 C-10.2031 31.3516 -10.2031 31.3516 -8.5625 30.375 C-9.1172 28.4648 -9.1172 28.4648 -10.5625 26.375 C-13.7578 25.5039 -13.7578 25.5039 -17.6875 24.9375 C-25.1905 23.6787 -30.5094 21.7982 -35.625 16.0625 C-37.3001 11.2604 -36.3412 7.127 -34.3125 2.5625 C-26.9843 -6.5977 -9.2696 -5.8783 0 0 Z " fill="#A8783A" transform="translate(1076.5625,708.625)"/>
<path d="M0 0 C1.2594 -0.0245 2.5188 -0.049 3.8164 -0.0742 C11.8523 -0.0995 17.7762 0.3229 24.0181 5.8228 C26.7538 8.9522 26.5964 12.3948 26.5234 16.3867 C26.1127 21.889 23.4208 24.8226 19.375 28.375 C16.8125 29.2292 14.7976 29.6279 12.1445 29.9102 C11.3421 29.9972 10.5396 30.0842 9.7129 30.1738 C8.8795 30.2608 8.0461 30.3479 7.1875 30.4375 C6.3425 30.5284 5.4975 30.6193 4.627 30.7129 C2.5433 30.9366 0.4592 31.1562 -1.625 31.375 C-1.799 32.6434 -1.973 33.9119 -2.1523 35.2188 C-2.2502 35.9322 -2.3481 36.6457 -2.449 37.3809 C-2.6436 39.586 -2.4029 41.3005 -1.625 43.375 C-5.5253 45.9752 -9.0993 45.5259 -13.625 45.375 C-16.3385 41.3828 -15.9133 37.1587 -15.8906 32.5234 C-15.8925 31.6682 -15.8945 30.813 -15.8964 29.9318 C-15.8978 28.128 -15.8941 26.3243 -15.8857 24.5205 C-15.875 21.753 -15.8857 18.9862 -15.8984 16.2188 C-15.8971 14.4661 -15.8946 12.7135 -15.8906 10.9609 C-15.8947 10.1307 -15.8987 9.3005 -15.9029 8.4452 C-15.8148 -2.2769 -8.8265 0.0089 0 0 Z M-1.625 9.375 C-3.9248 13.3667 -3.5599 15.8704 -2.625 20.375 C-0.764 22.236 2.1954 21.5917 4.6875 21.625 C5.2631 21.6379 5.2631 21.6379 8.1758 21.7031 C11.5922 21.3527 12.9094 20.6884 15.375 18.375 C15.125 15 15.125 15 14.375 11.375 C11.132 8.9886 8.0422 9.1648 4.125 9.25 C3.5862 9.259 3.5862 9.259 0.8594 9.3047 C0.0395 9.3279 -0.7803 9.3511 -1.625 9.375 Z " fill="#B48442" transform="translate(607.625,705.625)"/>
<path d="M0 0 C1.2555 -0.029 2.5111 -0.058 3.8047 -0.0879 C12.0975 -0.1444 18.9864 0.5042 25.5 6 C27.3441 10.2645 28.1302 14.7869 26.9922 19.3477 C24.9232 24.4766 22.4888 27.1547 17.5 29.3125 C15.21 29.6313 15.21 29.6313 12.7344 29.7266 C12.2896 29.7459 12.2896 29.7459 10.0391 29.8438 C9.1187 29.8747 8.1983 29.9056 7.25 29.9375 C6.7821 29.9568 6.7821 29.9568 4.4141 30.0547 C2.1097 30.1487 -0.1951 30.2317 -2.5 30.3125 C-2.5 34.9325 -2.5 39.5525 -2.5 44.3125 C-5.091 45.608 -6.6942 45.2765 -9.5625 45 C-10.461 44.9214 -11.3595 44.8427 -12.2852 44.7617 C-13.0161 44.6135 -13.747 44.4652 -14.5 44.3125 C-14.83 43.6525 -15.16 42.9925 -15.5 42.3125 C-15.17 41.6525 -14.84 40.9925 -14.5 40.3125 C-14.4252 37.4071 -14.4088 34.5258 -14.4375 31.6211 C-14.4413 30.7606 -14.4451 29.9002 -14.449 29.0137 C-14.4612 26.2591 -14.4799 23.5046 -14.5 20.75 C-14.5265 17.1237 -14.5465 13.4975 -14.5625 9.8711 C-14.5708 9.0295 -14.5791 8.1878 -14.5876 7.3207 C-14.5962 5.3177 -14.5534 3.3147 -14.5 1.3125 C-11.7659 -1.4216 -3.6742 0.0276 0 0 Z M-2.5 10.3125 C-2.5982 11.9768 -2.6297 13.6453 -2.625 15.3125 C-2.6276 16.22 -2.6302 17.1275 -2.6328 18.0625 C-2.5 20.3125 -2.5 20.3125 -1.5 21.3125 C0.6231 21.4119 2.7496 21.4422 4.875 21.4375 C6.0377 21.4401 7.2005 21.4427 8.3984 21.4453 C11.5 21.3125 11.5 21.3125 14.5 20.3125 C16.828 15.3239 16.828 15.3239 15.75 12 C14.5 10.3125 14.5 10.3125 12.5 9.3125 C10.1475 9.2155 7.792 9.1827 5.4375 9.1875 C4.1678 9.1849 2.898 9.1823 1.5898 9.1797 C-1.5 9.3125 -1.5 9.3125 -2.5 10.3125 Z " fill="#B48442" transform="translate(288.5,705.6875)"/>
<path d="M0 0 C1.6027 -0.1082 3.2075 -0.1857 4.8125 -0.25 C5.7058 -0.2964 6.5991 -0.3428 7.5195 -0.3906 C10 0 10 0 11.6367 1.5781 C12.9584 3.9261 14.0418 6.3001 15.0625 8.792 C17.1956 13.8159 19.6375 18.706 22 23.625 C22.5337 24.7439 23.0673 25.8628 23.6172 27.0156 C23.8763 27.5557 23.8763 27.5557 25.1875 30.2891 C25.6554 31.2657 26.1234 32.2423 26.6055 33.2485 C28 36 28 36 29.6758 38.6694 C31 41 31 41 31 44 C27.2557 45.8721 23.1911 45.2382 19.1875 44.4375 C17 43 17 43 15.6875 39.375 C15.4606 38.2613 15.2337 37.1475 15 36 C7.9609 35.0615 1.0973 34.8919 -6 35 C-6.2681 36.2787 -6.5362 37.5575 -6.8125 38.875 C-7.5719 42.4968 -7.7008 42.8005 -11 45 C-13.2617 44.9766 -13.2617 44.9766 -15.6875 44.625 C-16.4957 44.5141 -17.304 44.4033 -18.1367 44.2891 C-18.7516 44.1937 -19.3665 44.0983 -20 44 C-19.2581 40.3234 -17.7815 37.156 -16.1992 33.7656 C-15.9216 33.1688 -15.6439 32.5719 -15.3579 31.957 C-14.7703 30.6955 -14.181 29.4348 -13.5901 28.1748 C-12.6977 26.2718 -11.8103 24.3666 -10.9238 22.4609 C-8.0347 16.2626 -5.098 10.0968 -2 4 C-1.3325 2.6671 -0.6656 1.3338 0 0 Z M4 15 C3.3285 16.2891 2.6629 17.5814 2 18.875 C1.6287 19.5943 1.2575 20.3136 0.875 21.0547 C0 23 0 23 0 25 C6.625 26.125 6.625 26.125 10 25 C9.6711 21.3824 9.3733 19.4433 7 16.625 C5 15 5 15 4 15 Z " fill="#B48442" transform="translate(667,706)"/>
<path d="M0 0 C-1.2036 3.4256 -2.3589 5.5326 -5 8 C-5.261 7.8917 -5.261 7.8917 -6.582 7.3438 C-13.9331 4.563 -21.0331 3.6081 -28.5625 6.25 C-32.2995 8.933 -32.7331 10.9118 -33.8125 15.3125 C-34.0382 19.7512 -33.1533 22.1389 -31 26 C-27.5259 29.3621 -24.5043 29.8525 -19.8125 30.3125 C-15.5908 29.9665 -12.8392 28.781 -9.1133 26.875 C-7 26 -7 26 -3 26 C-0.2653 28.2659 0.8672 29.6015 2 33 C-5.1335 39.6579 -13.2348 41.6997 -22.8086 41.3945 C-29.2399 40.5995 -35.0735 38.2562 -40 34 C-40 33.34 -40 32.68 -40 32 C-40.66 32 -41.32 32 -42 32 C-46.0038 23.7875 -48.1358 17.4602 -45.1445 8.5 C-42.6644 3.0827 -38.9351 -0.7758 -33.9375 -3.9375 C-22.4568 -8.0901 -10.1189 -6.8547 0 0 Z " fill="#A8783A" transform="translate(184,711)"/>
<path d="M0 0 C3.63 0 7.26 0 11 0 C15.55 8.9911 19.9691 18.0212 24.1892 27.1721 C25.937 30.9114 27.7759 34.4262 30.0625 37.875 C30.7019 38.9062 31.3413 39.9375 32 41 C31.67 41.99 31.34 42.98 31 44 C29.5857 44.2236 28.1683 44.4283 26.75 44.625 C25.9611 44.741 25.1722 44.857 24.3594 44.9766 C21.5995 45.004 20.2536 44.5815 18 43 C16.75 39.375 16.75 39.375 16 36 C11.5621 34.8883 7.2304 34.8847 2.6875 34.9375 C1.9469 34.942 1.2064 34.9465 0.4434 34.9512 C-1.3711 34.9629 -3.1856 34.9808 -5 35 C-5.1934 35.6381 -5.3867 36.2762 -5.5859 36.9336 C-5.8463 37.7599 -6.1067 38.5862 -6.375 39.4375 C-6.6302 40.2612 -6.8855 41.0849 -7.1484 41.9336 C-8 44 -8 44 -10 45 C-11.5461 44.9135 -13.0891 44.76 -14.625 44.5625 C-15.4423 44.4607 -16.2595 44.3588 -17.1016 44.2539 C-17.728 44.1701 -18.3545 44.0863 -19 44 C-19 39.1737 -17.23 36.3283 -14.9375 32.25 C-10.4418 24.026 -6.6304 15.6339 -3 7 C-2.003 4.6654 -1.0015 2.3327 0 0 Z M4 15 C0.9231 21.4 0.9231 21.4 1.3125 24.4375 C1.5394 24.9531 1.7663 25.4688 2 26 C4.64 26 7.28 26 10 26 C11 24 11 24 10.582 22.0898 C10.3281 21.3796 10.0741 20.6693 9.8125 19.9375 C9.5714 19.2246 9.3304 18.5118 9.082 17.7773 C8 16 8 16 5.8867 15.2539 C5.2641 15.1701 4.6415 15.0863 4 15 Z " fill="#B48442" transform="translate(222,706)"/>
<path d="M0 0 C3.3 0 6.6 0 10 0 C12.1274 3.4399 13.9814 6.9133 15.707 10.5703 C15.9594 11.1014 15.9594 11.1014 17.2363 13.7891 C18.2759 15.9893 19.315 18.1898 20.3535 20.3906 C23.3276 26.6478 26.4466 32.7486 29.905 38.7534 C31 41 31 41 31 44 C22.5714 45.2857 22.5714 45.2857 18 44 C17.34 41.03 16.68 38.06 16 35 C13.6249 34.9728 11.2502 34.9531 8.875 34.9375 C8.2098 34.9291 7.5447 34.9207 6.8594 34.9121 C-1.1674 34.8728 -1.1674 34.8728 -5 36 C-6.4609 38.0664 -6.4609 38.0664 -7.375 40.5625 C-7.6921 41.3888 -8.0092 42.2151 -8.3359 43.0664 C-8.5551 43.7045 -8.7742 44.3426 -9 45 C-13.6118 45.1809 -16.7904 44.8467 -21 43 C-20.1873 41.3746 -19.3746 39.7492 -18.5618 38.1238 C-17.8452 36.6905 -17.1289 35.257 -16.4128 33.8235 C-14.5691 30.1331 -12.7216 26.4448 -10.8633 22.7617 C-7.075 15.2422 -3.4208 7.6967 0 0 Z M4 15 C3.3003 16.2642 2.6157 17.5367 1.9375 18.8125 C1.5546 19.5202 1.1718 20.2279 0.7773 20.957 C0 23 0 23 1 26 C3.64 26 6.28 26 9 26 C10.2822 22.9693 9.9859 21.964 8.75 18.8125 C7 16 7 16 4 15 Z " fill="#B48442" transform="translate(447,706)"/>
<path d="M0 0 C1.7297 0.0002 3.4595 0.0059 5.1892 0.0159 C6.0978 0.0173 7.0065 0.0187 7.9426 0.0202 C10.8569 0.0258 13.7711 0.0383 16.6853 0.051 C18.656 0.056 20.6267 0.0606 22.5974 0.0647 C27.4392 0.0757 32.281 0.093 37.1228 0.1135 C38.3728 6.6135 38.3728 6.6135 36.1228 11.1135 C33.8128 10.9485 33.8128 10.9485 22.1228 10.1135 C22.0958 14.4677 22.0759 18.8218 22.0603 23.176 C22.0519 24.4051 22.0435 25.6343 22.0349 26.9006 C22.0192 32.7414 22.0381 38.3655 23.1228 44.1135 C19.4215 46.581 17.5006 46.4207 13.1228 46.1135 C10.9001 45.0979 10.9001 45.0979 9.1228 44.1135 C9.1583 43.327 9.1939 42.5405 9.2305 41.7302 C9.3886 38.1499 9.537 34.5693 9.6853 30.9885 C9.7414 29.751 9.7975 28.5135 9.8552 27.2385 C9.8794 26.6391 9.8794 26.6391 10.0017 23.6057 C10.0488 22.506 10.096 21.4062 10.1445 20.2732 C10.1228 17.1094 9.7294 14.2139 9.1228 11.1135 C8.6594 11.1193 8.6594 11.1193 6.3142 11.1487 C5.1167 11.1577 3.9191 11.1667 2.6853 11.176 C1.4903 11.1876 0.2954 11.1992 -0.9358 11.2112 C-3.8772 11.1135 -3.8772 11.1135 -4.8772 10.1135 C-4.9751 8.6161 -5.0069 7.1141 -5.0022 5.6135 C-5.0048 4.7988 -5.0074 3.9842 -5.01 3.1448 C-4.7684 -0.551 -3.8973 0.1141 0 0 Z " fill="#B68644" transform="translate(375.877197265625,704.886474609375)"/>
<path d="M0 0 C0.4333 0.001 0.4333 0.001 2.6262 0.0061 C3.5103 0.0052 4.3943 0.0042 5.3052 0.0032 C7.1781 0.0026 9.0511 0.0044 10.9241 0.0086 C13.8014 0.0139 16.6786 0.0086 19.5559 0.0022 C21.371 0.0029 23.1861 0.0042 25.0012 0.0061 C25.8679 0.0041 26.7345 0.0021 27.6274 0 C33.6988 0.024 33.6988 0.024 34.8137 1.1389 C34.8855 2.6582 34.8976 4.1806 34.8762 5.7014 C34.8672 6.5277 34.8582 7.354 34.8489 8.2054 C34.8373 8.8434 34.8257 9.4815 34.8137 10.1389 C30.8137 11.1389 30.8137 11.1389 20.8137 11.1389 C20.8137 22.0289 20.8137 32.9189 20.8137 44.1389 C15.1497 46.4046 13.5358 46.2834 7.8137 45.1389 C7.4837 44.4789 7.1537 43.8189 6.8137 43.1389 C7.1437 42.1489 7.4737 41.1589 7.8137 40.1389 C7.8971 38.001 7.9211 35.8605 7.9114 33.721 C7.9082 32.4674 7.9049 31.2138 7.9016 29.9221 C7.8932 28.6118 7.8849 27.3015 7.8762 25.9514 C7.8712 24.6162 7.8666 23.2809 7.8625 21.9456 C7.8507 18.6767 7.8343 15.4078 7.8137 12.1389 C5.0579 10.761 2.8204 11.0804 -0.2488 11.1389 C-2.2276 11.1766 -4.2077 11.1856 -6.1863 11.1389 C-7.1863 10.1389 -7.1863 10.1389 -7.3191 8.1077 C-7.3165 7.293 -7.3139 6.4783 -7.3113 5.6389 C-7.3139 4.8243 -7.3164 4.0096 -7.3191 3.1702 C-7.0295 -1.2589 -3.6742 0.0145 0 0 Z " fill="#B58543" transform="translate(786.186279296875,704.8610534667969)"/>
<path d="M0 0 C0.5047 0.0058 0.5047 0.0058 3.0586 0.0352 C4.0705 0.0442 5.0824 0.0532 6.125 0.0625 C6.5162 0.0683 6.5162 0.0683 8.4961 0.0977 C9.4499 4.1009 9.6119 7.8198 9.5938 11.9297 C9.5905 13.222 9.5873 14.5143 9.584 15.8457 C9.5756 17.2005 9.5672 18.5553 9.5586 19.9102 C9.5536 21.2845 9.549 22.6589 9.5449 24.0332 C9.5332 27.3881 9.5167 30.7428 9.4961 34.0977 C13.4863 35.2075 17.3175 35.2452 21.4336 35.2227 C22.1368 35.2265 22.84 35.2304 23.5645 35.2344 C27.3509 35.2273 30.8 34.8691 34.4961 34.0977 C36.3949 35.9965 35.6198 38.6701 35.6289 41.1875 C35.4961 43.0977 35.4961 43.0977 34.4961 45.0977 C29.888 45.1472 25.28 45.1835 20.6716 45.2075 C19.1052 45.2176 17.5388 45.2312 15.9724 45.2485 C13.7159 45.2729 11.4597 45.2842 9.2031 45.293 C8.5071 45.3033 7.8111 45.3136 7.0939 45.3242 C3.1102 45.3252 0.0832 44.8532 -3.5039 43.0977 C-3.3416 42.5805 -3.1794 42.0633 -3.0122 41.5305 C-2.3528 38.3744 -2.374 35.3966 -2.3711 32.1719 C-2.3701 31.5061 -2.3692 30.8402 -2.3682 30.1543 C-2.3675 28.7481 -2.3693 27.3419 -2.3735 25.9358 C-2.3789 23.8028 -2.3736 21.6701 -2.3672 19.5371 C-2.3678 18.1654 -2.3691 16.7936 -2.3711 15.4219 C-2.3722 14.1853 -2.3733 12.9486 -2.3745 11.6746 C-2.5039 8.0977 -2.5039 8.0977 -3.0747 4.2024 C-3.1455 3.6901 -3.1455 3.6901 -3.5039 1.0977 C-2.5039 0.0977 -2.5039 0.0977 0 0 Z " fill="#B48442" transform="translate(501.50390625,705.90234375)"/>
<path d="M0 0 C0 3.3 0 6.6 0 10 C-8.58 10 -17.16 10 -26 10 C-26.33 12.31 -26.66 14.62 -27 17 C-23.7 16.835 -23.7 16.835 -7 16 C-6 25 -6 25 -7 27 C-13.6 27 -20.2 27 -27 27 C-27 29.64 -27 32.28 -27 35 C-17.76 35 -8.52 35 1 35 C1 37.97 1 40.94 1 44 C-0.779 45.779 -3.1565 45.1284 -5.5251 45.1389 C-6.298 45.1369 -7.0709 45.1349 -7.8672 45.1328 C-8.6577 45.1338 -9.4482 45.1347 -10.2627 45.1357 C-11.939 45.1364 -13.6152 45.1345 -15.2915 45.1304 C-17.8572 45.125 -20.4226 45.1303 -22.9883 45.1367 C-24.6146 45.1361 -26.2409 45.1348 -27.8672 45.1328 C-28.636 45.1348 -29.4049 45.1369 -30.197 45.1389 C-33.3957 45.1249 -35.9431 45.019 -39 44 C-39 29.48 -39 14.96 -39 0 C-33.4931 -0.1856 -27.9863 -0.3713 -22.3125 -0.5625 C-21.4477 -0.5932 -21.4477 -0.5932 -17.0715 -0.7483 C-15.6896 -0.7923 -14.3077 -0.8359 -12.9258 -0.8789 C-12.2172 -0.9056 -11.5087 -0.9323 -10.7787 -0.9598 C-7.0297 -1.0709 -3.6425 -0.9223 0 0 Z M-10.5352 1.2188 C-11.2025 1.2384 -11.8699 1.2581 -12.5575 1.2783 C-15.0592 1.3521 -17.5608 1.426 -20.0625 1.5 C-25.6519 1.665 -31.2413 1.83 -37 2 C-37 15.53 -37 29.06 -37 43 C-25.12 43 -13.24 43 -1 43 C-1 41.02 -1 39.04 -1 37 C-9.91 37 -18.82 37 -28 37 C-28.33 32.71 -28.66 28.42 -29 24 C-22.07 24.33 -15.14 24.66 -8 25 C-8 22.69 -8 20.38 -8 18 C-8.5943 18.0722 -9.1885 18.1444 -9.8008 18.2188 C-16.2381 18.9396 -22.5231 19.083 -29 19 C-29 15.04 -29 11.08 -29 7 C-24.545 7.165 -24.545 7.165 -2 8 C-2 5.69 -2 3.38 -2 1 C-4.8445 1 -7.6918 1.1345 -10.5352 1.2188 Z " fill="#C89850" transform="translate(953,706)"/>
<path d="M0 0 C2.6875 2 2.6875 2 5 5 C6.0764 6.2352 7.1604 7.4639 8.25 8.6875 C8.8378 9.3643 9.4256 10.041 10.0312 10.7383 C12.2576 13.2959 14.4972 15.8406 16.75 18.375 C17.1187 18.7914 17.1187 18.7914 18.9844 20.8984 C21 23 21 23 24 25 C23.9948 24.2782 23.9895 23.5564 23.9841 22.8127 C23.9634 19.5627 23.9504 16.3126 23.9375 13.0625 C23.9291 11.9262 23.9207 10.7899 23.9121 9.6191 C23.9089 8.5396 23.9057 7.46 23.9023 6.3477 C23.8971 5.3474 23.8919 4.3472 23.8865 3.3167 C24 1 24 1 25 0 C26.6861 -0.0721 28.375 -0.0839 30.0625 -0.0625 C30.9816 -0.0535 31.9007 -0.0445 32.8477 -0.0352 C33.5579 -0.0236 34.2682 -0.012 35 0 C35.8023 2.8029 36.1046 5.2157 36.0217 8.126 C36.0016 8.9265 35.9815 9.727 35.9608 10.5518 C35.9473 10.979 35.9473 10.979 35.8789 13.1406 C35.8671 13.5817 35.8671 13.5817 35.8074 15.8139 C35.7309 18.6261 35.6468 21.438 35.5625 24.25 C35.5093 26.1588 35.4565 28.0677 35.4043 29.9766 C35.2753 34.6512 35.1395 39.3256 35 44 C28.3257 45.1362 28.3257 45.1362 25.3945 43.9102 C22.5333 41.6277 20.1344 39.1599 17.6875 36.4375 C16.8045 35.4668 15.9215 34.4962 15.0117 33.4961 C13 31 13 31 13 29 C12.4045 28.7435 11.8089 28.487 11.1953 28.2227 C8.803 26.8903 7.5727 25.5663 5.875 23.4375 C3.1944 20.0972 3.1944 20.0972 1 19 C1 27.25 1 35.5 1 44 C-8 45.125 -8 45.125 -12 43 C-11.67 42.01 -11.34 41.02 -11 40 C-10.8995 37.5504 -10.8592 35.1367 -10.875 32.6875 C-10.876 32.3234 -10.876 32.3234 -10.8809 30.4807 C-10.9547 20.6448 -11.4848 10.8209 -12 1 C-8.2725 -0.8638 -4.0597 -0.5542 0 0 Z M-10 2 C-9.67 2.99 -9.34 3.98 -9 5 C-8.9147 7.8769 -8.8841 10.729 -8.9023 13.6055 C-8.9038 14.4447 -8.9052 15.2839 -8.9066 16.1485 C-8.9122 18.8282 -8.9248 21.5078 -8.9375 24.1875 C-8.9425 26.0046 -8.9471 27.8216 -8.9512 29.6387 C-8.9622 34.0925 -8.9795 38.5462 -9 43 C-7.0005 43.0425 -4.9996 43.0408 -3 43 C-2 42 -2 42 -1.8865 39.2244 C-1.8891 38.6195 -1.8891 38.6195 -1.9023 35.5586 C-1.9056 34.2534 -1.9088 32.9482 -1.9121 31.6035 C-1.9205 30.2148 -1.9289 28.8262 -1.9375 27.4375 C-1.9425 26.0449 -1.9471 24.6523 -1.9512 23.2598 C-1.963 19.8398 -1.9795 16.4199 -2 13 C2.7691 17.0653 7.2856 21.1729 11.5 25.8125 C11.9614 26.3195 12.4228 26.8265 12.8982 27.3489 C16.6049 31.4624 20.0707 35.7429 23.4414 40.1367 C25 42 25 42 27 43 C28.98 43 30.96 43 33 43 C33 29.47 33 15.94 33 2 C30.36 2 27.72 2 25 2 C25.1384 6.2919 25.287 10.5835 25.4375 14.875 C25.4768 16.0983 25.5161 17.3216 25.5566 18.582 C25.5985 19.7486 25.6404 20.9152 25.6836 22.1172 C25.7019 22.6566 25.7019 22.6566 25.7947 25.3862 C26 28 26 28 27 30 C26.01 30 25.02 30 24 30 C22.0547 27.9102 22.0547 27.9102 19.875 25.0625 C16.1988 20.4 12.3356 16.2449 8.0469 12.1484 C6.0298 10.0313 4.6067 7.9099 3.0625 5.4375 C1.2471 2.8404 0.5673 2.1087 -2.5898 1.5039 C-5.1115 1.5004 -7.5053 1.645 -10 2 Z " fill="#C89850" transform="translate(853,706)"/>
<path d="M0 0 C1.7909 -0.0809 3.5829 -0.1391 5.375 -0.1875 C5.8739 -0.2049 5.8739 -0.2049 8.3984 -0.293 C9.257 -0.1963 10.1155 -0.0996 11 0 C13.0297 3.0445 13.2486 3.6028 13.2271 7.0125 C13.227 7.4128 13.227 7.4128 13.2266 9.4385 C13.2163 10.298 13.2059 11.1575 13.1953 12.043 C13.1925 12.9266 13.1897 13.8102 13.1867 14.7205 C13.1755 17.543 13.1504 20.3651 13.125 23.1875 C13.115 25.1009 13.1058 27.0143 13.0977 28.9277 C13.0756 33.6186 13.0411 38.3093 13 43 C7.9446 45.1338 5.3592 45.0718 0 44 C-0.33 43.34 -0.66 42.68 -1 42 C-0.67 41.01 -0.34 40.02 0 39 C0.0967 36.4489 0.14 33.926 0.1328 31.375 C0.1338 30.6317 0.1347 29.8884 0.1357 29.1226 C0.1364 27.5524 0.1346 25.9823 0.1304 24.4121 C0.125 22.0091 0.1303 19.6062 0.1367 17.2031 C0.1361 15.6771 0.1348 14.151 0.1328 12.625 C0.1348 11.9062 0.1369 11.1874 0.1389 10.4468 C0.1244 7.3561 -0.0147 4.9558 -1 2 C-0.67 1.34 -0.34 0.68 0 0 Z " fill="#B58543" transform="translate(337,706)"/>
<path d="M0 0 C0.4744 0.4538 0.9488 0.9075 1.4375 1.375 C0.625 4.8125 0.625 4.8125 -0.5625 8.375 C-4.0803 9.5476 -4.8175 9.116 -8.1875 7.875 C-13.4278 6.1719 -17.1725 6.4187 -22.5625 7.375 C-22.8925 8.695 -23.2225 10.015 -23.5625 11.375 C-20.1768 13.3719 -17.1938 13.769 -13.3125 14.1875 C-7.5564 15.0098 -2.853 16.2985 1.4375 20.375 C3.8196 24.2224 3.977 27.9525 3.4375 32.375 C1.4901 37.6086 -2.7793 39.9359 -7.5625 42.375 C-9.9375 43.1875 -9.9375 43.1875 -12.5625 43.375 C-13.2341 43.4485 -13.9057 43.522 -14.5977 43.5977 C-22.5811 44.1039 -29.2795 41.3134 -36.5625 38.375 C-35.9471 31.8519 -35.9471 31.8519 -34 29.4375 C-33.7628 29.2622 -33.7628 29.2622 -32.5625 28.375 C-31.49 29.035 -30.4175 29.695 -29.3125 30.375 C-23.9371 33.0819 -18.4618 33.0998 -12.5625 32.375 C-10.2031 31.3516 -10.2031 31.3516 -8.5625 30.375 C-9.1172 28.4648 -9.1172 28.4648 -10.5625 26.375 C-13.7578 25.5039 -13.7578 25.5039 -17.6875 24.9375 C-25.1905 23.6787 -30.5094 21.7982 -35.625 16.0625 C-37.3001 11.2604 -36.3412 7.127 -34.3125 2.5625 C-26.9843 -6.5977 -9.2696 -5.8783 0 0 Z M-31.9375 2.5 C-34.0047 6.1573 -34.7329 9.1823 -34.5625 13.375 C-33.6043 16.6181 -32.4944 17.8547 -29.5547 19.4961 C-23.8837 21.9851 -18.2515 23.1005 -12.1289 23.8828 C-9.5625 24.375 -9.5625 24.375 -6.5625 26.375 C-6.375 30 -6.375 30 -6.5625 33.375 C-12.7345 35.4323 -21.1036 35.4938 -27.3281 33.4805 C-29.5 32.375 -29.5 32.375 -32.5625 30.375 C-33.5525 32.355 -34.5425 34.335 -35.5625 36.375 C-26.4558 40.726 -17.8675 43.0718 -7.875 40.25 C-3.2081 38.514 -1.0877 36.6923 1.4375 32.375 C2.3484 28.227 1.928 25.1808 -0.3125 21.5 C-5.2942 16.7951 -11.0083 16.5067 -17.5391 15.5195 C-23.3574 14.5801 -23.3574 14.5801 -25.5625 12.375 C-25.6875 9.75 -25.6875 9.75 -25.5625 7.375 C-20.6395 4.0487 -16.8655 4.1597 -11.1992 4.8477 C-7.8464 5.5182 -5.4542 6.5775 -2.5625 8.375 C-1.1019 5.7276 -0.5625 4.4805 -0.5625 1.375 C-9.8079 -2.0075 -23.8733 -4.7154 -31.9375 2.5 Z " fill="#C89850" transform="translate(1076.5625,708.625)"/>
<path d="M0 0 C-1.2036 3.4256 -2.3589 5.5326 -5 8 C-5.261 7.8917 -5.261 7.8917 -6.582 7.3438 C-13.9331 4.563 -21.0331 3.6081 -28.5625 6.25 C-32.2995 8.933 -32.7331 10.9118 -33.8125 15.3125 C-34.0382 19.7512 -33.1533 22.1389 -31 26 C-27.5259 29.3621 -24.5043 29.8525 -19.8125 30.3125 C-15.5908 29.9665 -12.8392 28.781 -9.1133 26.875 C-7 26 -7 26 -3 26 C-0.2653 28.2659 0.8672 29.6015 2 33 C-5.1335 39.6579 -13.2348 41.6997 -22.8086 41.3945 C-29.2399 40.5995 -35.0735 38.2562 -40 34 C-40 33.34 -40 32.68 -40 32 C-40.66 32 -41.32 32 -42 32 C-46.0038 23.7875 -48.1358 17.4602 -45.1445 8.5 C-42.6644 3.0827 -38.9351 -0.7758 -33.9375 -3.9375 C-22.4568 -8.0901 -10.1189 -6.8547 0 0 Z M-40.25 4.4375 C-44.3116 10.3849 -44.7901 15.9582 -44 23 C-42.264 28.849 -39.1064 32.6278 -34 36 C-26.663 39.5539 -18.8328 40.3231 -10.9609 38.168 C-6.9697 36.7621 -3.5298 35.3532 0 33 C-1.0487 30.3781 -1.6493 29.2063 -4.125 27.75 C-4.7438 27.5025 -5.3625 27.255 -6 27 C-6.9075 27.6394 -7.815 28.2787 -8.75 28.9375 C-13.6756 32.0634 -18.1661 32.7701 -24 32 C-28.5433 30.437 -32.7777 28.4447 -35 24 C-36.577 18.7839 -35.7906 14.0542 -34 9 C-31.459 5.5828 -28.9796 4.3455 -25 3 C-17.6821 2.2228 -11.664 2.9243 -5 6 C-4.01 4.35 -3.02 2.7 -2 1 C-14.6245 -5.889 -29.8223 -6.8592 -40.25 4.4375 Z " fill="#C89850" transform="translate(184,711)"/>
<path d="M0 0 C1.1911 0.0412 2.3822 0.0825 3.6094 0.125 C9.8641 0.4417 14.5133 0.7457 20 4 C23.9393 8.3651 25.2981 10.9585 25.2227 16.9062 C24.7901 20.9737 22.8474 24.0013 20.25 27.0625 C19 29 19 29 19.1992 31.3203 C20.1351 34.452 21.4952 36.2942 23.5625 38.8125 C24.2032 39.6027 24.8438 40.3929 25.5039 41.207 C25.7508 41.5029 25.7508 41.5029 27 43 C26.835 43.33 26.835 43.33 26 45 C23.3556 45.8815 21.7194 46.1617 19 46.1875 C18.6597 46.1946 18.6597 46.1946 16.9375 46.2305 C15 46 15 46 12 44 C10.9815 42.0093 9.9848 40.0075 9 38 C7.607 35.3368 6.276 32.9929 4 31 C1.0973 30.3903 -1.0015 30.6442 -4 31 C-5.9838 34.9677 -5.3263 39.8553 -4 44 C-7.6414 46.3305 -10.7525 46.3089 -15 46 C-15.99 45.34 -16.98 44.68 -18 44 C-18.3608 42.165 -18.3608 42.165 -18.3406 39.9175 C-18.3403 39.0768 -18.3401 38.236 -18.3399 37.3698 C-18.3244 36.4615 -18.3089 35.5531 -18.293 34.6172 C-18.2887 33.6878 -18.2845 32.7584 -18.2801 31.8008 C-18.2633 28.8252 -18.2256 25.8504 -18.1875 22.875 C-18.1725 20.8607 -18.1588 18.8464 -18.1465 16.832 C-18.1134 11.8878 -18.0616 6.944 -18 2 C-11.652 0.1255 -6.5657 -0.2639 0 0 Z M-16 3 C-15.8376 4.1782 -15.6752 5.3564 -15.5078 6.5703 C-14.7589 13.3261 -14.8547 20.086 -14.875 26.875 C-14.8711 28.1924 -14.8673 29.5098 -14.8633 30.8672 C-14.8646 32.1253 -14.8659 33.3834 -14.8672 34.6797 C-14.8683 35.8216 -14.8694 36.9636 -14.8706 38.1401 C-15 41 -15 41 -16 44 C-13.03 44 -10.06 44 -7 44 C-7 39.05 -7 34.1 -7 29 C3.1544 28.3883 3.1544 28.3883 6.9375 31.125 C7.2778 31.5994 7.2778 31.5994 9 34 C9.7425 35.0106 10.485 36.0213 11.25 37.0625 C13 40 13 40 14 44 C17.3 44 20.6 44 24 44 C23.7589 43.632 23.7589 43.632 22.5391 41.7695 C21.9074 40.7937 21.2758 39.8179 20.625 38.8125 C19.9985 37.8496 19.372 36.8866 18.7266 35.8945 C17.1801 33.302 16.0249 30.8315 15 28 C15.7631 27.6287 16.5263 27.2575 17.3125 26.875 C20.6419 24.5522 21.6123 22.7979 23 19 C23.5553 13.8171 23.0257 10.2946 20 6 C13.2182 1.8106 5.7863 2.664 -1.9375 2.8125 C-3.3027 2.8276 -4.668 2.8413 -6.0332 2.8535 C-9.3559 2.8887 -12.6777 2.938 -16 3 Z " fill="#C89850" transform="translate(994,705)"/>
</svg>
