<?xml version="1.0" encoding="UTF-8"?>
<!-- Generator: visioncortex VTracer 0.6.12 -->
<svg version="1.1" xmlns="http://www.w3.org/2000/svg" width="992" height="1025">
<path d="M0 0 C3.8127 0.0026 7.6254 0.0002 11.4381 -0.0014 C17.8469 -0.0032 24.2557 -0.0008 30.6645 0.004 C37.9897 0.0094 45.3149 0.0076 52.6401 0.0021 C59.0027 -0.0025 65.3652 -0.003 71.7278 -0.0004 C75.495 0.0011 79.2621 0.0014 83.0293 -0.002 C102.26 -0.0169 121.4427 0.323 140.6579 1.1343 C141.6603 1.1766 142.6626 1.2188 143.6953 1.2624 C149.4758 1.5092 155.2546 1.7801 161.0329 2.0718 C161.8788 2.1138 162.7247 2.1558 163.5962 2.199 C174.3402 2.736 185.0458 3.4172 195.7548 4.4544 C202.573 5.0969 209.3768 5.4041 216.2204 5.6343 C226.8276 5.9953 237.3322 6.8174 247.8913 7.8638 C252.7276 8.3367 257.5673 8.7699 262.4079 9.1968 C263.3729 9.2825 264.3378 9.3683 265.332 9.4566 C271.1267 9.9576 276.9105 10.3145 282.7204 10.5718 C293.1202 11.055 303.3668 12.6219 313.6579 14.1343 C323.6928 15.5936 333.6966 16.6328 343.8042 17.4373 C344.7485 17.5139 345.6928 17.5905 346.6657 17.6695 C347.0867 17.7024 347.0867 17.7024 349.217 17.8689 C351.7407 18.1433 354.1717 18.628 356.6579 19.1343 C360.0352 19.3941 363.4123 19.5754 366.7946 19.7554 C370.5972 20.1284 374.2047 20.7976 377.9384 21.5794 C382.823 22.5761 387.7412 23.3763 392.6579 24.1968 C393.6737 24.3702 394.6895 24.5436 395.736 24.7222 C401.3831 25.667 406.9886 26.4294 412.697 26.886 C414.6579 27.1343 414.6579 27.1343 416.6579 28.1343 C418.3295 28.3894 420.0083 28.5981 421.6892 28.7828 C422.7194 28.8993 423.7496 29.0159 424.811 29.136 C425.9155 29.2592 427.02 29.3824 428.1579 29.5093 C436.0671 30.4358 443.9735 31.3645 451.8454 32.5718 C452.5557 32.6696 453.266 32.7674 453.9978 32.8682 C458.7706 33.6371 461.95 35.0395 465.6579 38.1343 C466.4043 41.1313 466.4043 41.1313 466.399 44.7161 C466.4062 45.3791 466.4134 46.0421 466.4209 46.7252 C466.4378 48.9573 466.4118 51.1868 466.3862 53.4188 C466.3895 55.0308 466.3955 56.6428 466.4039 58.2548 C466.4192 62.6925 466.3971 67.1293 466.369 71.5669 C466.3452 76.3496 466.3559 81.1322 466.3625 85.9149 C466.3699 95.2878 466.3455 104.6605 466.3109 114.0334 C466.2719 124.9436 466.266 135.8537 466.2619 146.764 C466.2536 166.2293 466.2178 185.6945 466.1655 205.1597 C466.1147 224.0559 466.0793 242.952 466.063 261.8482 C466.0619 263.0117 466.0609 264.1751 466.0599 265.3739 C466.0559 270.0502 466.0519 274.7266 466.048 279.403 C466.031 299.5692 466.0026 319.7353 465.9715 339.9015 C465.9665 343.1688 465.9617 346.4361 465.9569 349.7034 C465.9383 362.1109 465.9138 374.5184 465.8808 386.9259 C465.871 390.6903 465.8634 394.4547 465.8579 398.2191 C465.8514 402.5493 465.8404 406.8794 465.8255 411.2096 C465.821 412.7775 465.818 414.3455 465.8169 415.9134 C465.8151 418.0426 465.8072 420.1717 465.7977 422.3008 C465.7963 422.8925 465.7963 422.8925 465.789 425.8866 C465.6612 429.0534 465.2267 432.0205 464.6579 435.1343 C464.5629 436.9049 464.5046 438.6778 464.4821 440.4507 C464.1051 458.4042 461.7098 474.9903 456.4704 492.1617 C455.3794 496.1535 455.0067 500.0188 454.6579 504.1343 C454.3279 504.4643 453.9979 504.7943 453.6579 505.1343 C453.2125 507.2242 452.7672 509.314 452.322 511.4039 C451.1021 516.4197 449.3363 521.2572 447.6579 526.1343 C447.1989 527.5716 446.7405 529.0091 446.2829 530.4468 C441.4308 544.9248 435.3708 559.4455 427.2634 572.4 C424.7981 576.5987 422.6828 580.9648 420.5488 585.3392 C418.4096 589.7082 416.1104 593.9324 413.6579 598.1343 C412.9979 598.1343 412.3379 598.1343 411.6579 598.1343 C411.3846 598.8717 411.1114 599.609 410.8298 600.3687 C409.7275 602.9701 408.5059 605.0647 406.9079 607.3843 C406.3794 608.1578 405.8509 608.9312 405.3064 609.7281 C404.7624 610.5221 404.2184 611.3162 403.6579 612.1343 C402.1523 614.4188 400.6501 616.7055 399.1501 618.9937 C397.4261 621.4669 395.5411 623.7804 393.6579 626.1343 C391.5755 629.0457 389.5155 631.9716 387.4626 634.9039 C386.8671 635.6399 386.2715 636.376 385.6579 637.1343 C384.9979 637.1343 384.3379 637.1343 383.6579 637.1343 C383.4259 637.8498 383.1939 638.5652 382.9548 639.3023 C381.413 642.6692 379.4627 644.772 376.9079 647.4468 C373.3348 651.2719 370.0439 655.1132 366.9665 659.3414 C364.9788 662.0648 362.9147 664.6268 360.6579 667.1343 C359.9979 667.1343 359.3379 667.1343 358.6579 667.1343 C358.3898 667.7325 358.1217 668.3306 357.8454 668.9468 C356.6587 671.1328 355.5619 672.5477 353.6579 674.1343 C352.9979 674.1343 352.3379 674.1343 351.6579 674.1343 C351.431 674.6912 351.2042 675.2481 350.9704 675.8218 C349.2824 678.7959 347.1912 680.8544 344.6579 683.1343 C343.9979 683.1343 343.3379 683.1343 342.6579 683.1343 C342.6579 683.7943 342.6579 684.4543 342.6579 685.1343 C341.9979 685.1343 341.3379 685.1343 340.6579 685.1343 C340.4053 685.726 340.1526 686.3177 339.8923 686.9273 C338.5124 689.3945 337.0943 690.6714 334.9079 692.4468 C332.1911 694.737 329.7918 697.0164 327.5329 699.7593 C324.8479 703.0191 321.9412 705.4798 318.6579 708.1343 C317.8742 708.9181 317.0904 709.7018 316.2829 710.5093 C311.425 715.3673 306.1952 720.0628 300.6579 724.1343 C299.9979 724.1343 299.3379 724.1343 298.6579 724.1343 C298.6579 724.7943 298.6579 725.4543 298.6579 726.1343 C297.9979 726.1343 297.3379 726.1343 296.6579 726.1343 C296.6579 726.7943 296.6579 727.4543 296.6579 728.1343 C295.197 729.4234 295.197 729.4234 293.2829 730.7593 C292.9697 730.9823 292.9697 730.9823 291.3845 732.1109 C289.6579 733.1343 289.6579 733.1343 287.6579 733.1343 C287.6579 733.7943 287.6579 734.4543 287.6579 735.1343 C284.1964 738.1343 284.1964 738.1343 281.6579 738.1343 C281.6579 738.7943 281.6579 739.4543 281.6579 740.1343 C279.5407 741.8609 279.5407 741.8609 276.7829 743.7593 C275.878 744.391 274.9731 745.0226 274.0407 745.6734 C271.6579 747.1343 271.6579 747.1343 269.6579 747.1343 C269.6579 747.7943 269.6579 748.4543 269.6579 749.1343 C268.9979 749.1343 268.3379 749.1343 267.6579 749.1343 C267.6579 749.7943 267.6579 750.4543 267.6579 751.1343 C266.2321 752.4234 266.2321 752.4234 264.3454 753.7593 C264.038 753.9823 264.038 753.9823 262.4821 755.1109 C260.6579 756.1343 260.6579 756.1343 257.6579 756.1343 C257.4401 756.7183 257.2222 757.3022 256.9978 757.9039 C255.2221 760.8599 253.1487 762.0291 250.2204 763.8218 C249.2523 764.4238 248.2843 765.0258 247.2868 765.646 C244.6579 767.1343 244.6579 767.1343 241.6579 768.1343 C241.6579 768.7943 241.6579 769.4543 241.6579 770.1343 C236.877 774.1405 231.7899 777.682 225.6579 779.1343 C225.6579 779.7943 225.6579 780.4543 225.6579 781.1343 C224.2685 782.2159 224.2685 782.2159 222.3337 783.3765 C221.6344 783.8032 220.9351 784.2299 220.2146 784.6695 C219.474 785.1116 218.7334 785.5538 217.9704 786.0093 C213.2859 788.8309 208.9066 791.6741 204.6579 795.1343 C203.1196 796.091 201.5577 797.0112 199.9704 797.8843 C199.5869 798.0983 199.5869 798.0983 197.6462 799.1812 C195.6579 800.1343 195.6579 800.1343 193.6579 800.1343 C193.6579 800.7943 193.6579 801.4543 193.6579 802.1343 C192.8497 802.6048 192.0414 803.0753 191.2087 803.5601 C190.1401 804.1827 189.0714 804.8053 187.9704 805.4468 C186.9147 806.0617 185.8589 806.6766 184.7712 807.3101 C182.0559 808.9011 179.353 810.5094 176.6579 812.1343 C166.6145 818.1895 166.6145 818.1895 161.6306 821.0054 C158.9788 822.523 156.3524 824.0828 153.7204 825.6343 C149.7656 827.9471 145.8108 830.1552 141.6696 832.1148 C139.9595 832.9815 138.2879 833.9235 136.6267 834.8804 C131.6552 837.7419 126.5592 840.364 121.4704 843.0093 C120.9554 843.2777 120.9554 843.2777 118.3488 844.6355 C112.457 847.699 106.5465 850.7114 100.5915 853.65 C97.551 855.1884 94.5474 856.7861 91.5437 858.3948 C81.9115 863.5521 72.1781 868.3667 62.115 872.6382 C58.8376 874.0566 55.6564 875.5853 52.4704 877.1968 C51.4662 877.7034 50.4621 878.21 49.4275 878.732 C46.6579 880.1343 46.6579 880.1343 44.7946 881.3179 C39.9469 883.1702 35.8455 882.6429 31.2282 880.6656 C30.6598 880.3304 30.6598 880.3304 27.7829 878.6343 C21.3273 874.9487 14.747 871.8441 7.9123 868.9253 C3.2855 866.9303 -0.9945 864.6827 -5.3421 862.1343 C-8.516 860.4081 -11.7163 858.7311 -14.9124 857.0464 C-17.656 855.5931 -20.3514 854.1286 -23.0022 852.5093 C-25.3419 851.1344 -27.6178 850.1517 -30.1546 849.1968 C-34.7086 847.4285 -39.0063 845.3825 -43.3421 843.1343 C-43.3421 842.4743 -43.3421 841.8143 -43.3421 841.1343 C-44.0536 841.0183 -44.7652 840.9023 -45.4983 840.7828 C-48.5155 840.0948 -51.0368 839.0595 -53.8421 837.7593 C-54.7599 837.3391 -55.6777 836.9189 -56.6233 836.4859 C-59.2887 835.1608 -61.8127 833.7014 -64.3421 832.1343 C-64.3421 831.4743 -64.3421 830.8143 -64.3421 830.1343 C-65.0536 830.0273 -65.7652 829.9203 -66.4983 829.8101 C-73.6049 828.1213 -79.7238 823.629 -85.3421 819.1343 C-87.0177 818.1962 -88.7072 817.2825 -90.4046 816.3843 C-95.7109 813.5624 -100.6558 810.3552 -105.6155 806.9664 C-108.1469 805.2654 -110.724 803.6968 -113.3421 802.1343 C-115.5294 800.6851 -117.6976 799.2101 -119.8655 797.732 C-122.3564 796.1251 -124.9111 794.6654 -127.491 793.2073 C-130.5905 791.4106 -133.588 789.46 -136.5921 787.5093 C-137.2031 787.1149 -137.8141 786.7204 -138.4436 786.314 C-141.0884 784.6047 -143.7219 782.8811 -146.3421 781.1343 C-146.3421 780.4743 -146.3421 779.8143 -146.3421 779.1343 C-147.0291 778.901 -147.7162 778.6677 -148.4241 778.4273 C-151.9643 776.8586 -154.9313 774.7327 -158.0296 772.4468 C-159.2688 771.5453 -160.5084 770.6443 -161.7483 769.7437 C-162.3555 769.3009 -162.9626 768.8581 -163.5882 768.4019 C-166.8027 766.0787 -170.0804 763.8461 -173.3538 761.607 C-175.3421 760.1343 -175.3421 760.1343 -176.9241 758.5054 C-178.3421 757.1343 -178.3421 757.1343 -181.3421 756.1343 C-181.3421 755.4743 -181.3421 754.8143 -181.3421 754.1343 C-181.9273 754.0338 -182.5125 753.9332 -183.1155 753.8296 C-185.7482 753.0075 -186.9738 751.9009 -188.9671 750.0093 C-191.8631 747.3746 -194.7821 745.0704 -198.0296 742.8843 C-202.9602 739.5232 -207.4557 735.763 -211.9639 731.8658 C-214.3607 729.7955 -216.702 727.8944 -219.3421 726.1343 C-219.3421 725.4743 -219.3421 724.8143 -219.3421 724.1343 C-220.064 723.9075 -220.7858 723.6806 -221.5296 723.4468 C-224.9246 721.8625 -226.7252 719.8157 -229.3421 717.1343 C-231.3119 715.2891 -233.2878 713.4553 -235.2796 711.6343 C-235.7791 711.1741 -236.2786 710.7139 -236.7932 710.2398 C-239.3745 707.875 -241.9879 705.6039 -244.721 703.4156 C-245.1535 703.0392 -245.1535 703.0392 -247.3421 701.1343 C-247.3421 700.4743 -247.3421 699.8143 -247.3421 699.1343 C-248.0021 699.1343 -248.6621 699.1343 -249.3421 699.1343 C-249.3421 698.4743 -249.3421 697.8143 -249.3421 697.1343 C-250.0021 697.1343 -250.6621 697.1343 -251.3421 697.1343 C-253.0544 695.5146 -254.7137 693.8384 -256.3421 692.1343 C-257.2702 691.2475 -258.1983 690.3606 -259.1546 689.4468 C-261.3421 687.1343 -261.3421 687.1343 -261.3421 685.1343 C-262.0021 685.1343 -262.6621 685.1343 -263.3421 685.1343 C-263.3421 684.4743 -263.3421 683.8143 -263.3421 683.1343 C-263.9312 682.8842 -264.5203 682.6342 -265.1272 682.3765 C-267.6352 680.9699 -268.9663 679.4788 -270.7796 677.2593 C-272.6902 674.9275 -274.4597 673.0411 -276.8304 671.1617 C-279.3413 669.135 -281.1268 667.1209 -283.0921 664.5718 C-283.7753 663.6978 -284.4585 662.8239 -285.1624 661.9234 C-285.8817 661.003 -286.601 660.0826 -287.3421 659.1343 C-288.8781 657.2339 -290.4197 655.338 -291.9671 653.4468 C-292.7109 652.5367 -293.4547 651.6267 -294.221 650.689 C-296.0807 648.4492 -297.9794 646.2552 -299.9046 644.0718 C-302.3421 641.1343 -302.3421 641.1343 -302.3421 639.1343 C-303.0021 639.1343 -303.6621 639.1343 -304.3421 639.1343 C-304.3421 638.1443 -304.3421 637.1543 -304.3421 636.1343 C-305.0021 636.1343 -305.6621 636.1343 -306.3421 636.1343 C-306.3421 635.4743 -306.3421 634.8143 -306.3421 634.1343 C-307.0021 634.1343 -307.6621 634.1343 -308.3421 634.1343 C-309.9268 632.1976 -309.9268 632.1976 -311.7913 629.4898 C-312.4751 628.5017 -313.159 627.5137 -313.8636 626.4957 C-314.5783 625.4483 -315.2931 624.4009 -316.0296 623.3218 C-316.725 622.317 -317.4205 621.3122 -318.137 620.2769 C-322.6954 613.6586 -327.0727 606.9421 -331.3421 600.1343 C-332.015 599.067 -332.6879 597.9996 -333.3811 596.9 C-333.9045 596.0698 -334.4279 595.2396 -334.9671 594.3843 C-336.9102 591.3129 -338.8983 588.3433 -341.0921 585.4468 C-342.8018 583.1173 -343.8502 580.9936 -344.7796 578.2593 C-345.8424 575.1422 -347.1841 572.755 -349.0921 570.0718 C-352.6954 564.9089 -355.168 559.3524 -357.7444 553.6343 C-358.9281 551.0413 -360.1596 548.5647 -361.5296 546.0718 C-363.8504 541.5383 -364.9424 536.6256 -366.2718 531.732 C-367.5925 527.2925 -369.3389 523.1308 -371.1741 518.8843 C-373.817 512.6616 -375.4718 506.8477 -376.3421 500.1343 C-376.9964 497.7975 -377.6649 495.4646 -378.3421 493.1343 C-379.7304 487.8141 -381.0478 482.4782 -382.3421 477.1343 C-382.5625 476.2436 -382.7829 475.3528 -383.01 474.4351 C-384.3396 468.547 -384.724 462.6805 -385.001 456.6656 C-385.2479 451.4875 -385.2479 451.4875 -385.8229 449.3321 C-388.3739 438.5342 -387.4896 426.4344 -387.4825 415.3929 C-387.4851 413.757 -387.4881 412.121 -387.4915 410.485 C-387.4995 406.0325 -387.5014 401.5799 -387.5021 397.1274 C-387.504 392.3095 -387.5115 387.4917 -387.5183 382.6739 C-387.5318 372.1666 -387.5379 361.6594 -387.5423 351.1521 C-387.545 344.5909 -387.5493 338.0296 -387.5538 331.4683 C-387.5659 313.2936 -387.5763 295.1188 -387.5796 276.9441 C-387.5799 275.7837 -387.5801 274.6232 -387.5803 273.4276 C-387.5805 272.2644 -387.5807 271.1013 -387.581 269.9029 C-387.5814 267.5461 -387.5819 265.1894 -387.5823 262.8326 C-387.5824 262.2481 -387.5824 262.2481 -387.583 259.29 C-387.5869 240.3008 -387.6044 221.3116 -387.6277 202.3224 C-387.6514 182.8168 -387.6638 163.3112 -387.665 143.8055 C-387.6659 132.8571 -387.6717 121.9087 -387.6898 110.9602 C-387.7052 101.6505 -387.7104 92.3409 -387.7021 83.0312 C-387.6982 78.2794 -387.6992 73.5278 -387.7132 68.776 C-387.7258 64.4316 -387.7248 60.0874 -387.7126 55.7429 C-387.7106 54.1666 -387.7138 52.5903 -387.7224 51.014 C-387.7334 48.8806 -387.7261 46.7481 -387.714 44.6148 C-387.7146 43.4272 -387.7152 42.2396 -387.7158 41.016 C-387.3421 38.1343 -387.3421 38.1343 -385.967 36.284 C-378.3905 30.9236 -365.7146 31.0997 -356.7796 30.0093 C-354.1111 29.6774 -351.4433 29.3401 -348.7757 29.0015 C-347.6109 28.8583 -346.4462 28.715 -345.2461 28.5674 C-342.3421 28.1343 -342.3421 28.1343 -339.3421 27.1343 C-337.303 26.9564 -335.2605 26.8152 -333.2171 26.6968 C-327.7315 26.308 -322.6631 25.4574 -317.3421 24.1343 C-311.1298 22.7312 -305.0458 21.8285 -298.6897 21.3804 C-296.3421 21.1343 -296.3421 21.1343 -293.3421 20.1343 C-289.7614 19.8245 -286.18 19.6249 -282.5921 19.4156 C-279.3421 19.1343 -279.3421 19.1343 -276.3421 18.1343 C-274.893 17.9449 -273.4387 17.7942 -271.9827 17.6695 C-271.1222 17.5928 -270.2616 17.5161 -269.375 17.4371 C-268.9158 17.3974 -268.9158 17.3974 -266.5921 17.1968 C-259.1103 16.5208 -251.695 15.6856 -244.2561 14.6382 C-238.5311 13.9012 -232.7888 13.3599 -227.0411 12.8316 C-226.229 12.7549 -225.417 12.6782 -224.5804 12.5992 C-224.2196 12.5663 -224.2196 12.5663 -222.3941 12.3997 C-220.3421 12.1343 -220.3421 12.1343 -218.4689 11.6401 C-216.3652 11.1398 -214.417 10.917 -212.2615 10.7771 C-211.8627 10.7503 -211.8627 10.7503 -209.8444 10.6147 C-208.9851 10.5606 -208.1258 10.5065 -207.2405 10.4507 C-206.3398 10.3909 -205.4391 10.3311 -204.5111 10.2695 C-201.58 10.0754 -198.6485 9.8861 -195.7171 9.6968 C-191.6857 9.4318 -187.6545 9.1642 -183.6233 8.896 C-183.1289 8.8633 -183.1289 8.8633 -180.627 8.6975 C-173.1511 8.1984 -165.6844 7.6238 -158.2171 7.0093 C-148.3855 6.2075 -138.5589 5.7604 -128.699 5.4756 C-128.1883 5.4599 -128.1883 5.4599 -125.6038 5.3804 C-124.7062 5.3565 -123.8086 5.3326 -122.8838 5.3079 C-120.3421 5.1343 -120.3421 5.1343 -117.9497 4.6502 C-114.747 4.0166 -111.6173 3.8256 -108.3577 3.6343 C-107.6774 3.594 -106.997 3.5537 -106.2961 3.5122 C-104.0617 3.3819 -101.8269 3.2577 -99.5921 3.1343 C-99.2076 3.1125 -99.2076 3.1125 -97.2618 3.0023 C-84.4741 2.2813 -71.6879 1.7907 -58.8841 1.4761 C-52.5141 1.3155 -46.1892 1.0627 -39.8318 0.6272 C-26.5704 -0.1702 -13.2798 -0.0118 0 0 Z M-163.3421 200.1343 C-163.3421 202.1143 -163.3421 204.0943 -163.3421 206.1343 C-163.0121 206.1343 -162.6821 206.1343 -162.3421 206.1343 C-162.3421 204.1543 -162.3421 202.1743 -162.3421 200.1343 C-162.6721 200.1343 -163.0021 200.1343 -163.3421 200.1343 Z M-44.3421 221.1343 C-45.3421 224.1343 -45.3421 224.1343 -44.4046 226.3218 C-44.054 226.92 -43.7033 227.5181 -43.3421 228.1343 C-43.3421 225.8243 -43.3421 223.5143 -43.3421 221.1343 C-43.6721 221.1343 -44.0021 221.1343 -44.3421 221.1343 Z M-42.3421 228.1343 C-42.3421 229.7843 -42.3421 231.4343 -42.3421 233.1343 C-42.0121 233.1343 -41.6821 233.1343 -41.3421 233.1343 C-41.3421 231.4843 -41.3421 229.8343 -41.3421 228.1343 C-41.6721 228.1343 -42.0021 228.1343 -42.3421 228.1343 Z M-163.3421 238.1343 C-163.3421 241.4343 -163.3421 244.7343 -163.3421 248.1343 C-163.0121 248.1343 -162.6821 248.1343 -162.3421 248.1343 C-162.3421 244.8343 -162.3421 241.5343 -162.3421 238.1343 C-162.6721 238.1343 -163.0021 238.1343 -163.3421 238.1343 Z M-161.3421 249.1343 C-161.3421 251.1143 -161.3421 253.0943 -161.3421 255.1343 C-160.6821 255.1343 -160.0221 255.1343 -159.3421 255.1343 C-159.6721 253.1543 -160.0021 251.1743 -160.3421 249.1343 C-160.6721 249.1343 -161.0021 249.1343 -161.3421 249.1343 Z M-158.3421 260.1343 C-157.3421 264.1343 -157.3421 264.1343 -157.3421 264.1343 Z M-311.3421 275.1343 C-311.3421 277.1143 -311.3421 279.0943 -311.3421 281.1343 C-311.0121 281.2993 -311.0121 281.2993 -309.3421 282.1343 C-308.2171 277.3843 -308.2171 277.3843 -309.3421 275.1343 C-310.0021 275.1343 -310.6621 275.1343 -311.3421 275.1343 Z M-312.3421 463.1343 C-311.3421 465.1343 -311.3421 465.1343 -311.3421 465.1343 Z " fill="#0C2942" transform="translate(456.3420774936676,65.86567449569702)"/>
<path d="M0 0 C0.8087 0.0422 1.6173 0.0845 2.4505 0.128 C28.1142 1.502 53.7065 3.9579 78.9629 8.793 C83.0865 9.5545 87.2302 10.1788 91.375 10.8125 C94.3966 11.2867 97.4172 11.7675 100.4375 12.25 C100.7752 12.3032 100.7752 12.3032 102.4844 12.5723 C111.5936 14.0337 120.2123 16.2559 129.0088 18.9854 C134.1836 20.5897 139.3577 22.0457 144.625 23.3125 C150.2713 24.6855 155.8606 26.1799 161.4375 27.8125 C162.1197 28.0105 162.8018 28.2084 163.5046 28.4124 C168.2366 29.8152 172.8394 31.4591 177.4375 33.25 C178.1947 33.5441 178.9518 33.8383 179.7319 34.1414 C190.1061 38.1994 200.4614 42.2763 210.4375 47.25 C210.8436 47.4421 210.8436 47.4421 212.8984 48.4141 C216.6427 50.4011 218.725 52.0495 220.087 56.1327 C221.8538 61.9547 222.132 67.7665 222.4207 73.8142 C222.455 74.4297 222.455 74.4297 222.6289 77.5447 C222.8137 80.9081 222.9873 84.2717 223.1552 87.636 C223.3355 91.2082 223.5286 94.7797 223.7197 98.3513 C224.0403 104.3823 224.3504 110.4137 224.6545 116.4456 C224.9623 122.5484 225.281 128.6505 225.6116 134.7522 C228.7304 192.3748 228.7304 192.3748 228.832 219.2227 C228.8393 220.0902 228.8466 220.9577 228.8541 221.8515 C228.8694 224.2297 228.863 226.6065 228.8469 228.9846 C228.8416 230.2816 228.8362 231.5786 228.8306 232.9149 C228.4129 236.4583 227.5048 238.3814 225.4375 241.25 C221.8019 239.7894 220.2345 237.9723 218.0625 234.75 C217.7596 234.3008 217.7596 234.3008 216.2266 232.0273 C214.0612 228.6659 211.9941 225.2575 209.9648 221.8125 C207.7946 218.1714 205.5096 214.6076 203.2227 211.0391 C202.0356 209.1844 200.8558 207.325 199.6836 205.4609 C195.7778 199.2571 191.7036 193.2114 187.4375 187.25 C186.8097 186.3644 186.182 185.4788 185.5352 184.5664 C181.4746 178.8977 177.2011 173.4737 172.7578 168.1016 C170.2384 165.0053 167.7876 161.8673 165.375 158.6875 C164.6209 157.6962 163.8668 156.7049 163.0898 155.6836 C161.4375 153.25 161.4375 153.25 161.4375 151.25 C160.4475 150.92 159.4575 150.59 158.4375 150.25 C156.5703 148.1758 156.5703 148.1758 154.5625 145.5625 C153.8535 144.655 153.1445 143.7475 152.4141 142.8125 C151.7618 141.9669 151.1095 141.1213 150.4375 140.25 C147.1724 136.0224 143.5813 132.5373 139.5195 129.0859 C137.5035 127.3082 135.6662 125.445 133.8125 123.5 C129.7616 119.3774 125.3039 115.9202 120.7322 112.4053 C116.1463 108.863 111.8395 105.1021 107.6211 101.125 C105.3542 99.1785 102.9985 97.7775 100.4375 96.25 C99.4173 95.2706 98.416 94.271 97.4375 93.25 C89.9554 87.3159 81.5483 82.7579 73.2812 78.0352 C68.896 75.5272 64.5669 72.9357 60.25 70.3125 C55.4131 67.3823 50.5565 64.6589 45.4375 62.25 C44.7775 61.92 44.1175 61.59 43.4375 61.25 C35.2983 57.5808 27.1015 54.3122 18.6521 51.4309 C14.9684 50.1696 11.3907 48.8028 7.8125 47.2656 C1.46 44.7 -5.1102 43.4459 -11.8125 42.125 C-13.0332 41.8736 -14.254 41.6223 -15.5117 41.3633 C-28.9648 38.6442 -41.928 36.9113 -55.6384 36.9893 C-57.8627 36.9999 -60.0863 36.9893 -62.3105 36.9766 C-88.89 36.9524 -113.2023 42.4426 -136.5625 55.25 C-137.0356 55.5078 -137.0356 55.5078 -139.4297 56.8125 C-148.2006 61.8401 -155.8593 67.871 -162.1875 75.7812 C-162.6413 76.2659 -163.095 76.7506 -163.5625 77.25 C-164.2225 77.25 -164.8825 77.25 -165.5625 77.25 C-165.8255 77.9693 -166.0884 78.6886 -166.3594 79.4297 C-167.5965 82.3297 -169.0723 84.7491 -170.8125 87.375 C-178.0326 98.536 -183.5647 109.0279 -185.5625 122.25 C-185.7404 123.3393 -185.9183 124.4285 -186.1016 125.5508 C-187.4132 136.0775 -187.353 146.6809 -184.2188 156.8672 C-183.5625 159.25 -183.5625 159.25 -183.5625 163.25 C-183.2325 163.25 -182.9025 163.25 -182.5625 163.25 C-182.4594 164.1781 -182.3562 165.1062 -182.25 166.0625 C-181.4796 169.6343 -181.0128 169.8108 -178.5625 172.25 C-177.1085 174.4423 -175.699 176.6411 -174.3125 178.875 C-169.2819 186.8218 -163.9862 194.0803 -157.1875 200.6211 C-155.6387 202.1736 -154.2916 203.7777 -152.9375 205.5 C-150.6354 208.1656 -148.6708 209.6514 -145.5625 211.25 C-145.5625 211.91 -145.5625 212.57 -145.5625 213.25 C-144.9025 213.4356 -144.2425 213.6213 -143.5625 213.8125 C-140.0494 215.4959 -137.6662 217.6595 -134.793 220.2578 C-128.5957 225.7931 -121.9894 230.7533 -115.1445 235.4531 C-111.4346 238.0349 -107.8214 240.7448 -104.2031 243.4531 C-101.4272 245.3421 -98.5729 246.772 -95.5625 248.25 C-94.8406 248.8481 -94.1187 249.4462 -93.375 250.0625 C-90.7491 252.1048 -88.2403 253.5654 -85.3125 255.125 C-81.0659 257.3925 -77.0647 259.8176 -73.0977 262.5391 C-71.0805 263.9004 -69.051 265.221 -66.9961 266.5234 C-66.6821 266.7227 -66.6821 266.7227 -65.093 267.7312 C-63.846 268.5207 -62.5972 269.3074 -61.3464 270.0911 C-58.4343 271.9406 -55.9841 273.8145 -53.5625 276.25 C-52.1514 277.0096 -50.7093 277.7128 -49.25 278.375 C-44.617 280.6195 -40.2765 283.1794 -35.9375 285.9375 C-35.3093 286.3302 -34.6811 286.7229 -34.0339 287.1274 C-32.5057 288.1121 -31.0284 289.1748 -29.5625 290.25 C-29.5625 290.91 -29.5625 291.57 -29.5625 292.25 C-28.7169 292.4769 -27.8712 292.7038 -27 292.9375 C-23.7351 294.1841 -21.3876 295.7349 -18.6172 297.8281 C-15.3577 300.0838 -11.8343 301.8238 -8.3086 303.625 C-5.682 305.1793 -3.4818 306.9536 -1.1721 308.9385 C1.6886 311.2694 4.8042 313.1846 7.9375 315.125 C8.636 315.5599 9.3345 315.9948 10.0542 316.4429 C15.5538 319.8158 21.1683 322.7243 26.9844 325.5195 C30.0714 327.0665 33.0218 328.7236 35.989 330.4822 C44.3966 335.4633 51.5243 338.7329 61.4375 336.25 C67.0863 333.5854 69.2902 329.888 71.4375 324.25 C79.1343 300.6464 62.6042 272.4096 52.4375 252.25 C47.4125 242.5547 41.4988 233.6252 34.707 225.0703 C33.4375 223.25 33.4375 223.25 33.4375 221.25 C32.4475 220.92 31.4575 220.59 30.4375 220.25 C29.75 218.1875 29.75 218.1875 29.4375 216.25 C28.7775 216.25 28.1175 216.25 27.4375 216.25 C26.1468 214.6091 24.9299 212.9098 23.75 211.1875 C17.6121 202.5501 10.0594 195.5942 1.6875 189.125 C-0.5625 187.25 -0.5625 187.25 -2.25 184.9375 C-5.7499 180.87 -10.1121 178.2015 -14.5625 175.25 C-15.2521 174.7898 -15.9418 174.3296 -16.6523 173.8555 C-18.0692 172.9118 -19.4887 171.972 -20.9102 171.0352 C-22.9999 169.6287 -25.0637 168.1987 -27.1211 166.7461 C-48.1727 151.9305 -71.0971 140.9383 -95.0215 131.51 C-95.9799 131.1251 -96.9383 130.7403 -97.9258 130.3438 C-98.7744 130.0105 -99.623 129.6773 -100.4973 129.334 C-102.5625 128.25 -102.5625 128.25 -104.5625 125.25 C-104.5234 122.7578 -104.5234 122.7578 -103.5625 120.25 C-97.1041 115.5628 -88.4464 112.4535 -80.5625 111.25 C-79.5725 111.58 -78.5825 111.91 -77.5625 112.25 C-77.5625 111.59 -77.5625 110.93 -77.5625 110.25 C-65.2341 109.6196 -53.5322 111.7697 -41.8242 115.582 C-39.5479 116.2543 -37.3434 116.635 -35 117 C-16.1382 120.5272 1.6186 132.4652 17.7693 142.2449 C19.2737 143.1513 20.7867 144.0433 22.3008 144.9336 C24.3723 146.2098 25.7279 147.5404 27.4375 149.25 C28.8698 150.1972 30.3023 151.144 31.7366 152.0881 C34.6617 154.0862 37.4162 156.2959 40.1875 158.5 C40.8009 158.986 41.4144 159.472 42.0464 159.9727 C43.2781 160.949 44.509 161.9262 45.7393 162.9043 C47.2027 164.064 48.6748 165.2127 50.1484 166.3594 C62.6601 176.1582 74.075 187.2132 84.4375 199.25 C85.8088 200.8157 87.1839 202.3782 88.5625 203.9375 C89.1838 204.6426 89.8052 205.3477 90.4453 206.0742 C91.8694 207.6295 93.3402 209.1424 94.8398 210.625 C97.6751 213.4901 100.2848 216.4775 102.875 219.5625 C103.3594 220.1379 103.8439 220.7133 104.343 221.3062 C107.8644 225.5129 111.2328 229.7962 114.4375 234.25 C115.7492 236.0631 117.0618 237.8755 118.375 239.6875 C119.0518 240.6246 119.7285 241.5618 120.4258 242.5273 C122.2459 244.9907 124.1346 247.371 126.0625 249.75 C131.8454 257.1327 135.7342 265.7117 139.8672 274.0859 C140.9596 276.2871 142.0704 278.4793 143.1953 280.6641 C147.1383 288.3623 150.5428 296.0915 153.4375 304.25 C153.7056 304.9801 153.9737 305.7102 154.25 306.4624 C162.7696 329.763 166.6647 353.0035 166.625 377.75 C166.6241 378.5042 166.6231 379.2584 166.6222 380.0355 C166.514 420.2495 154.9757 456.7657 136.4375 492.25 C135.9129 493.2684 135.3882 494.2867 134.8477 495.3359 C131.5031 501.6703 127.6231 507.4458 123.4375 513.25 C122.7775 514.24 122.1175 515.23 121.4375 516.25 C115.7344 524.8046 109.6774 533.0802 103.4375 541.25 C103.0727 541.7308 103.0727 541.7308 101.2266 544.1641 C100.533 545.0587 99.8395 545.9533 99.125 546.875 C98.8176 547.2733 98.8176 547.2733 97.2617 549.2891 C95.4375 551.25 95.4375 551.25 93.332 552.2734 C90.8839 553.5353 90.6378 554.8104 89.4375 557.25 C87.5715 559.6204 85.4936 561.7936 83.4375 564 C82.8909 564.602 82.3444 565.204 81.7812 565.8242 C80.3775 567.3415 78.9117 568.801 77.4375 570.25 C76.7775 570.25 76.1175 570.25 75.4375 570.25 C75.1848 570.8249 74.9322 571.3998 74.6719 571.9922 C71.8306 577.1893 67.3484 581.4311 61.9375 583.75 C61.1125 583.915 60.2875 584.08 59.4375 584.25 C54.6661 579.4786 55.259 569.8888 54.9077 563.427 C53.3882 537.0324 44.4889 510.6159 30.4375 488.25 C29.8355 487.2613 29.2335 486.2726 28.6133 485.2539 C23.0756 476.5121 16.3214 468.9336 9.4375 461.25 C8.5829 460.2832 7.7282 459.3164 6.8477 458.3203 C-0.7477 449.7771 -8.6483 442.4154 -17.5625 435.25 C-19.2713 433.8339 -20.9796 432.4172 -22.6875 431 C-32.9797 422.6018 -43.3929 414.4118 -54.6619 407.3582 C-60.9092 403.4451 -66.8746 399.1511 -72.668 394.5938 C-76.9711 391.2268 -81.3164 388.7581 -86.2461 386.4023 C-89.2013 384.9322 -91.8469 383.1207 -94.5625 381.25 C-96.1952 380.3357 -97.8279 379.4215 -99.4609 378.5078 C-102.1503 376.8982 -104.7203 375.1366 -107.3125 373.375 C-112.02 370.2074 -116.7949 367.3941 -121.8008 364.7305 C-130.9781 359.8108 -139.7895 354.2775 -148.5977 348.7344 C-151.0949 347.1643 -153.6003 345.61 -156.1211 344.0781 C-161.8995 340.5662 -167.5349 336.9551 -173.0391 333.0273 C-175.8241 331.0658 -178.6562 329.1877 -181.5 327.3125 C-187.312 323.4527 -192.9583 319.4044 -198.5625 315.25 C-199.6234 314.4701 -200.6843 313.6902 -201.7773 312.8867 C-202.8519 312.0916 -203.9261 311.296 -205 310.5 C-205.9681 309.7833 -206.9362 309.0666 -207.9336 308.3281 C-210.344 306.4227 -212.5218 304.5464 -214.5625 302.25 C-214.5625 301.59 -214.5625 300.93 -214.5625 300.25 C-215.5525 300.25 -216.5425 300.25 -217.5625 300.25 C-217.5625 299.59 -217.5625 298.93 -217.5625 298.25 C-218.1529 298.1327 -218.7433 298.0154 -219.3516 297.8945 C-221.6672 297.2195 -223.0273 296.3859 -224.9375 294.9375 C-227.0379 293.3597 -229.1252 291.8933 -231.3477 290.4844 C-235.0975 287.8782 -238.3174 284.948 -241.625 281.8125 C-242.2238 281.2524 -242.8225 280.6923 -243.4395 280.1152 C-246.1114 277.6072 -248.7351 275.0749 -251.3086 272.4648 C-253.5625 270.25 -253.5625 270.25 -256.5625 268.25 C-256.5625 267.59 -256.5625 266.93 -256.5625 266.25 C-257.2225 266.25 -257.8825 266.25 -258.5625 266.25 C-258.5625 265.59 -258.5625 264.93 -258.5625 264.25 C-259.2225 264.25 -259.8825 264.25 -260.5625 264.25 C-261.9374 262.7421 -263.2361 261.1646 -264.5 259.5625 C-267.0612 256.3414 -269.6173 253.1542 -272.3555 250.082 C-278.689 242.9453 -283.286 235.8326 -287.5625 227.25 C-288.2555 225.9797 -288.955 224.7129 -289.6602 223.4492 C-293.1248 217.2165 -296.2688 211.2094 -298.043 204.25 C-298.5625 202.25 -298.5625 202.25 -299.75 199.625 C-300.9505 196.1158 -300.6878 192.9469 -300.5625 189.25 C-301.2225 188.92 -301.8825 188.59 -302.5625 188.25 C-303.1875 185.1875 -303.1875 185.1875 -303.5625 182.25 C-303.8925 182.25 -304.2225 182.25 -304.5625 182.25 C-305.4265 175.0622 -305.7164 167.9862 -305.6875 160.75 C-305.6914 159.7819 -305.6952 158.8138 -305.6992 157.8164 C-305.6773 141.4796 -305.6773 141.4796 -303.5625 137.25 C-302.9178 134.7117 -302.2955 132.172 -301.6875 129.625 C-300.3175 123.9941 -298.7962 118.6109 -296.5625 113.25 C-295.9025 113.25 -295.2425 113.25 -294.5625 113.25 C-294.4826 112.4108 -294.4027 111.5716 -294.3203 110.707 C-293.4202 106.6007 -291.6373 103.4563 -289.4375 99.9375 C-289.0308 99.276 -288.6241 98.6144 -288.2051 97.9329 C-279.6782 84.2575 -268.3916 71.0771 -255.5625 61.25 C-254.9025 61.25 -254.2425 61.25 -253.5625 61.25 C-253.3305 60.6635 -253.0984 60.077 -252.8594 59.4727 C-249.4074 53.5565 -241.5217 50.1603 -235.5625 47.25 C-233.8873 45.9274 -232.2214 44.5929 -230.5625 43.25 C-226.1044 40.2266 -221.5007 37.6027 -216.6484 35.2695 C-215.2619 34.5918 -213.8912 33.8807 -212.5391 33.1367 C-205.8922 29.5567 -198.915 27.1593 -191.7822 24.7488 C-188.1363 23.5149 -184.5868 22.2606 -181.0547 20.7227 C-176.7407 18.9035 -172.3749 17.5885 -167.875 16.3125 C-166.958 16.0516 -166.041 15.7908 -165.0962 15.522 C-156.4819 13.1297 -147.7984 11.3721 -139.0166 9.7266 C-135.7371 9.0897 -132.4781 8.3701 -129.2156 7.6521 C-121.0957 5.8711 -113.0497 4.5441 -104.7852 3.6445 C-101.5625 3.25 -101.5625 3.25 -99.6394 2.7566 C-84.5394 -0.9266 -67.4255 -0.0052 -51.9375 -0.375 C-51.0888 -0.3955 -50.24 -0.4159 -49.3656 -0.437 C-32.8813 -0.8225 -16.469 -0.8685 0 0 Z " fill="#A8783A" transform="translate(596.5625,127.75)"/>
<path d="M0 0 C5.3565 0.0026 10.7131 0.0002 16.0696 -0.0014 C25.0517 -0.0032 34.0338 -0.0009 43.0158 0.004 C53.2848 0.0094 63.5538 0.0076 73.8229 0.0021 C82.7643 -0.0025 91.7057 -0.003 100.6471 -0.0004 C105.9328 0.0011 111.2186 0.0014 116.5043 -0.002 C151.9265 -0.0215 187.2792 0.5472 222.652 2.5093 C223.8397 2.5737 225.0274 2.6381 226.251 2.7044 C244.6372 3.707 262.9151 5.0788 281.2145 7.1343 C283.0659 7.3353 284.9175 7.5347 286.7692 7.732 C287.527 7.8133 288.2848 7.8946 289.0656 7.9783 C289.5233 8.0247 289.5233 8.0247 291.8395 8.2593 C292.1815 8.2947 292.1815 8.2947 293.9119 8.4735 C298.6496 8.9434 303.3635 9.2541 308.1208 9.4233 C321.953 9.9246 335.652 11.4196 349.402 12.9468 C351.89 13.2184 354.3781 13.4896 356.8662 13.7603 C371.7503 15.3868 386.6258 17.0815 401.4904 18.878 C408.58 19.7297 415.6625 20.4688 422.777 21.0718 C441.6412 22.7192 460.5332 25.8764 479.0876 29.6121 C488.8014 31.527 498.6088 32.8969 508.4079 34.2964 C515.8555 35.375 523.1692 36.6934 530.4816 38.4844 C532.202 38.8935 533.9346 39.2569 535.6779 39.5538 C539.0265 40.1627 540.8201 40.6059 542.8938 43.3838 C544.8717 49.0005 544.6935 54.415 544.7216 60.3305 C544.7382 61.6783 544.7561 63.026 544.775 64.3737 C544.8227 68.0449 544.8514 71.716 544.8763 75.3874 C544.8998 78.5173 544.934 81.6472 544.968 84.777 C545.0846 95.5626 545.1575 106.3483 545.2145 117.1343 C545.2187 117.9252 545.2229 118.7161 545.2272 119.531 C545.3421 141.7899 545.3586 164.0487 545.3498 186.3079 C545.3475 192.3997 545.3473 198.4916 545.3484 204.5834 C545.3484 205.0268 545.3484 205.0268 545.3488 207.2704 C545.3491 209.0747 545.3495 210.879 545.3498 212.6833 C545.3526 229.3468 545.3494 246.0103 545.344 262.6737 C545.3395 276.8313 545.3403 290.9888 545.3449 305.1463 C545.3503 321.8069 545.3523 338.4675 545.3493 355.1281 C545.349 356.9172 545.3487 358.7063 545.3484 360.4953 C545.3482 361.3744 545.348 362.2535 545.3479 363.1592 C545.347 369.2224 545.3485 375.2856 545.3508 381.3489 C545.3729 443.4568 545.3729 443.4568 544.7687 474.014 C544.7493 475.0456 544.7299 476.0773 544.7099 477.1402 C544.6546 479.97 544.5923 482.7995 544.5263 485.6291 C544.51 486.4447 544.4937 487.2603 544.4769 488.1007 C544.385 491.6065 544.0925 494.7522 543.2145 498.1343 C543.0015 500.2694 542.8253 502.4082 542.6716 504.5484 C540.5865 531.4328 537.1771 558.1729 528.9128 583.9424 C528.2373 586.0627 527.5991 588.1906 526.9724 590.3257 C523.9574 600.4869 520.1859 610.3127 516.2145 620.1343 C515.7466 621.2971 515.2787 622.4598 514.7966 623.6578 C512.4933 629.2848 510.0002 634.7335 507.2145 640.1343 C506.129 642.2999 505.0459 644.4667 503.9645 646.6343 C503.6677 647.2268 503.3708 647.8193 503.0649 648.4297 C501.4288 651.6949 499.8041 654.9652 498.195 658.2437 C493.419 667.9442 488.2617 677.1552 482.2145 686.1343 C480.4689 688.9027 478.7286 691.6743 476.9958 694.4507 C475.2145 697.1343 475.2145 697.1343 473.1286 699.7398 C471.5194 701.7529 470.2835 703.6168 469.0895 705.8843 C467.2145 709.1343 467.2145 709.1343 465.2145 710.1343 C464.21 711.7982 463.2106 713.4653 462.2145 715.1343 C460.9771 716.5802 459.7047 717.9969 458.402 719.3843 C455.8025 722.2471 453.519 725.0481 451.4645 728.3218 C444.7644 738.7442 435.7299 747.7817 427.2966 756.8062 C425.2145 759.1343 425.2145 759.1343 424.2145 761.1343 C423.5545 761.1343 422.8945 761.1343 422.2145 761.1343 C421.967 761.7118 421.7195 762.2893 421.4645 762.8843 C420.0315 765.4637 418.4303 767.1955 416.2145 769.1343 C415.5545 769.1343 414.8945 769.1343 414.2145 769.1343 C413.9735 769.7041 413.7324 770.2739 413.4841 770.8609 C411.9673 773.5772 410.1469 775.3588 407.902 777.5093 C405.3404 780.0057 402.8611 782.4451 400.652 785.2593 C398.1723 788.1841 395.5645 790.5366 392.652 793.0132 C390.1875 795.1579 387.8019 797.3695 385.4177 799.6023 C380.7907 803.9342 376.2296 808.1512 370.9958 811.7554 C368.5174 813.674 366.4151 815.9044 364.2145 818.1343 C356.8065 825.1391 349.1952 831.7855 341.2145 838.1343 C340.7827 838.483 340.7827 838.483 338.5974 840.2476 C337.7904 840.8908 336.9834 841.5341 336.152 842.1968 C335.4392 842.7653 334.7263 843.3338 333.9919 843.9195 C332.2145 845.1343 332.2145 845.1343 330.2145 845.1343 C330.2145 845.7943 330.2145 846.4543 330.2145 847.1343 C328.0974 848.8609 328.0974 848.8609 325.3395 850.7593 C324.4346 851.391 323.5297 852.0226 322.5974 852.6734 C320.2145 854.1343 320.2145 854.1343 318.2145 854.1343 C318.2145 854.7943 318.2145 855.4543 318.2145 856.1343 C316.8083 857.2203 316.8083 857.2203 314.7145 858.5093 C309.2602 862.0126 304.1321 865.8973 298.9763 869.8194 C295.1357 872.7309 291.2537 875.4999 287.2145 878.1343 C286.0068 878.934 284.7998 879.7349 283.5934 880.5367 C282.9676 880.9524 282.3418 881.3681 281.697 881.7964 C281.3802 882.0069 281.3802 882.0069 279.777 883.0718 C279.1473 883.4888 278.5176 883.9058 277.8688 884.3355 C274.7612 886.4019 271.694 888.5005 268.6794 890.7007 C265.8749 892.7219 262.9927 894.4556 259.9733 896.1338 C256.933 897.8633 254.0191 899.7878 251.0895 901.6968 C239.6415 909.1343 239.6415 909.1343 237.2145 909.1343 C237.2145 909.7943 237.2145 910.4543 237.2145 911.1343 C236.3341 911.5932 235.4537 912.0521 234.5466 912.525 C233.3851 913.1385 232.2237 913.7521 231.027 914.3843 C229.8785 914.9876 228.7299 915.5909 227.5466 916.2125 C224.4859 917.9778 221.9497 919.9159 219.2145 922.1343 C217.5094 923.1349 215.779 924.0933 214.027 925.0093 C209.4749 927.4294 205.0685 930.0051 200.6989 932.7398 C198.2145 934.1343 198.2145 934.1343 194.9919 935.4781 C190.4287 937.3813 186.2697 939.9249 182.027 942.4468 C174.1428 947.0697 166.2239 951.4568 157.8671 955.1802 C150.6509 958.4059 143.645 961.952 136.652 965.6343 C126.2801 971.076 115.8749 976.3957 105.277 981.3843 C103.6221 982.1655 101.9671 982.9468 100.3122 983.7281 C99.8927 983.9259 99.8927 983.9259 97.7697 984.9273 C95.2275 986.1282 92.6875 987.3336 90.1481 988.5406 C76.4915 995.0312 76.4915 995.0312 69.777 998.1343 C68.974 998.5056 68.1709 998.8768 67.3434 999.2593 C62.0784 1001.4233 62.0784 1001.4233 59.1013 1000.4273 C58.3755 1000.0625 57.6498 999.6977 56.902 999.3218 C54.2035 997.9798 51.7775 997.0144 48.8552 996.2125 C45.033 995.0806 41.8056 993.5425 38.277 991.6968 C30.9679 987.9271 30.9679 987.9271 27.277 986.6968 C22.7177 985.1127 18.5809 982.7041 14.3579 980.3995 C8.6556 977.3112 2.8328 974.5353 -3.0626 971.8367 C-6.7855 970.1227 -10.2875 968.2824 -13.7855 966.1343 C-15.485 965.2628 -17.1942 964.4099 -18.9105 963.5718 C-25.2134 960.4514 -31.427 957.1739 -37.6421 953.8826 C-42.4291 951.3545 -47.2397 948.8975 -52.098 946.5093 C-57.3299 943.9176 -62.4115 941.1208 -67.4576 938.189 C-71.7652 935.6927 -76.1308 933.3296 -80.5355 931.0093 C-89.3169 926.3675 -97.7081 921.2359 -106.0472 915.8453 C-108.6637 914.2104 -111.3274 912.682 -114.0113 911.1612 C-116.8266 909.5318 -119.5526 907.7727 -122.2855 906.0093 C-122.875 905.6297 -123.4645 905.2501 -124.0718 904.8589 C-127.3759 902.7231 -130.6576 900.5567 -133.9222 898.3609 C-134.5989 897.906 -135.2757 897.4511 -135.973 896.9825 C-137.2839 896.0988 -138.5925 895.2119 -139.8987 894.3213 C-142.5163 892.5544 -144.7727 891.1386 -147.7855 890.1343 C-147.7855 889.4743 -147.7855 888.8143 -147.7855 888.1343 C-148.7755 888.1343 -149.7655 888.1343 -150.7855 888.1343 C-150.7855 887.4743 -150.7855 886.8143 -150.7855 886.1343 C-151.1548 885.9983 -151.1548 885.9983 -153.0237 885.3101 C-155.6502 884.1919 -157.6636 882.9834 -159.973 881.3218 C-160.8225 880.7147 -161.6719 880.1075 -162.5472 879.482 C-163.6158 878.7073 -164.6844 877.9325 -165.7855 877.1343 C-168.1292 875.4376 -170.4734 873.7413 -172.8179 872.0457 C-174.4521 870.8627 -176.0847 869.6776 -177.7159 868.4905 C-178.471 867.9424 -179.2262 867.3943 -180.0042 866.8296 C-180.6842 866.3348 -181.3642 865.84 -182.0648 865.3301 C-183.7855 864.1343 -183.7855 864.1343 -185.7855 863.1343 C-185.7855 862.4743 -185.7855 861.8143 -185.7855 861.1343 C-186.47 860.9126 -187.1544 860.6909 -187.8597 860.4625 C-191.5862 858.7708 -194.4405 856.4579 -197.598 853.8843 C-198.8356 852.89 -200.0738 851.8965 -201.3128 850.9039 C-201.6099 850.6651 -201.6099 850.6651 -203.1131 849.4571 C-205.2511 847.766 -207.4494 846.1658 -209.6605 844.5718 C-210.6917 843.7675 -211.723 842.9631 -212.7855 842.1343 C-212.7855 841.4743 -212.7855 840.8143 -212.7855 840.1343 C-213.7755 840.1343 -214.7655 840.1343 -215.7855 840.1343 C-215.7855 839.4743 -215.7855 838.8143 -215.7855 838.1343 C-216.3436 837.8726 -216.9018 837.611 -217.4769 837.3414 C-220.0384 836.0021 -222.3493 834.4713 -224.723 832.8218 C-225.14 832.535 -225.14 832.535 -227.2503 831.0835 C-230.0173 828.956 -232.3447 826.6295 -234.7855 824.1343 C-237.1605 821.8619 -239.566 819.6228 -241.973 817.3843 C-242.6014 816.7952 -243.2298 816.2061 -243.8773 815.5992 C-244.4799 815.0384 -245.0825 814.4777 -245.7034 813.9 C-246.2477 813.3924 -246.7919 812.8848 -247.3526 812.3619 C-248.7855 811.1343 -248.7855 811.1343 -250.7855 810.1343 C-250.7855 809.4743 -250.7855 808.8143 -250.7855 808.1343 C-251.0716 808.0125 -251.0716 808.0125 -252.5198 807.396 C-255.1898 805.9092 -256.9237 804.1535 -259.0355 801.9468 C-264.0009 796.867 -269.1583 792.1594 -274.7855 787.8218 C-275.4455 787.265 -276.1055 786.7081 -276.7855 786.1343 C-276.7855 785.4743 -276.7855 784.8143 -276.7855 784.1343 C-277.4455 784.1343 -278.1055 784.1343 -278.7855 784.1343 C-280.0161 782.7042 -281.2404 781.2676 -282.4144 779.7906 C-283.7855 778.1343 -283.7855 778.1343 -286.5355 775.4468 C-288.7855 773.1343 -288.7855 773.1343 -289.7855 770.1343 C-290.7755 769.8043 -291.7655 769.4743 -292.7855 769.1343 C-292.7855 768.4743 -292.7855 767.8143 -292.7855 767.1343 C-293.4455 767.1343 -294.1055 767.1343 -294.7855 767.1343 C-294.7855 766.4743 -294.7855 765.8143 -294.7855 765.1343 C-295.4455 765.1343 -296.1055 765.1343 -296.7855 765.1343 C-296.7855 764.4743 -296.7855 763.8143 -296.7855 763.1343 C-297.4455 763.1343 -298.1055 763.1343 -298.7855 763.1343 C-300.1175 761.5601 -300.1175 761.5601 -301.598 759.4468 C-304.0899 756.0098 -306.7414 753.1042 -309.7855 750.1343 C-317.7201 741.443 -325.1803 732.2918 -332.4105 723.0093 C-332.6295 722.7311 -332.6295 722.7311 -333.7379 721.323 C-336.7855 717.3703 -336.7855 717.3703 -336.7855 715.1343 C-337.7755 714.8043 -338.7655 714.4743 -339.7855 714.1343 C-341.2581 712.1226 -341.2581 712.1226 -342.848 709.4468 C-345.6353 704.9012 -348.5842 700.5628 -351.723 696.2593 C-356.4336 689.7553 -360.646 683.0167 -364.7855 676.1343 C-366.1389 673.9672 -367.4931 671.8006 -368.848 669.6343 C-372.7628 663.267 -376.2978 656.7426 -379.7855 650.1343 C-380.5378 648.7533 -381.2918 647.3731 -382.0472 645.9937 C-386.1096 638.5293 -389.7791 631.1713 -392.68 623.1617 C-393.7663 620.1867 -394.9717 617.2933 -396.223 614.3843 C-401.3346 602.129 -405.3132 589.6417 -408.973 576.8843 C-409.3059 575.7248 -409.6389 574.5653 -409.982 573.3707 C-413.3795 561.3413 -416.0797 549.5806 -417.348 537.1343 C-417.596 534.8333 -417.846 532.5325 -418.098 530.232 C-418.2153 529.1596 -418.3326 528.0873 -418.4534 526.9825 C-418.8214 523.826 -419.3028 520.7024 -419.848 517.5718 C-423.565 493.9831 -423.0771 470.0769 -423.0469 446.2762 C-423.0423 440.9295 -423.0494 435.5828 -423.0549 430.2361 C-423.0637 419.8017 -423.0619 409.3673 -423.056 398.9328 C-423.0515 390.4557 -423.0509 381.9785 -423.0531 373.5014 C-423.0534 372.2906 -423.0537 371.0798 -423.054 369.8323 C-423.0547 367.3722 -423.0553 364.9121 -423.056 362.4519 C-423.0617 339.4568 -423.0551 316.4618 -423.0444 293.4667 C-423.0354 273.7351 -423.037 254.0036 -423.0462 234.272 C-423.0569 211.3228 -423.0611 188.3736 -423.055 165.4244 C-423.0543 162.98 -423.0537 160.5355 -423.0531 158.091 C-423.0528 156.8884 -423.0525 155.6858 -423.0522 154.4467 C-423.0504 145.9694 -423.0533 137.492 -423.0581 129.0147 C-423.0636 118.7003 -423.0622 108.386 -423.0515 98.0716 C-423.0462 92.8092 -423.0442 87.5468 -423.0508 82.2843 C-423.0567 77.4715 -423.0535 72.6587 -423.0428 67.8458 C-423.0406 66.1016 -423.0417 64.3573 -423.0466 62.613 C-423.0526 60.2486 -423.0465 57.8845 -423.0371 55.5201 C-423.0368 54.2051 -423.0365 52.89 -423.0362 51.535 C-422.7245 47.3075 -422.0674 44.3502 -418.9542 41.3975 C-416.6154 40.0353 -414.7366 39.4491 -412.0862 38.9234 C-411.1422 38.7333 -410.1982 38.5433 -409.2256 38.3475 C-408.1935 38.1534 -407.1614 37.9593 -406.098 37.7593 C-405.0007 37.5465 -403.9035 37.3338 -402.773 37.1146 C-392.4834 35.1691 -382.1391 33.6018 -371.7803 32.0801 C-362.2218 30.6737 -352.6925 29.1382 -343.168 27.5177 C-317.9386 23.2328 -292.7224 19.428 -267.2261 17.1592 C-260.7915 16.5741 -254.4907 15.8655 -248.1605 14.5718 C-239.0502 12.7686 -229.8374 12.3247 -220.5818 11.7806 C-219.3742 11.7091 -218.1665 11.6376 -216.9222 11.564 C-216.3793 11.5343 -216.3793 11.5343 -213.6319 11.3838 C-211.2091 11.1715 -209.1243 10.7454 -206.7855 10.1343 C-205.3925 10.0051 -203.9957 9.9129 -202.598 9.8531 C-201.8168 9.8157 -201.0356 9.7783 -200.2308 9.7398 C-199.4157 9.7046 -199.4157 9.7046 -195.3401 9.5289 C-194.559 9.4915 -193.7778 9.4541 -192.973 9.4156 C-192.2653 9.3853 -191.5576 9.355 -190.8284 9.3238 C-188.7855 9.1343 -188.7855 9.1343 -186.8563 8.6436 C-184.3781 8.0341 -182.0125 7.8665 -179.4651 7.7046 C-178.3912 7.6331 -177.3172 7.5616 -176.2108 7.4878 C-175.0392 7.4124 -173.8676 7.337 -172.6605 7.2593 C-164.0387 6.6812 -155.4369 6.0323 -146.8339 5.2168 C-131.9129 3.8029 -117.0073 2.7226 -102.0355 2.0093 C-101.6432 1.9901 -101.6432 1.9901 -99.658 1.8929 C-66.4538 0.2933 -33.2363 -0.0213 0 0 Z M34.7632 29.4709 C29.7392 29.5226 24.7152 29.5659 19.6911 29.6094 C-18.7207 29.9438 -57.0157 30.6751 -95.3633 32.9407 C-98.3542 33.1162 -101.3453 33.2869 -104.3364 33.4575 C-113.8205 33.9985 -123.3034 34.5584 -132.7855 35.1343 C-133.1341 35.1555 -133.1341 35.1555 -134.8987 35.2627 C-151.5477 36.2768 -168.1773 37.3928 -184.7855 38.9468 C-185.2329 38.988 -185.2329 38.988 -187.4973 39.1963 C-207.3187 41.0208 -227.112 43.116 -246.8987 45.2818 C-251.269 45.7592 -255.6398 46.2239 -260.0145 46.659 C-268.1096 47.4683 -276.0725 48.3562 -284.0355 50.0718 C-291.3238 51.5463 -298.5939 52.7176 -305.973 53.6343 C-317.2136 55.0366 -328.3983 56.6927 -339.5853 58.4717 C-342.7461 58.9727 -345.9085 59.4627 -349.0716 59.9493 C-353.9525 60.7003 -358.8314 61.4637 -363.7094 62.2338 C-365.6697 62.5414 -367.6305 62.845 -369.592 63.1447 C-372.364 63.5692 -375.1334 64.0083 -377.9026 64.4507 C-378.7401 64.5757 -379.5775 64.7006 -380.4403 64.8293 C-381.2179 64.9565 -381.9955 65.0836 -382.7967 65.2146 C-383.4733 65.3203 -384.1499 65.4259 -384.847 65.5347 C-387.4402 66.3369 -388.8327 67.2227 -390.7855 69.1343 C-391.2846 72.0298 -391.2846 72.0298 -391.2832 75.6487 C-391.2885 76.3166 -391.2937 76.9845 -391.299 77.6727 C-391.3117 79.9275 -391.2957 82.1812 -391.2799 84.436 C-391.2831 86.0627 -391.288 87.6894 -391.2946 89.3161 C-391.3074 93.8004 -391.2952 98.2843 -391.279 102.7686 C-391.2659 107.6017 -391.2758 112.4348 -391.2828 117.2679 C-391.2929 126.7526 -391.2816 136.2372 -391.2631 145.7219 C-391.2423 156.7982 -391.2425 167.8745 -391.2434 178.9509 C-391.2445 198.7604 -391.2261 218.5698 -391.1971 238.3792 C-391.1691 257.5211 -391.1547 276.663 -391.1561 295.805 C-391.1561 296.9782 -391.1562 298.1515 -391.1563 299.3603 C-391.1564 300.5317 -391.1565 301.703 -391.1566 302.9099 C-391.1579 324.7664 -391.1461 346.623 -391.1282 368.4795 C-391.1223 376.1603 -391.1201 383.841 -391.1192 391.5218 C-391.1178 400.9412 -391.1086 410.3605 -391.0905 419.7799 C-391.0814 424.5668 -391.0751 429.3536 -391.0777 434.1405 C-391.0856 453.6058 -390.8119 473.0319 -389.9548 492.48 C-389.9203 493.3301 -389.8858 494.1802 -389.8502 495.0561 C-388.421 529.2997 -381.3864 564.4635 -368.0472 596.0757 C-366.7855 599.1343 -366.7855 599.1343 -365.8519 601.9585 C-362.3964 612.2489 -358.1433 622.5734 -352.2659 631.7125 C-350.4869 634.6227 -349.0246 637.6283 -347.5355 640.6968 C-341.8228 652.2995 -335.218 663.5471 -327.7855 674.1343 C-327.3494 674.7584 -326.9134 675.3825 -326.4642 676.0254 C-313.0649 695.1903 -313.0649 695.1903 -305.848 704.0093 C-302.4607 708.2077 -299.3482 712.5367 -296.3284 717.0054 C-294.9264 718.9399 -293.6028 720.5859 -291.7855 722.1343 C-291.1255 722.1343 -290.4655 722.1343 -289.7855 722.1343 C-289.6411 722.4334 -289.6411 722.4334 -288.9105 723.9468 C-287.7855 726.1343 -287.7855 726.1343 -285.7855 729.1343 C-285.1255 729.1343 -284.4655 729.1343 -283.7855 729.1343 C-282.7855 731.1343 -281.7855 733.1343 -280.7855 735.1343 C-280.1255 735.1343 -279.4655 735.1343 -278.7855 735.1343 C-278.516 735.7208 -278.2466 736.3074 -277.9691 736.9117 C-276.787 739.1314 -275.5045 740.8127 -273.848 742.6968 C-273.3439 743.2756 -272.8399 743.8544 -272.3206 744.4507 C-269.2341 747.8356 -269.2341 747.8356 -267.7855 749.1343 C-267.1255 749.1343 -266.4655 749.1343 -265.7855 749.1343 C-265.1255 750.4543 -264.4655 751.7743 -263.7855 753.1343 C-263.1255 753.1343 -262.4655 753.1343 -261.7855 753.1343 C-261.5173 753.7737 -261.2492 754.4131 -260.973 755.0718 C-259.7855 757.1343 -259.7855 757.1343 -256.7855 758.1343 C-256.0839 759.4497 -255.4202 760.7855 -254.7855 762.1343 C-253.2855 763.8843 -253.2855 763.8843 -251.7855 765.1343 C-251.1255 765.1343 -250.4655 765.1343 -249.7855 765.1343 C-249.7855 765.7943 -249.7855 766.4543 -249.7855 767.1343 C-249.1255 767.1343 -248.4655 767.1343 -247.7855 767.1343 C-247.7855 767.7943 -247.7855 768.4543 -247.7855 769.1343 C-247.1255 769.1343 -246.4655 769.1343 -245.7855 769.1343 C-245.4555 770.1243 -245.1255 771.1143 -244.7855 772.1343 C-243.0784 773.8179 -243.0784 773.8179 -240.973 775.5718 C-238.6728 777.514 -236.5143 779.4126 -234.4105 781.5718 C-232.7855 783.1343 -232.7855 783.1343 -230.7855 783.1343 C-230.7855 783.7943 -230.7855 784.4543 -230.7855 785.1343 C-229.1683 786.5672 -227.4892 787.9306 -225.7855 789.2593 C-221.3092 792.823 -217.255 796.5296 -213.3441 800.7007 C-211.7855 802.1343 -211.7855 802.1343 -209.7855 802.1343 C-209.7855 802.7943 -209.7855 803.4543 -209.7855 804.1343 C-206.3239 807.1343 -206.3239 807.1343 -203.7855 807.1343 C-203.7855 807.7943 -203.7855 808.4543 -203.7855 809.1343 C-201.7169 810.9009 -199.6392 812.5576 -197.473 814.1968 C-196.1688 815.2011 -194.8655 816.2063 -193.5628 817.2125 C-192.9155 817.7107 -192.2683 818.2089 -191.6014 818.7222 C-189.207 820.5842 -186.8693 822.5098 -184.5355 824.4468 C-163.2554 841.9179 -163.2554 841.9179 -152.2112 848.6382 C-149.724 850.1722 -147.3527 851.8139 -144.973 853.5093 C-140.8154 856.4437 -136.6058 859.2858 -132.348 862.0718 C-131.7443 862.4739 -131.1406 862.8759 -130.5186 863.2901 C-126.1334 866.1343 -126.1334 866.1343 -122.7855 866.1343 C-122.7855 866.7943 -122.7855 867.4543 -122.7855 868.1343 C-121.8161 868.6706 -120.8467 869.2068 -119.848 869.7593 C-116.1076 871.8902 -112.5655 874.2663 -109.0042 876.6812 C-106.971 878.0128 -104.9148 879.2149 -102.7855 880.3843 C-99.7855 882.1343 -99.7855 882.1343 -98.7855 884.1343 C-96.6133 885.3044 -94.4498 886.3915 -92.223 887.4468 C-87.5602 889.7128 -83.0824 892.0822 -78.7347 894.9078 C-75.6109 896.8734 -72.3535 898.583 -69.1058 900.3335 C-64.9819 902.5701 -60.8838 904.8514 -56.7855 907.1343 C-51.7995 909.9112 -46.8077 912.6734 -41.7855 915.3843 C-38.4914 917.1684 -35.2841 919.0397 -32.098 921.0093 C-25.8717 924.7885 -19.3378 927.9342 -12.805 931.1407 C-9.7074 932.6648 -6.6219 934.2127 -3.5355 935.7593 C-2.3934 936.3304 -1.2512 936.9014 -0.0745 937.4898 C2.9802 939.0171 6.0349 940.5445 9.0895 942.0718 C10.0615 942.5565 11.0334 943.0412 12.0349 943.5406 C14.3466 944.6993 16.6531 945.866 18.9567 947.0406 C53.9798 964.8347 53.9798 964.8347 64.2145 964.1343 C66.8005 963.2234 69.1942 962.2691 71.6755 961.1343 C72.3837 960.8204 73.0919 960.5064 73.8216 960.1829 C75.3216 959.5155 76.8193 958.8428 78.3146 958.1651 C80.5433 957.1553 82.7784 956.1609 85.0153 955.1695 C94.8921 950.7668 104.575 946.0314 114.2145 941.1343 C116.5462 939.9642 118.8803 938.7993 121.2145 937.6343 C122.3502 937.0658 123.4859 936.4974 124.6559 935.9117 C127.141 934.6705 129.6277 933.4334 132.1169 932.2007 C141.2411 927.6753 150.2603 922.9869 159.2145 918.1343 C160.0639 917.6748 160.9132 917.2152 161.7883 916.7417 C192.1255 900.312 192.1255 900.312 204.363 891.9976 C207.8855 889.6959 211.5302 887.7275 215.2419 885.7515 C224.8895 880.503 234.0588 874.6474 243.0309 868.3218 C247.2651 865.4125 251.6389 862.764 256.027 860.0953 C264.418 854.9332 272.417 849.3288 280.2575 843.3687 C283.1732 841.1655 286.1237 839.0194 289.0895 836.8843 C292.0553 834.7433 294.9408 832.5812 297.7145 830.1968 C300.2145 828.1343 300.2145 828.1343 303.2145 827.1343 C303.2145 826.4743 303.2145 825.8143 303.2145 825.1343 C303.8745 825.1343 304.5345 825.1343 305.2145 825.1343 C305.2145 824.4743 305.2145 823.8143 305.2145 823.1343 C305.8015 822.8567 306.3886 822.5791 306.9933 822.293 C309.0898 821.1994 310.8684 820.0158 312.7536 818.5953 C313.4119 818.101 314.0702 817.6067 314.7485 817.0975 C315.4385 816.5734 316.1286 816.0493 316.8395 815.5093 C317.5509 814.9717 318.2622 814.4341 318.9951 813.8802 C334.0526 802.4628 334.0526 802.4628 340.2145 796.1343 C342.0794 794.5566 343.9592 793.0017 345.8591 791.4664 C346.3064 791.0268 346.7537 790.5872 347.2145 790.1343 C347.2145 789.4743 347.2145 788.8143 347.2145 788.1343 C347.8745 788.1343 348.5345 788.1343 349.2145 788.1343 C349.2145 787.4743 349.2145 786.8143 349.2145 786.1343 C349.8011 785.8662 350.3876 785.5981 350.9919 785.3218 C353.241 784.1202 354.8841 782.8351 356.777 781.1343 C357.4654 780.5182 358.1538 779.902 358.863 779.2671 C359.251 778.9152 359.251 778.9152 361.2145 777.1343 C362.1349 776.3067 363.0553 775.4792 364.0036 774.6265 C368.5128 770.5549 372.9376 766.4503 377.2145 762.1343 C378.2423 761.1165 379.271 760.0996 380.3005 759.0835 C385.6628 753.7729 390.9677 748.4821 395.8474 742.7164 C397.2145 741.1343 397.2145 741.1343 399.652 738.7593 C401.2145 737.1343 401.2145 737.1343 401.2145 735.1343 C401.8745 735.1343 402.5345 735.1343 403.2145 735.1343 C405.5048 732.5189 407.5984 729.7744 409.7302 727.0289 C412.2145 724.1343 412.2145 724.1343 415.1794 721.6812 C418.4857 718.9068 420.9437 715.9992 423.527 712.5718 C423.9685 712.0079 424.41 711.4439 424.8649 710.8628 C427.012 708.0516 428.7529 705.6971 429.2145 702.1343 C429.8745 702.1343 430.5345 702.1343 431.2145 702.1343 C432.5114 700.7449 432.5114 700.7449 433.9645 698.8101 C434.4905 698.1108 435.0164 697.4115 435.5583 696.691 C436.1049 695.9504 436.6514 695.2098 437.2145 694.4468 C437.7611 693.7256 438.3077 693.0044 438.8708 692.2613 C441.5353 688.6858 443.8561 685.4389 445.2145 681.1343 C445.8745 681.1343 446.5345 681.1343 447.2145 681.1343 C448.8301 678.8103 450.3171 676.4917 451.777 674.0718 C452.2174 673.3546 452.6578 672.6374 453.1115 671.8985 C456.5066 666.3534 459.8571 660.7795 463.1699 655.1849 C464.8209 652.4049 466.5131 649.702 468.3513 647.0406 C470.1274 644.2702 471.1595 641.8787 472.152 638.7593 C473.6429 634.427 475.4632 630.9451 477.9958 627.1539 C479.8059 624.1544 480.9491 620.9625 482.1833 617.6929 C483.2151 615.1329 484.4196 612.7578 485.7145 610.3218 C488.2243 605.4332 489.7788 600.4349 491.3122 595.1695 C492.0445 592.7063 492.8446 590.3383 493.777 587.9468 C495.2363 584.2034 496.3643 580.3903 497.4684 576.5289 C498.2145 574.1343 498.2145 574.1343 499.1828 571.8509 C500.2679 568.9938 500.8938 566.2753 501.4684 563.275 C501.5758 562.7168 501.5758 562.7168 502.1188 559.8921 C502.336 558.7346 502.5533 557.577 502.777 556.3843 C502.8876 555.8133 502.8876 555.8133 503.447 552.9234 C504.6377 546.664 505.5544 540.4694 506.2145 534.1343 C506.6942 532.2796 507.1749 530.425 507.6755 528.5757 C508.6902 523.98 509.1728 519.2899 509.7497 514.6226 C510.2145 511.1343 510.2145 511.1343 510.7241 508.782 C511.6959 503.5357 511.6074 498.1653 511.768 492.8432 C511.7889 492.17 511.8099 491.4967 511.8315 490.8031 C512.3724 473.0793 512.3646 455.3538 512.3599 437.6233 C512.3597 432.7225 512.3653 427.8218 512.37 422.921 C512.3782 413.3738 512.381 403.8265 512.3816 394.2792 C512.3821 386.523 512.3841 378.7668 512.3873 371.0107 C512.3961 348.9735 512.4007 326.9362 512.4 304.899 C512.3999 303.7171 512.3999 302.5352 512.3998 301.3174 C512.3998 300.134 512.3998 298.9507 512.3997 297.7314 C512.3993 278.473 512.4089 259.2146 512.423 239.9561 C512.4373 220.1358 512.4443 200.3155 512.4434 180.4952 C512.4431 169.3849 512.4458 158.2746 512.4566 147.1642 C512.4656 137.7284 512.4679 128.2925 512.4611 118.8567 C512.4578 114.0438 512.4578 109.2309 512.4664 104.4181 C512.4742 100.0162 512.4729 95.6145 512.4641 91.2127 C512.4626 89.618 512.4644 88.0232 512.47 86.4285 C512.477 84.266 512.4718 82.1037 512.4634 79.9412 C512.4636 78.7387 512.4639 77.5362 512.4641 76.2973 C512.2126 73.1095 511.714 70.9487 510.2145 68.1343 C506.4797 65.6445 502.8629 65.1075 498.527 64.3218 C497.6128 64.153 496.6985 63.9841 495.7565 63.8101 C475.4738 60.1356 455.1264 57.151 434.6565 54.7618 C423.4421 53.4514 412.3902 51.8159 401.3278 49.5406 C394.8552 48.2555 388.4718 47.7608 381.8903 47.4781 C377.298 47.2037 372.7579 46.5901 368.1972 45.9995 C361.9284 45.1994 355.6492 44.5277 349.363 43.8804 C348.3254 43.7735 347.2879 43.6666 346.2189 43.5565 C341.9115 43.1143 337.6038 42.6752 333.2961 42.2361 C330.1099 41.9108 326.9239 41.5832 323.738 41.2554 C322.7692 41.1575 321.8004 41.0596 320.8023 40.9587 C316.2369 40.4886 311.7418 39.8941 307.2145 39.1343 C305.4874 39.0087 303.7577 38.9146 302.027 38.8531 C301.554 38.8344 301.554 38.8344 299.1599 38.7398 C298.1879 38.705 297.2159 38.6702 296.2145 38.6343 C294.2769 38.5649 292.3394 38.4921 290.402 38.4156 C289.55 38.3853 288.6979 38.355 287.82 38.3238 C285.2145 38.1343 285.2145 38.1343 282.4177 37.6595 C278.5495 37.0253 274.6831 36.7263 270.777 36.4507 C269.9577 36.391 269.1384 36.3312 268.2943 36.2697 C265.6013 36.0749 262.908 35.8853 260.2145 35.6968 C259.2784 35.6309 258.3423 35.5649 257.3777 35.4969 C230.4673 33.6084 203.5477 32.2492 176.5919 31.201 C174.4836 31.1188 172.3755 31.0352 170.2674 30.9497 C125.1122 29.1379 79.945 28.9882 34.7632 29.4709 Z " fill="#A8783A" transform="translate(434.7854595184326,11.865674495697021)"/>
<path d="M0 0 C3.6763 2.4508 4.4118 4.9705 5.875 8.9375 C6.4086 10.3157 6.9438 11.6933 7.4805 13.0703 C7.7413 13.7461 8.0022 14.4219 8.271 15.1182 C14.5455 31.3151 24.2176 45.5006 35 59 C36.1829 60.587 37.3658 62.1741 38.5449 63.7639 C46.4938 74.3908 55.3908 84.8488 66.1836 92.6602 C68.7138 94.5265 70.8092 96.7516 73 99 C74.8646 100.5781 76.7446 102.1326 78.6445 103.668 C78.8682 103.8878 78.8682 103.8878 80 105 C80 105.66 80 106.32 80 107 C80.7309 107.2462 81.4618 107.4924 82.2148 107.7461 C85.2993 109.1348 87.1275 110.7264 89.5625 113.0625 C95.0683 118.1599 100.937 122.5906 107 127 C107.9307 127.6806 108.8614 128.3613 109.8203 129.0625 C112.5424 131.0479 115.2709 133.0242 118 135 C119.7709 136.2915 121.5418 137.5832 123.3125 138.875 C134.162 146.7628 145.1089 154.5142 156.0781 162.2344 C158.3876 163.8601 160.6893 165.4944 162.9844 167.1406 C167.4414 170.3242 171.9179 173.1145 176.7422 175.7031 C179.1528 177.0877 181.3687 178.6267 183.625 180.25 C187.78 183.2225 192.0477 185.8956 196.4375 188.5 C204.9665 193.5638 213.3184 198.7952 221.4375 204.5 C227.4444 208.699 233.6074 212.4179 240 216 C240 216.66 240 217.32 240 218 C240.7245 218.2668 241.4489 218.5337 242.1953 218.8086 C244.9994 219.9997 247.3337 221.3881 249.875 223.0625 C254.3399 225.959 258.8599 228.7254 263.4375 231.4375 C271.8858 236.4672 280.0305 241.8921 288.0625 247.5625 C300.9456 256.6368 300.9456 256.6368 308 260 C308 260.66 308 261.32 308 262 C308.3648 262.1354 308.3648 262.1354 310.2109 262.8203 C312.9191 263.9658 315.1685 265.2666 317.625 266.875 C318.0994 267.1824 318.0994 267.1824 320.5 268.7383 C321.0414 269.0897 321.5828 269.4411 322.1406 269.8032 C326.7381 272.7624 331.3798 275.6529 336.0103 278.5601 C355.7302 290.9842 355.7302 290.9842 358 296.375 C358 301.8363 354.8602 306.5054 352 311 C351.34 311 350.68 311 350 311 C349.7641 311.6909 349.5282 312.3819 349.2852 313.0938 C347.7501 316.5651 345.6828 319.4669 343.4375 322.5 C340.718 326.1887 338.0453 329.8556 335.6562 333.7695 C335.2819 334.3651 334.9075 334.9606 334.5217 335.5742 C333.4943 337.2214 332.4943 338.8857 331.4961 340.5508 C328.4459 343.5437 326.5549 344.0569 322.3611 344.2678 C318.1596 343.7912 315.2039 341.7113 311.8125 339.3125 C311.4764 339.0885 311.4764 339.0885 309.7754 337.9551 C308.4587 337.0743 307.1499 336.1815 305.8501 335.2759 C304.0972 334.067 302.3116 332.9301 300.5117 331.793 C299.6829 331.2013 298.854 330.6096 298 330 C298 329.34 298 328.68 298 328 C297.2717 327.7357 296.5434 327.4715 295.793 327.1992 C292.983 325.9927 290.7869 324.5998 288.3125 322.8125 C287.4411 322.1912 286.5697 321.5698 285.6719 320.9297 C283.9515 319.6872 282.2326 318.4425 280.5156 317.1953 C276.2547 314.1421 272.0106 311.3928 267.375 308.9375 C263.2775 306.7652 259.6452 304.393 255.9922 301.5469 C248.7368 295.9132 240.9643 291.0127 233.2449 286.0503 C228.617 283.0682 224.072 280.0009 219.5859 276.8086 C216.2606 274.4829 212.8818 272.2424 209.5 270 C201.7751 264.8702 194.1745 259.5975 186.6875 254.125 C177.3541 247.3251 167.9397 240.8992 158.0703 234.9062 C152.1883 231.2543 146.5918 227.2432 141.125 223 C137.8947 220.5413 134.5241 218.5138 131 216.5 C125.1391 213.1467 119.9389 209.3631 114.6875 205.1406 C114.2956 204.8287 114.2956 204.8287 112.3125 203.25 C111.6074 202.6777 110.9023 202.1053 110.1758 201.5156 C108 200 108 200 105.418 198.9844 C102.875 197.9491 101.8471 196.9735 100 195 C98.437 193.8469 96.8514 192.7241 95.25 191.625 C92.1582 189.4946 89.0901 187.3457 86.0625 185.125 C83 183 83 183 80 182 C78.6541 180.6794 77.3224 179.3442 76 178 C74.3182 176.7347 72.6088 175.5055 70.875 174.3125 C70.0062 173.7105 69.1373 173.1085 68.2422 172.4883 C66 171 66 171 64 170 C64 169.34 64 168.68 64 168 C63.6352 167.8717 63.6352 167.8717 61.7891 167.2227 C58.8617 165.9394 56.8319 164.4712 54.375 162.4375 C53.5049 161.7208 52.6348 161.0041 51.7383 160.2656 C51.2865 159.8918 51.2865 159.8918 49 158 C48.1067 157.2936 47.2134 156.5872 46.293 155.8594 C35.6286 147.3767 26.7031 138.2419 19 127 C18.4173 126.2124 17.8347 125.4248 17.2344 124.6133 C7.5032 111.3535 0.2673 96.1719 -3 80 C-3.1231 79.409 -3.1231 79.409 -3.7461 76.418 C-7.7691 56.5154 -7.6541 36.625 -6.125 16.4375 C-6.0466 15.3608 -5.9682 14.2841 -5.8875 13.1748 C-5.8034 12.1671 -5.7194 11.1594 -5.6328 10.1211 C-5.5595 9.2283 -5.4862 8.3356 -5.4106 7.4158 C-4.9796 4.8802 -4.4144 3.1469 -3 1 C-2.01 0.67 -1.02 0.34 0 0 Z " fill="#A8783A" transform="translate(147,346)"/>
<path d="M0 0 C5.7195 0.3895 9.1193 2.0309 13.4375 5.625 C14.0053 6.0794 14.5732 6.5338 15.1582 7.002 C18.8071 9.9435 22.3365 13.0106 25.8281 16.1367 C28.729 18.6254 31.7277 20.9737 34.75 23.3125 C35.0278 23.5291 35.0278 23.5291 36.4336 24.625 C39.196 26.7453 41.8941 28.4538 45 30 C46.0161 30.9836 47.0151 31.9851 48 33 C52.6435 36.5189 57.4738 39.7432 62.5 42.6875 C72.3846 48.5057 81.8944 55.058 91.25 61.6875 C96.2887 65.2555 101.4885 68.5579 106.6914 71.8789 C109.3138 73.5601 111.9151 75.2623 114.5 77 C119.9982 80.6892 125.5813 84.2464 131.1562 87.8179 C132.9804 88.9874 134.803 90.1592 136.625 91.332 C137.2155 91.7121 137.8059 92.0921 138.4143 92.4836 C139.5932 93.2425 140.7721 94.0014 141.9509 94.7605 C145.5386 97.0682 149.141 99.351 152.75 101.625 C157.1239 104.4019 161.374 107.3225 165.6016 110.3164 C167.8786 111.9148 170.1797 113.4654 172.5 115 C175.5399 117.0108 178.5298 119.0753 181.5 121.1875 C194.057 130.0025 207.1642 138.0127 220.2227 146.0547 C221.022 146.5494 221.8214 147.044 222.645 147.5537 C224.222 148.5222 225.8064 149.4785 227.3979 150.4229 C228.1316 150.8634 228.8652 151.3039 229.6211 151.7578 C229.9475 151.9506 229.9475 151.9506 231.5994 152.9263 C232.0616 153.2806 232.5238 153.6349 233 154 C233 154.66 233 155.32 233 156 C233.7283 156.2643 234.4566 156.5285 235.207 156.8008 C238.017 158.0073 240.2131 159.4002 242.6875 161.1875 C243.5589 161.8101 244.4303 162.4327 245.3281 163.0742 C246.2098 163.7097 247.0916 164.3452 248 165 C254.0185 169.2868 260.1123 173.3875 266.3633 177.3281 C269.4258 179.27 272.4435 181.2705 275.4531 183.293 C277.3958 184.5951 279.3449 185.8876 281.2969 187.1758 C288.8163 192.1428 296.2286 197.2388 303.5764 202.4563 C308.5014 205.9512 313.4561 209.3986 318.4375 212.8125 C329.2399 220.2191 329.2399 220.2191 333.6172 223.3203 C335.3801 224.563 337.1587 225.7837 338.9453 226.9922 C339.439 227.3338 339.439 227.3338 341.9375 229.0625 C342.8334 229.6722 343.7293 230.282 344.6523 230.9102 C348.5682 234.396 350.1046 238.1655 350.5007 243.3271 C350.5716 245.004 350.6264 246.6816 350.668 248.3594 C350.7004 249.2727 350.7328 250.1859 350.7662 251.1269 C350.8632 254.0844 350.9352 257.0416 351 260 C351.0231 260.984 351.0461 261.9679 351.0699 262.9817 C351.2025 269.0447 351.2714 275.106 351.2952 281.1704 C351.3068 283.245 351.3275 285.3196 351.3567 287.394 C351.3994 290.4556 351.4155 293.5163 351.4258 296.5781 C351.4433 297.4939 351.4608 298.4096 351.4788 299.3531 C351.4575 305.72 350.0068 310.398 347 316 C337.016 314.4841 327.4208 305.5341 320.5625 298.5 C317.1035 295.1253 313.2007 292.5125 309.2305 289.7695 C308.4944 289.1856 307.7584 288.6016 307 288 C307 287.34 307 286.68 307 286 C306.6494 285.8859 306.6494 285.8859 304.875 285.3086 C301.4234 283.7376 298.8193 281.5419 296 279.0625 C292.497 276.0085 289.029 273.3362 285 271 C282.8795 269.5392 280.778 268.0649 278.6875 266.5625 C278.387 266.3477 278.387 266.3477 276.8662 265.2607 C272.0999 261.8359 267.4232 258.3003 262.75 254.75 C258.5902 251.5918 254.4955 248.57 249.9375 246 C245.6413 243.5491 241.9374 240.6262 238.125 237.5 C231.3861 231.9748 224.3661 226.9611 217.2004 222.0063 C212.672 218.8732 208.1976 215.706 203.8125 212.375 C192.528 203.8039 180.8385 195.7829 169 188 C162.0393 183.4218 155.1872 178.7344 148.4333 173.8586 C144.0861 170.7357 139.6589 167.7543 135.1875 164.8125 C130.3285 161.6144 125.6966 158.2753 121.1562 154.6328 C118.7692 152.8252 116.2971 151.2611 113.75 149.6875 C107.7578 145.9486 102.2372 141.686 96.6924 137.3291 C93.8045 135.0611 90.9036 132.8103 88 130.5625 C86.9688 129.7594 85.9375 128.9563 84.875 128.1289 C82 126 82 126 79.6016 124.5938 C73.6174 120.9278 68.3401 116.1147 62.958 111.6309 C61.2887 110.2405 59.6101 108.8612 57.9297 107.4844 C49.9715 100.663 43.956 92.5585 38 84 C37.5065 83.2912 37.0129 82.5824 36.5044 81.8521 C32.2558 75.6222 28.6923 69.1067 25.1445 62.4609 C22.9056 58.3166 20.6015 54.3439 17.9141 50.4727 C14.8862 46.0247 12.8426 41.4293 10.875 36.4375 C9.0193 31.8207 7.1777 27.2529 4.9023 22.8242 C3.1656 19.4239 1.8373 16.0242 0.6875 12.375 C0.3407 11.3102 -0.006 10.2455 -0.3633 9.1484 C-1.0515 5.7455 -0.7816 3.3583 0 0 Z " fill="#A8783A" transform="translate(144,532)"/>
</svg>
