<?xml version="1.0" encoding="UTF-8"?>
<!-- Generator: visioncortex VTracer 0.6.12 -->
<svg version="1.1" xmlns="http://www.w3.org/2000/svg" width="1202" height="641">
<path d="M0 0 C1.1213 0.0193 2.2426 0.0387 3.3979 0.0586 C117.9817 2.2896 117.9817 2.2896 160 24 C160.0703 47.3058 160.1231 70.6117 160.1554 93.9176 C160.1709 104.7404 160.1919 115.5632 160.2263 126.386 C160.2563 135.8258 160.2756 145.2656 160.2823 154.7055 C160.2862 159.6978 160.2952 164.6899 160.3172 169.6821 C160.3378 174.3943 160.3438 179.1063 160.3393 183.8185 C160.3401 185.5352 160.346 187.2519 160.3576 188.9686 C160.4576 204.4907 158.5112 219.0598 153.4375 233.8125 C153.0953 234.8202 152.753 235.8279 152.4004 236.8662 C140.4074 270.9894 116.4923 300.0577 88 322 C87.5102 322.3867 87.5102 322.3867 85.0312 324.3438 C62.7798 341.8265 38.7863 356.413 14 370 C12.8932 370.6107 11.7864 371.2214 10.646 371.8506 C7.2537 373.7123 3.8484 375.5475 0.4375 377.375 C-0.6153 377.9531 -1.6682 378.5313 -2.7529 379.127 C-3.7433 379.6497 -4.7336 380.1724 -5.7539 380.7109 C-6.6235 381.1781 -7.493 381.6452 -8.3889 382.1265 C-12.485 383.4968 -15.5525 382.6031 -19.4592 380.9753 C-20.2577 380.5542 -21.0562 380.1331 -21.8789 379.6992 C-22.7889 379.2232 -23.6989 378.7471 -24.6365 378.2566 C-25.6021 377.7388 -26.5677 377.221 -27.5625 376.6875 C-28.0708 376.418 -28.0708 376.418 -30.6428 375.054 C-61.6836 358.4894 -92.0228 340.2658 -119.0359 317.6157 C-120.4527 316.4502 -121.8875 315.3066 -123.3333 314.1772 C-129.6048 309.277 -135.3305 304.0202 -140.9375 298.375 C-141.8107 297.4962 -142.6839 296.6174 -143.5835 295.7119 C-161.5673 277.3901 -175.5358 255.8124 -183.8125 231.4375 C-184.0905 230.6239 -184.3686 229.8102 -184.655 228.9719 C-189.1633 215.0545 -190.4374 202.0075 -190.3406 187.4983 C-190.3397 185.6931 -190.3402 183.888 -190.3419 182.0829 C-190.3428 177.2305 -190.3252 172.3784 -190.3042 167.5261 C-190.2853 162.4372 -190.2837 157.3484 -190.2801 152.2595 C-190.2708 142.6445 -190.2463 133.0296 -190.2161 123.4147 C-190.1824 112.4593 -190.166 101.5039 -190.151 90.5485 C-190.1197 68.0323 -190.067 45.5161 -190 23 C-186.21 22.0422 -182.4191 21.0883 -178.6279 20.135 C-177.5674 19.8669 -176.5069 19.5989 -175.4143 19.3227 C-165.7466 16.8953 -156.0366 14.8206 -146.25 12.9375 C-145.3906 12.7705 -144.5311 12.6034 -143.6457 12.4313 C-125.5187 8.9241 -107.3213 6.2512 -89 4 C-88.0617 3.8793 -87.1234 3.7586 -86.1567 3.6343 C-57.7761 0.0191 -28.5672 -0.5615 0 0 Z M47 43 C51 44 51 44 51 44 Z M55 44 C55 44.33 55 44.66 55 45 C56.65 45 58.3 45 60 45 C60 44.67 60 44.34 60 44 C58.35 44 56.7 44 55 44 Z " fill="#0C2941" transform="translate(600,12)"/>
<path d="M0 0 C0.6437 0.0559 1.2873 0.1117 1.9505 0.1693 C73.4621 6.4621 73.4621 6.4621 83 16 C83.1003 18.3612 83.1362 20.6932 83.1294 23.0549 C83.1303 23.4241 83.1303 23.4241 83.1347 25.2923 C83.1391 27.7483 83.1362 30.2042 83.1328 32.6602 C83.1335 34.3659 83.1345 36.0717 83.1357 37.7775 C83.1372 41.363 83.135 44.9484 83.1304 48.5339 C83.1247 53.1147 83.1279 57.6954 83.1339 62.2761 C83.1376 65.8047 83.1364 69.3333 83.1338 72.8619 C83.1332 74.5495 83.134 76.2371 83.1363 77.9246 C83.1389 80.2962 83.1349 82.6677 83.1294 85.0393 C83.1314 85.729 83.1334 86.4187 83.1355 87.1292 C83.1153 91.8385 82.6536 96.3463 82 101 C78.0663 99.6888 77.7226 98.2107 75.75 94.625 C69.4047 83.4048 62.5323 71.3358 53.2031 62.25 C52 61 52 61 52 59 C51.34 59 50.68 59 50 59 C48.31 57.357 46.6478 55.6853 45 54 C43.905 53.093 42.8009 52.1969 41.6875 51.3125 C41.2441 50.9309 41.2441 50.9309 39 49 C39 48.34 39 47.68 39 47 C38.4895 46.7667 37.9791 46.5334 37.4531 46.293 C34.7865 44.8875 32.2959 43.2708 29.7737 41.6235 C7.0445 26.8985 -18.9001 19.2141 -46 25 C-55.2966 27.6966 -63.3467 32.227 -68.4375 40.6875 C-72.146 48.5495 -72.5437 58.0842 -69.9414 66.3711 C-60.3729 86.7269 -36.5211 95.8079 -17.4375 105.25 C-11.1542 108.361 -5.0743 111.4921 0.375 115.9375 C3.6422 118.5046 7.1592 120.4327 10.793 122.4375 C13.1613 124.1142 13.9687 125.3267 15 128 C15.99 128 16.98 128 18 128 C21.0595 116.8315 17.3916 106.2117 12.1875 96.25 C9.6376 91.8006 6.6969 87.8126 3.418 83.875 C2 82 2 82 1 79 C0.34 79 -0.32 79 -1 79 C-2.1953 77.8388 -3.3858 76.6721 -4.5508 75.4805 C-5.029 74.9919 -5.5073 74.5034 -6 74 C-6.4473 73.5424 -6.8946 73.0848 -7.3555 72.6133 C-16.1656 64.3467 -27.6016 59.6156 -39.1719 56.7891 C-42 56 -42 56 -45 54 C-43.3653 50.2227 -41.533 48.5012 -37.7109 46.7695 C-22.9132 42.569 -7.7018 48.0581 5.1875 55.1875 C29.5891 69.3063 48.9984 91.0441 56.6328 118.5625 C64.8005 150.67 61.6063 182.0819 45 211 C40.3763 218.6271 34.9632 225.4835 28.8477 231.9766 C27 234 27 234 25 237 C24.01 236.67 23.02 236.34 22 236 C22.1601 235.2839 22.3202 234.5679 22.4851 233.8301 C25.4412 217.5823 23.7775 200.3852 14.7578 186.4023 C1.1322 167.7807 -18.2293 156.0565 -38 145 C-39.0066 144.437 -40.0132 143.874 -41.0503 143.2939 C-45.366 140.8819 -49.6824 138.4713 -53.9988 136.0605 C-62.0972 131.5282 -70.1424 126.94 -78 122 C-78.6149 121.6142 -79.2298 121.2285 -79.8633 120.8311 C-97.9191 109.4036 -117.4291 95.1343 -122.5664 73.1172 C-124.8392 56.7778 -122.0275 43.1615 -112.2891 29.6211 C-96.899 10.9518 -71.927 3.1696 -48.6948 0.6401 C-32.3727 -0.8382 -16.3307 -1.423 0 0 Z M15 3 C19 4 19 4 19 4 Z M23 4 C23 4.33 23 4.66 23 5 C24.65 5 26.3 5 28 5 C28 4.67 28 4.34 28 4 C26.35 4 24.7 4 23 4 Z " fill="#C4954E" transform="translate(632,52)"/>
<path d="M0 0 C1.1213 0.0193 2.2426 0.0387 3.3979 0.0586 C117.9817 2.2896 117.9817 2.2896 160 24 C160.0703 47.3058 160.1231 70.6117 160.1554 93.9176 C160.1709 104.7404 160.1919 115.5632 160.2263 126.386 C160.2563 135.8258 160.2756 145.2656 160.2823 154.7055 C160.2862 159.6978 160.2952 164.6899 160.3172 169.6821 C160.3378 174.3943 160.3438 179.1063 160.3393 183.8185 C160.3401 185.5352 160.346 187.2519 160.3576 188.9686 C160.4576 204.4907 158.5112 219.0598 153.4375 233.8125 C153.0953 234.8202 152.753 235.8279 152.4004 236.8662 C140.4074 270.9894 116.4923 300.0577 88 322 C87.5102 322.3867 87.5102 322.3867 85.0312 324.3438 C62.7798 341.8265 38.7863 356.413 14 370 C12.8932 370.6107 11.7864 371.2214 10.646 371.8506 C7.2537 373.7123 3.8484 375.5475 0.4375 377.375 C-0.6153 377.9531 -1.6682 378.5313 -2.7529 379.127 C-3.7433 379.6497 -4.7336 380.1724 -5.7539 380.7109 C-6.6235 381.1781 -7.493 381.6452 -8.3889 382.1265 C-12.485 383.4968 -15.5525 382.6031 -19.4592 380.9753 C-20.2577 380.5542 -21.0562 380.1331 -21.8789 379.6992 C-22.7889 379.2232 -23.6989 378.7471 -24.6365 378.2566 C-25.6021 377.7388 -26.5677 377.221 -27.5625 376.6875 C-28.0708 376.418 -28.0708 376.418 -30.6428 375.054 C-61.6836 358.4894 -92.0228 340.2658 -119.0359 317.6157 C-120.4527 316.4502 -121.8875 315.3066 -123.3333 314.1772 C-129.6048 309.277 -135.3305 304.0202 -140.9375 298.375 C-141.8107 297.4962 -142.6839 296.6174 -143.5835 295.7119 C-161.5673 277.3901 -175.5358 255.8124 -183.8125 231.4375 C-184.0905 230.6239 -184.3686 229.8102 -184.655 228.9719 C-189.1633 215.0545 -190.4374 202.0075 -190.3406 187.4983 C-190.3397 185.6931 -190.3402 183.888 -190.3419 182.0829 C-190.3428 177.2305 -190.3252 172.3784 -190.3042 167.5261 C-190.2853 162.4372 -190.2837 157.3484 -190.2801 152.2595 C-190.2708 142.6445 -190.2463 133.0296 -190.2161 123.4147 C-190.1824 112.4593 -190.166 101.5039 -190.151 90.5485 C-190.1197 68.0323 -190.067 45.5161 -190 23 C-186.21 22.0422 -182.4191 21.0883 -178.6279 20.135 C-177.5674 19.8669 -176.5069 19.5989 -175.4143 19.3227 C-165.7466 16.8953 -156.0366 14.8206 -146.25 12.9375 C-145.3906 12.7705 -144.5311 12.6034 -143.6457 12.4313 C-125.5187 8.9241 -107.3213 6.2512 -89 4 C-88.0617 3.8793 -87.1234 3.7586 -86.1567 3.6343 C-57.7761 0.0191 -28.5672 -0.5615 0 0 Z M-150.9453 31.9141 C-151.7872 32.0796 -152.6291 32.2451 -153.4966 32.4157 C-158.1349 33.3508 -162.7263 34.4121 -167.3149 35.568 C-167.8491 35.7023 -167.8491 35.7023 -170.5521 36.382 C-170.956 36.484 -170.956 36.484 -173 37 C-173.0469 57.4547 -173.0821 77.9094 -173.1036 98.3641 C-173.1139 107.863 -173.1279 117.3619 -173.1509 126.8608 C-173.1709 135.1467 -173.1837 143.4325 -173.1882 151.7183 C-173.1908 156.0996 -173.1968 160.4809 -173.2115 164.8622 C-173.2252 168.999 -173.2292 173.1356 -173.2262 177.2724 C-173.2268 178.7783 -173.2306 180.2842 -173.2384 181.79 C-173.4075 216.3052 -162.8459 244.6306 -142 272 C-141.0011 273.0011 -140.0016 274.0016 -139 275 C-138.8556 275.6806 -138.7113 276.3612 -138.5625 277.0625 C-138.3769 277.7019 -138.1912 278.3413 -138 279 C-137.7216 279.1276 -137.7216 279.1276 -136.3125 279.7734 C-133.1182 281.4677 -130.9046 283.975 -128.4375 286.5625 C-122.9525 292.1722 -117.1609 297.1365 -111 302 C-109.8798 302.9198 -108.7614 303.8417 -107.6445 304.7656 C-82.9987 325.0333 -55.1457 341.4381 -27.125 356.5625 C-25.9764 357.183 -24.8277 357.8035 -23.6443 358.4429 C-22.568 359.0199 -21.4917 359.5969 -20.3828 360.1914 C-19.4175 360.709 -18.4521 361.2267 -17.4575 361.76 C-15 363 -15 363 -12 364 C-9.7136 363.1265 -9.7136 363.1265 -7.0117 361.7109 C-6.0068 361.1885 -5.0019 360.666 -3.9666 360.1277 C-2.8845 359.5493 -1.8024 358.9709 -0.6875 358.375 C0.4339 357.7818 1.5553 357.1886 2.7107 356.5774 C28.0628 343.0492 52.3249 327.6722 75 310 C75.9152 309.2975 76.8305 308.5949 77.7734 307.8711 C83.9935 303.0148 89.8313 297.7623 95.5669 292.3496 C96.8784 291.1145 98.2023 289.8925 99.5273 288.6719 C111.1154 277.6284 120.8575 264.315 128 250 C128.3387 249.3239 128.6774 248.6478 129.0264 247.9512 C143.3903 218.7468 143.3151 188.6456 143.2028 156.7728 C143.1901 152.5462 143.1891 148.3195 143.1867 144.0929 C143.1806 136.1286 143.1642 128.1643 143.144 120.2 C143.1215 111.1162 143.1106 102.0324 143.1006 92.9486 C143.0799 74.2991 143.0448 55.6495 143 37 C140.4613 36.3593 137.9222 35.7201 135.3828 35.0818 C135.0269 34.9919 135.0269 34.9919 133.2258 34.5369 C127.1849 33.0205 121.1206 31.7181 115 30.5625 C114.4569 30.4595 114.4569 30.4595 111.7087 29.938 C26.1927 14.0081 -59.785 14.3781 -150.9453 31.9141 Z " fill="#C4944D" transform="translate(600,12)"/>
<path d="M0 0 C1.2472 0.0045 2.4943 0.009 3.7793 0.0137 C6.8321 0.0254 9.8848 0.0418 12.9375 0.0625 C12.9375 0.3925 12.9375 0.7225 12.9375 1.0625 C12.0564 1.122 11.1754 1.1814 10.2676 1.2427 C-33.6796 4.3099 -77.3506 11.184 -120.0625 22.0625 C-119.1808 21.855 -118.2991 21.6474 -117.3906 21.4336 C-106.8905 19.0122 -96.3342 16.8753 -85.7621 14.7952 C-84.1335 14.4743 -82.5053 14.1514 -80.8776 13.8266 C-78.5497 13.363 -76.2204 12.907 -73.8906 12.4531 C-73.1911 12.3127 -72.4917 12.1722 -71.771 12.0275 C-67.8116 11.2667 -64.0921 10.923 -60.0625 11.0625 C-60.3925 12.7125 -60.7225 14.3625 -61.0625 16.0625 C-61.7225 16.0625 -62.3825 16.0625 -63.0625 16.0625 C-63.0625 17.0525 -63.0625 18.0425 -63.0625 19.0625 C-65.0625 18.0625 -65.0625 18.0625 -68.0625 16.0625 C-68.6606 16.4131 -69.2588 16.7638 -69.875 17.125 C-72.0625 18.0625 -72.0625 18.0625 -75.0625 17.0625 C-75.3925 18.3825 -75.7225 19.7025 -76.0625 21.0625 C-75.0725 22.0525 -74.0825 23.0425 -73.0625 24.0625 C-75.8737 24.7145 -78.6863 25.3592 -81.5 26 C-82.2831 26.1824 -83.0662 26.3648 -83.873 26.5527 C-88.6273 27.6288 -93.2912 28.3925 -98.1492 28.8125 C-100.6498 29.1392 -102.7661 30.0494 -105.0625 31.0625 C-106.0525 31.0625 -107.0425 31.0625 -108.0625 31.0625 C-107.7325 31.3925 -107.4025 31.7225 -107.0625 32.0625 C-104.9843 31.7199 -102.9198 31.2946 -100.8633 30.8398 C-99.5157 30.5481 -98.1681 30.2568 -96.8203 29.9661 C-96.0988 29.8087 -95.3772 29.6513 -94.6338 29.4892 C-67.5899 23.6325 -40.4238 19.3564 -12.875 16.75 C-12.0158 16.6686 -11.1567 16.5872 -10.2715 16.5033 C10.7221 14.5465 31.6032 13.823 52.6875 13.8125 C53.3014 13.8122 53.3014 13.8122 56.4084 13.8105 C106.9571 13.8543 157.8917 19.5056 206.9375 32.0625 C206.9375 32.3925 206.9375 32.7225 206.9375 33.0625 C199.1261 32.3547 191.5581 30.8635 183.875 29.3125 C102.321 13.1576 18.2654 11.0542 -99.4165 33.1868 C-103.0625 34.0625 -103.0625 34.0625 -107.0625 34.0625 C-106.9784 54.5173 -106.8831 74.9719 -106.775 95.4266 C-106.725 104.9255 -106.6786 114.4244 -106.6406 123.9233 C-106.6075 132.2092 -106.5676 140.495 -106.5197 148.7808 C-106.4946 153.1621 -106.4728 157.5433 -106.4592 161.9247 C-106.4462 166.0615 -106.424 170.1982 -106.3951 174.3349 C-106.3862 175.8408 -106.3804 177.3467 -106.3783 178.8525 C-106.3217 213.3994 -95.953 241.6346 -75.0625 269.0625 C-74.4902 269.6284 -73.9178 270.1943 -73.3281 270.7773 C-72.0625 272.0625 -72.0625 272.0625 -71.0625 275.0625 C-69.7148 276.3867 -69.7148 276.3867 -68 277.75 C-65.2707 279.9977 -62.7691 282.3323 -60.3125 284.875 C-55.5545 289.6876 -50.3441 293.8426 -45.0625 298.0625 C-43.9376 298.9882 -42.814 299.9153 -41.6914 300.8438 C-31.9018 308.8828 -21.602 316.0441 -11.0625 323.0625 C-11.7225 323.3925 -12.3825 323.7225 -13.0625 324.0625 C-13.7225 323.7325 -14.3825 323.4025 -15.0625 323.0625 C-15.0625 323.7225 -15.0625 324.3825 -15.0625 325.0625 C-14.3986 325.2868 -13.7348 325.5111 -13.0508 325.7422 C-9.1375 327.4712 -5.7743 329.7795 -2.25 332.1875 C-1.5571 332.6554 -0.8643 333.1234 -0.1504 333.6055 C1.5484 334.7536 3.2433 335.9075 4.9375 337.0625 C4.2775 337.3925 3.6175 337.7225 2.9375 338.0625 C2.6075 339.0525 2.2775 340.0425 1.9375 341.0625 C-1.3625 341.7225 -4.6625 342.3825 -8.0625 343.0625 C6.4225 351.7479 21.0264 360.1298 35.9375 368.0625 C36.7411 368.4956 37.5446 368.9287 38.3726 369.375 C40.5738 370.5576 42.7843 371.7199 45 372.875 C45.3183 373.047 45.3183 373.047 46.9292 373.9172 C50.8066 375.895 52.7917 376.2025 56.9375 375.0625 C58.5932 374.3746 60.2246 373.6263 61.832 372.832 C62.3037 372.599 62.3037 372.599 64.6907 371.4199 C65.1955 371.165 65.1955 371.165 67.75 369.875 C68.8066 369.3433 69.8633 368.8115 70.9519 368.2637 C100.5922 353.1506 129.1685 335.1463 154.9375 314.0625 C155.5053 313.5991 156.0732 313.1357 156.6582 312.6582 C179.8298 293.6141 198.3187 271.9023 210.4771 244.2803 C212.7484 239.157 212.7484 239.157 214.9375 238.0625 C214.509 244.6145 212.0282 249.4612 208.9375 255.1875 C208.689 255.6529 208.689 255.6529 207.4316 258.0078 C194.5558 281.7482 175.4032 302.7306 153.9375 319.0625 C152.9617 319.8321 151.9859 320.6016 150.9805 321.3945 C128.7333 338.8896 104.7268 353.4738 79.9375 367.0625 C78.8307 367.6732 77.7239 368.2839 76.5835 368.9131 C73.1912 370.7748 69.7859 372.61 66.375 374.4375 C65.3222 375.0156 64.2693 375.5938 63.1846 376.1895 C62.1942 376.7122 61.2039 377.2349 60.1836 377.7734 C59.314 378.2406 58.4445 378.7077 57.5486 379.189 C53.4525 380.5593 50.385 379.6656 46.4783 378.0378 C45.6798 377.6167 44.8813 377.1956 44.0586 376.7617 C43.1486 376.2857 42.2386 375.8096 41.301 375.3191 C40.3354 374.8013 39.3698 374.2835 38.375 373.75 C37.8667 373.4805 37.8667 373.4805 35.2947 372.1165 C4.2539 355.5519 -26.0853 337.3283 -53.0984 314.6782 C-54.5152 313.5127 -55.95 312.3691 -57.3958 311.2397 C-63.6673 306.3395 -69.393 301.0827 -75 295.4375 C-75.8732 294.5587 -76.7464 293.6799 -77.646 292.7744 C-95.6298 274.4526 -109.5983 252.8749 -117.875 228.5 C-118.153 227.6864 -118.4311 226.8727 -118.7175 226.0344 C-123.2258 212.117 -124.4999 199.07 -124.4031 184.5608 C-124.4022 182.7556 -124.4027 180.9505 -124.4044 179.1454 C-124.4053 174.293 -124.3877 169.4409 -124.3667 164.5886 C-124.3478 159.4997 -124.3462 154.4109 -124.3426 149.322 C-124.3333 139.707 -124.3088 130.0921 -124.2786 120.4772 C-124.2449 109.5218 -124.2285 98.5664 -124.2135 87.611 C-124.1822 65.0948 -124.1295 42.5786 -124.0625 20.0625 C-120.2725 19.1047 -116.4816 18.1508 -112.6904 17.1975 C-111.6299 16.9294 -110.5694 16.6614 -109.4768 16.3852 C-99.809 13.9578 -90.0989 11.8843 -80.3125 10 C-79.4567 9.8333 -78.6009 9.6666 -77.7192 9.4948 C-59.5939 5.9787 -41.3814 3.3354 -23.0625 1.0625 C-22.651 1.0054 -22.651 1.0054 -20.5686 0.7166 C-13.7301 -0.1805 -6.8861 -0.0476 0 0 Z " fill="#AA7B3C" transform="translate(534.0625,14.9375)"/>
<path d="M0 0 C15.84 0 31.68 0 48 0 C48 1.32 48 2.64 48 4 C47.681 4.1154 47.681 4.1154 46.0664 4.6992 C45.2401 5.0254 44.4138 5.3515 43.5625 5.6875 C42.7388 6.0007 41.9151 6.314 41.0664 6.6367 C39 8 39 8 38.2234 10.1858 C37.9321 13.8559 38.9042 16.0142 40.3594 19.3906 C40.4896 19.6975 40.4896 19.6975 41.1484 21.2504 C42.0031 23.2559 42.8763 25.2527 43.75 27.25 C44.3453 28.6375 44.9394 30.0256 45.5325 31.4141 C49.7853 41.338 54.1315 51.2258 58.5713 61.0674 C60.777 65.9971 62.6961 70.7552 64 76 C64.66 76 65.32 76 66 76 C66.0432 75.6713 66.0432 75.6713 66.2617 74.0078 C67.2456 69.9996 68.996 66.5671 70.8125 62.875 C71.6175 61.187 72.4208 59.4981 73.2227 57.8086 C74.683 54.7426 76.1549 51.6836 77.6479 48.6333 C79.3789 45.0817 81.0665 41.5118 82.75 37.9375 C83.3118 36.8088 83.8736 35.68 84.4524 34.5171 C86.9692 29.0921 88.6557 25.3328 86.9297 19.4336 C86.3304 17.9374 85.6897 16.4568 85 15 C84.8705 14.6668 84.8705 14.6668 84.2153 12.9807 C81.9532 7.9853 78.6754 6.4975 73.8281 4.6289 C73.2248 4.4214 72.6216 4.2138 72 4 C72.33 2.68 72.66 1.36 73 0 C88.18 0 103.36 0 119 0 C119.165 0.66 119.165 0.66 120 4 C117.03 4.99 114.06 5.98 111 7 C109.6891 12.7856 110.5237 16.5181 112.9258 21.7812 C113.2436 22.5132 113.5615 23.2451 113.889 23.9991 C114.9102 26.3401 115.9545 28.6698 117 31 C117.6739 32.5345 118.3462 34.0696 119.0171 35.6055 C121.051 40.2473 123.1173 44.8743 125.1875 49.5 C125.8928 51.0806 126.5979 52.6614 127.3027 54.2422 C127.987 55.776 128.6712 57.3099 129.3555 58.8438 C129.6804 59.5724 130.0053 60.301 130.3401 61.0518 C131.6766 64.0467 133.0177 67.0389 134.3774 70.0234 C137 75.7965 137 75.7965 137 78 C137.66 78 138.32 78 139 78 C139.1279 77.5873 139.1279 77.5873 139.7751 75.4985 C141.1586 71.5469 142.8315 67.8153 144.5977 64.0234 C144.9483 63.264 145.299 62.5045 145.6603 61.722 C146.4071 60.1052 147.1552 58.489 147.9046 56.8733 C149.0685 54.362 150.2273 51.8482 151.3845 49.3337 C154.6125 42.3216 157.8487 35.3139 161.125 28.3242 C161.9377 26.5704 162.7502 24.8165 163.5625 23.0625 C163.744 22.6828 163.744 22.6828 164.6624 20.7612 C166.5435 16.672 167.3879 13.5062 167 9 C163.7549 6.9602 160.5939 5.3349 157 4 C157 2.68 157 1.36 157 0 C168.55 0 180.1 0 192 0 C192.33 1.32 192.66 2.64 193 4 C192.2726 4.2478 191.5453 4.4956 190.7959 4.751 C182.8253 7.8443 179.7425 11.0752 176.25 18.75 C176.0062 19.2498 176.0062 19.2498 174.7722 21.7788 C173.138 25.1671 171.5648 28.5791 170 32 C169.4279 33.2369 168.8551 34.4736 168.2817 35.71 C164.8234 43.1804 161.4318 50.6798 158.063 58.191 C154.377 66.4025 150.638 74.5897 146.8858 82.7712 C145.77 85.2064 144.658 87.6435 143.5461 90.0806 C142.8591 91.5799 142.1719 93.079 141.4844 94.5781 C141.1756 95.2569 140.8669 95.9356 140.5488 96.6349 C138.894 100.2308 137.1096 103.65 135 107 C132.36 107 129.72 107 127 107 C121.2785 95.7532 115.8452 84.3899 110.5535 72.9351 C109.3068 70.2376 108.055 67.5425 106.8027 64.8477 C102.9938 56.6298 99.2339 48.4204 95.864 40.0107 C95 38 95 38 94 37 C91.8428 41.6816 89.687 46.3639 87.5325 51.0467 C86.7624 52.7205 85.9921 54.3942 85.2216 56.0678 C81.0529 65.1254 76.9 74.1892 72.8242 83.2891 C72.5019 84.0079 72.1795 84.7266 71.8474 85.4672 C70.323 88.8675 68.8039 92.27 67.2925 95.676 C67.0231 96.278 67.0231 96.278 65.6602 99.3242 C65.4262 99.8506 65.4262 99.8506 64.2424 102.5144 C63 105 63 105 61 107 C58.3116 107.2699 55.7086 107.0874 53 107 C49.3704 99.1159 45.9014 91.1723 42.5 83.1875 C41.438 80.7029 40.3756 78.2185 39.3125 75.7344 C39.0406 75.0989 38.7688 74.4634 38.4886 73.8087 C34.1746 63.7294 29.825 53.6656 25.4442 43.6151 C24.0654 40.4512 22.6905 37.2858 21.3237 34.1167 C19.7055 30.3648 18.0721 26.6198 16.4375 22.875 C15.9489 21.7367 15.4604 20.5984 14.957 19.4255 C14.4955 18.375 14.0341 17.3245 13.5586 16.2422 C13.1595 15.3229 12.7605 14.4037 12.3494 13.4565 C10.0245 9.2242 7.3129 6.771 2.75 5.25 C1.5125 4.8375 0.275 4.425 -1 4 C-0.67 2.68 -0.34 1.36 0 0 Z " fill="#0C2942" transform="translate(654,441)"/>
<path d="M0 0 C11.0681 11.6736 13.6462 25.4232 13.3438 40.8789 C12.6937 55.9818 5.3892 66.5937 -5.2461 76.8125 C-21.7277 90.8787 -42.1276 93.164 -62.9648 92.1328 C-80.6949 90.4766 -95.8108 81.904 -107.2148 68.4766 C-116.823 55.6086 -118.6547 40.2854 -116.4961 24.7617 C-113.3453 10.3393 -104.8331 -1.2467 -92.582 -9.3086 C-62.8134 -27.0365 -25.273 -24.0169 0 0 Z M-82.1523 0.1953 C-91.3054 11.1286 -93.5823 25.3366 -92.8398 39.2578 C-91.5419 50.2381 -88.3489 60.0846 -81.9648 69.1328 C-81.2223 70.2053 -80.4798 71.2778 -79.7148 72.3828 C-72.3395 79.7582 -63.5214 83.3154 -53.1521 83.5139 C-40.516 83.4823 -31.615 81.863 -22.1953 72.7578 C-13.8311 62.9141 -11.573 51.3672 -11.6523 38.8203 C-11.6573 37.8982 -11.6622 36.9761 -11.6672 36.0261 C-11.8976 22.5917 -15.7824 9.3161 -24.9648 -0.8672 C-34.2318 -9.3195 -44.0527 -12.1969 -56.3555 -12.082 C-66.7504 -11.4633 -74.9713 -7.2273 -82.1523 0.1953 Z " fill="#0C2942" transform="translate(367.96484375,457.8671875)"/>
<path d="M0 0 C3.6085 0.776 5.8481 0.6536 9.125 -1.3125 C12.7219 2.2844 11.1875 17.1627 11.1875 22.125 C11.1719 23.9792 11.1531 25.8334 11.125 27.6875 C9.805 28.0175 8.485 28.3475 7.125 28.6875 C6.6055 27.9514 6.086 27.2154 5.5508 26.457 C-1.6935 16.3203 -8.1689 9.2702 -20.6875 6.375 C-30.0985 4.8385 -40.0878 4.5312 -48.875 8.6875 C-52.1481 11.4262 -54.6435 13.5435 -55.1133 17.8945 C-55.1378 18.7543 -55.1623 19.6141 -55.1875 20.5 C-55.2249 21.3521 -55.2623 22.2041 -55.3008 23.082 C-54.7276 26.5894 -53.2601 28.0761 -50.875 30.6875 C-42.8506 35.9453 -33.6323 38.5061 -24.5 41.125 C6.3521 50.3011 6.3521 50.3011 14.5234 62.832 C18.402 70.2454 19.476 78.1452 17.4766 86.3477 C13.972 96.0375 7.214 102.968 -1.875 107.6875 C-21.3511 115.4531 -42.2115 113.7704 -62.5 110.25 C-63.1659 110.1348 -63.8317 110.0195 -64.5178 109.9008 C-75.6138 107.9487 -75.6138 107.9487 -76.875 106.6875 C-77.1189 104.0981 -77.3019 101.5331 -77.4375 98.9375 C-77.48 98.177 -77.5224 97.4166 -77.5662 96.6331 C-77.9123 89.9794 -77.9793 83.35 -77.875 76.6875 C-76.225 76.6875 -74.575 76.6875 -72.875 76.6875 C-71.5366 79.1432 -70.2041 81.6018 -68.875 84.0625 C-68.4934 84.7612 -68.1119 85.4598 -67.7188 86.1797 C-64.875 91.4609 -64.875 91.4609 -64.875 93.6875 C-49.4769 101.5504 -33.2911 105.9504 -16.2539 100.5938 C-11.2821 98.6997 -8.6048 97.0011 -6 92.3125 C-4.4338 87.2657 -4.0193 84.4346 -6.375 79.625 C-13.4276 71.3382 -24.1548 68.984 -34.125 65.75 C-67.2986 54.9667 -67.2986 54.9667 -74.8711 41.7461 C-78.6201 34.0585 -78.7085 26.109 -75.9688 18.0078 C-71.8154 8.7751 -65.1321 3.6048 -55.918 -0.2461 C-37.2104 -6.8021 -18.8633 -4.3076 0 0 Z " fill="#0C2942" transform="translate(89.875,437.3125)"/>
<path d="M0 0 C4.1441 -0.1493 8.2868 -0.2577 12.4329 -0.3296 C13.8404 -0.3596 15.2477 -0.4004 16.6545 -0.4526 C29.8461 -0.9296 29.8461 -0.9296 34.0273 2.5234 C35.0312 3.671 36.0205 4.8315 37 6 C41.8034 11.634 46.8285 16.9528 52.0938 22.1562 C52.8441 22.9028 53.5945 23.6494 54.3676 24.4186 C56.7426 26.7815 59.1209 29.1412 61.5 31.5 C64.6384 34.6116 67.7733 37.7266 70.9062 40.8438 C71.6137 41.5429 72.3212 42.2421 73.0502 42.9625 C76.2823 46.1789 79.4133 49.4251 82.3848 52.8848 C86.6533 57.8375 91.2936 62.402 95.9375 67 C96.8121 67.8701 97.6868 68.7402 98.5879 69.6367 C100.723 71.7601 102.8604 73.8812 105 76 C105.0464 68.0026 105.0819 60.0052 105.1036 52.0077 C105.1141 48.2939 105.1282 44.5802 105.1509 40.8665 C105.1726 37.2809 105.1846 33.6953 105.1898 30.1097 C105.1934 28.7434 105.2006 27.3771 105.2115 26.0108 C105.226 24.0936 105.2268 22.1763 105.2271 20.259 C105.2315 19.1687 105.2359 18.0784 105.2405 16.955 C104.9896 13.8721 104.4383 11.7325 103 9 C100.1797 7.418 100.1797 7.418 96.875 6.1875 C95.7793 5.7686 94.6836 5.3496 93.5547 4.918 C92.7116 4.615 91.8686 4.3121 91 4 C91.33 2.68 91.66 1.36 92 0 C97.0903 -0.074 102.1803 -0.1286 107.271 -0.1648 C109.0035 -0.1799 110.7359 -0.2004 112.4683 -0.2263 C114.9555 -0.2626 117.4422 -0.2797 119.9297 -0.293 C120.3183 -0.3007 120.3183 -0.3007 122.2846 -0.3399 C124.4683 -0.3406 124.4683 -0.3406 128 0 C128.33 0.495 128.33 0.495 130 3 C127.3523 5.6477 124.78 5.9087 121.1914 6.7305 C117.9209 8.6251 117.0383 11.5183 116 15 C115.5856 18.0546 115.5623 21.0686 115.5676 24.1482 C115.5574 25.0368 115.5472 25.9254 115.5367 26.8409 C115.5067 29.7573 115.4974 32.6733 115.4883 35.5898 C115.4714 37.6201 115.4533 39.6503 115.4339 41.6806 C115.3865 47.0086 115.3566 52.3366 115.3304 57.6648 C115.3006 63.108 115.2541 68.551 115.209 73.9941 C115.123 84.6627 115.0557 95.3313 115 106 C110.351 106.5624 105.9297 107.0697 101.7232 104.7379 C99.5024 102.8517 97.5023 100.8644 95.4993 98.748 C94.7271 97.9775 93.955 97.207 93.1595 96.4131 C90.6275 93.8735 88.1367 91.2973 85.6445 88.7188 C83.8915 86.9452 82.136 85.174 80.3781 83.4052 C76.2389 79.2283 72.125 75.0278 68.0226 70.8148 C62.8887 65.5455 57.7164 60.3144 52.5449 55.082 C43.3323 45.7516 34.1541 36.3879 25 27 C24.9304 35.3886 24.8772 43.777 24.8446 52.1658 C24.8289 56.0612 24.8077 59.9565 24.7737 63.8518 C24.741 67.6125 24.7231 71.373 24.7154 75.1338 C24.7098 76.5671 24.699 78.0004 24.6828 79.4336 C24.661 81.4442 24.6598 83.4549 24.6594 85.4656 C24.6528 86.6092 24.6461 87.7528 24.6392 88.9311 C25.0451 92.3839 25.9128 94.2421 28 97 C30.6992 98.3633 30.6992 98.3633 33.6875 99.3125 C34.6814 99.6386 35.6752 99.9648 36.6992 100.3008 C37.4585 100.5315 38.2177 100.7623 39 101 C39 102.32 39 103.64 39 105 C25.8 105 12.6 105 -1 105 C-1 103.68 -1 102.36 -1 101 C-0.3129 100.8298 0.3741 100.6597 1.082 100.4844 C1.9831 100.242 2.8841 99.9997 3.8125 99.75 C4.7058 99.518 5.5991 99.2859 6.5195 99.0469 C9.4286 97.8191 10.3998 96.6855 12 94 C13.17 90.4901 13.1553 87.3225 13.1611 83.6704 C13.1661 82.927 13.1711 82.1835 13.1762 81.4176 C13.1908 78.9581 13.1976 76.4986 13.2031 74.0391 C13.2089 72.329 13.2146 70.6189 13.2204 68.9088 C13.2309 65.3226 13.2367 61.7365 13.2402 58.1504 C13.2457 53.5581 13.2698 48.9661 13.2982 44.3739 C13.3168 40.8411 13.322 37.3084 13.3236 33.7756 C13.3266 32.0827 13.3346 30.3899 13.3478 28.697 C13.3648 26.3273 13.3629 23.9582 13.3564 21.5884 C13.3611 21.2397 13.3611 21.2397 13.3844 19.4753 C13.3473 15.1495 12.6664 12.4286 10 9 C6.4854 6.9371 2.8024 5.4539 -1 4 C-0.67 2.68 -0.34 1.36 0 0 Z " fill="#0C2942" transform="translate(398,441)"/>
<path d="M0 0 C0.66 0 1.32 0 2 0 C2.2075 0.9204 2.4151 1.8408 2.6289 2.7891 C9.3667 30.4734 26.7484 47.5691 49 64 C49.6104 64.4555 50.2207 64.911 50.8496 65.3804 C59.8784 72.106 69.3368 77.9802 78.9819 83.7764 C82.5526 85.9414 86.058 88.2069 89.5703 90.4648 C91.978 91.9861 94.4182 93.4347 96.875 94.875 C122.6202 110.2404 122.6202 110.2404 126 117 C127.1179 118.0311 128.2682 119.0276 129.4375 120 C131.3763 121.619 133.212 123.212 135 125 C134.7362 129.4023 132.7992 132.05 130.1875 135.5 C129.844 135.9589 129.844 135.9589 128.1055 138.2812 C126.0962 140.8758 124.0596 143.4452 122 146 C117.9527 144.5545 114.6865 142.581 111.125 140.1875 C104.7661 135.9954 98.2068 132.2199 91.5625 128.5 C82.6121 123.4823 73.7141 118.4194 65 113 C64.6667 112.7929 64.6667 112.7929 62.98 111.7446 C47.1709 101.858 32.2687 91.1491 19 78 C18.1673 77.1802 17.3345 76.3603 16.4766 75.5156 C10.2817 69.0459 6.099 61.8905 2 54 C1.5772 53.2072 1.1544 52.4145 0.7188 51.5977 C-7.3303 35.2252 -5.7046 18.8911 -1 2 C-0.67 1.34 -0.34 0.68 0 0 Z " fill="#C2934C" transform="translate(462,129)"/>
<path d="M0 0 C11.4392 -0.0231 22.8785 -0.0409 34.3177 -0.0518 C39.629 -0.057 44.9402 -0.0641 50.2515 -0.0754 C55.3737 -0.0863 60.496 -0.0923 65.6182 -0.0949 C67.5759 -0.0967 69.5336 -0.1003 71.4913 -0.1057 C74.2258 -0.113 76.9603 -0.114 79.6948 -0.1135 C80.5105 -0.1171 81.3262 -0.1207 82.1666 -0.1244 C87.7719 -0.1141 87.7719 -0.1141 90 1 C90.4823 3.9144 90.8446 6.7527 91.125 9.6875 C91.2114 10.4912 91.2977 11.295 91.3867 12.123 C91.8308 16.4339 92.0982 20.6603 92 25 C90.35 25.33 88.7 25.66 87 26 C86.6249 25.3245 86.2498 24.6491 85.8633 23.9531 C79.7463 13.2908 79.7463 13.2908 72.8611 10.9185 C68.6502 9.9168 64.9596 9.7436 60.6602 9.8047 C59.9792 9.8067 59.2982 9.8087 58.5966 9.8108 C56.0851 9.8211 53.5738 9.8491 51.0625 9.875 C48.2472 9.8956 48.2472 9.8956 34 10 C33.67 21.88 33.34 33.76 33 46 C37.8469 45.8969 42.6938 45.7937 47.6875 45.6875 C49.2082 45.6626 50.7289 45.6377 52.2957 45.6121 C53.5013 45.5789 54.707 45.5458 55.9492 45.5117 C57.1799 45.4855 58.4105 45.4594 59.6785 45.4324 C63.2286 44.9702 65.1409 44.1092 68 42 C69.3633 40.1758 69.3633 40.1758 70.3125 38.3125 C70.8694 37.2194 71.4262 36.1263 72 35 C73.32 35 74.64 35 76 35 C76 46.22 76 57.44 76 69 C74.35 68.67 72.7 68.34 71 68 C69.5586 65.7852 69.5586 65.7852 68.4375 63.0625 C66.462 58.3118 66.462 58.3118 64.3391 56.8792 C61.2548 55.7199 58.5582 55.6726 55.2656 55.5859 C53.9701 55.5473 52.6746 55.5086 51.3398 55.4688 C49.9766 55.4373 48.6133 55.406 47.25 55.375 C45.8711 55.3368 44.4922 55.2977 43.1133 55.2578 C39.7423 55.1635 36.3714 55.0779 33 55 C33.1182 60.0722 33.2425 65.1442 33.3723 70.2161 C33.4156 71.9416 33.4573 73.6672 33.4973 75.3928 C33.5551 77.8727 33.6188 80.3523 33.6836 82.832 C33.7003 83.604 33.717 84.376 33.7342 85.1713 C33.8223 88.3518 33.9875 90.9624 35 94 C44.2777 98.6389 65.268 97.1514 74.9336 94.0625 C81.35 91.0936 87.4482 86.6098 91.5547 80.8008 C92.0316 80.2065 92.5086 79.6123 93 79 C95.6875 78.75 95.6875 78.75 98 79 C99.1833 82.5499 98.7345 83.5815 97.6016 87.0703 C97.287 88.0487 96.9725 89.0271 96.6484 90.0352 C96.4796 90.545 96.4796 90.545 95.625 93.125 C95.295 94.1524 94.965 95.1798 94.625 96.2383 C92.1521 103.8479 92.1521 103.8479 91 105 C88.1391 105.0952 85.3024 105.1255 82.4412 105.1135 C81.5437 105.1137 80.6462 105.1138 79.7215 105.114 C76.7401 105.1133 73.7588 105.1055 70.7773 105.0977 C68.7161 105.0958 66.6549 105.0944 64.5936 105.0934 C59.157 105.0895 53.7203 105.0797 48.2836 105.0687 C42.7405 105.0585 37.1974 105.0539 31.6543 105.0488 C20.7695 105.0381 9.8848 105.021 -1 105 C-1 103.68 -1 102.36 -1 101 C-0.6449 100.8672 -0.6449 100.8672 1.1523 100.1953 C2.0714 99.8421 2.9905 99.4889 3.9375 99.125 C4.854 98.777 5.7705 98.4289 6.7148 98.0703 C9 97 9 97 10 95 C11.2018 85.4055 11.163 75.7197 11.168 66.0664 C11.1712 64.5748 11.1746 63.0832 11.1781 61.5915 C11.184 58.4931 11.1859 55.3946 11.1853 52.2961 C11.1852 48.3365 11.199 44.3771 11.2161 40.4175 C11.2272 37.3488 11.2292 34.2802 11.2287 31.2114 C11.2299 29.7511 11.2343 28.2907 11.242 26.8304 C11.2519 24.7926 11.2477 22.7548 11.2429 20.717 C11.2436 20.1393 11.2436 20.1393 11.2472 17.2156 C10.9856 13.8133 10.3317 11.138 9 8 C6.6172 6.5391 6.6172 6.5391 3.875 5.625 C3.42 5.4664 3.42 5.4664 1.1172 4.6641 C0.4185 4.4449 -0.2802 4.2258 -1 4 C-0.67 2.68 -0.34 1.36 0 0 Z " fill="#0C2942" transform="translate(547,441)"/>
<path d="M0 0 C11.3261 -0.0231 22.6522 -0.0409 33.9784 -0.0518 C39.237 -0.057 44.4956 -0.0641 49.7542 -0.0754 C54.8245 -0.0863 59.8949 -0.0923 64.9653 -0.0949 C66.9043 -0.0967 68.8432 -0.1004 70.7822 -0.1057 C73.4882 -0.1129 76.1941 -0.114 78.9001 -0.1135 C79.3051 -0.1153 79.3051 -0.1153 81.3544 -0.1244 C86.8859 -0.1141 86.8859 -0.1141 88 1 C88.298 2.7753 88.5387 4.5604 88.7539 6.3477 C88.886 7.4272 89.0182 8.5068 89.1543 9.6191 C89.289 10.7554 89.4237 11.8918 89.5625 13.0625 C89.7011 14.2027 89.8396 15.3429 89.9824 16.5176 C90.3255 19.3446 90.6645 22.1721 91 25 C89.35 25.33 87.7 25.66 86 26 C85.6249 25.3245 85.2498 24.6491 84.8633 23.9531 C80.6503 16.6097 77.3921 12.3195 69 10 C66.1523 9.7722 63.3881 9.6293 60.5391 9.5859 C59.8374 9.5683 59.1358 9.5506 58.4128 9.5325 C55.8171 9.4699 53.221 9.4234 50.625 9.375 C44.8088 9.2513 38.9925 9.1275 33 9 C33 21.21 33 33.42 33 46 C37.8469 45.9175 42.6938 45.835 47.6875 45.75 C49.2082 45.7342 50.7289 45.7184 52.2957 45.7021 C53.5013 45.6715 54.707 45.6409 55.9492 45.6094 C56.5645 45.5989 56.5645 45.5989 59.6785 45.5459 C63.5851 44.9038 65.2198 43.7705 68 41 C69.8125 37.75 69.8125 37.75 71 35 C71.66 35.165 71.66 35.165 75 36 C75 46.89 75 57.78 75 69 C73.35 68.67 71.7 68.34 70 68 C68.7773 65.7852 68.7773 65.7852 67.9375 63.0625 C66.4531 58.3083 66.4531 58.3083 64.3528 56.8792 C61.2621 55.7243 58.5629 55.6727 55.2656 55.5859 C53.9701 55.5473 52.6746 55.5086 51.3398 55.4688 C49.9766 55.4373 48.6133 55.406 47.25 55.375 C45.8711 55.3368 44.4922 55.2977 43.1133 55.2578 C39.7423 55.1635 36.3714 55.0779 33 55 C33.0935 60.2148 33.1996 65.429 33.3174 70.6433 C33.3557 72.4173 33.3905 74.1914 33.4219 75.9656 C33.4675 78.5151 33.5255 81.0641 33.5859 83.6133 C33.5975 84.4071 33.609 85.201 33.6209 86.0189 C33.7236 89.8432 33.8306 91.746 36 95 C40.9958 96.8993 46.8689 96.1845 52.125 96.1875 C53.2155 96.1997 54.3061 96.212 55.4297 96.2246 C67.2136 96.2458 78.0807 95.0308 86.8125 86.5 C89.0534 84.1209 91.1586 81.708 93 79 C94.65 79.33 96.3 79.66 98 80 C96.2996 88.6563 93.681 96.4208 91 105 C60.64 105 30.28 105 -1 105 C-1 103.68 -1 102.36 -1 101 C2.3 100.01 5.6 99.02 9 98 C11.2474 88.995 11.2926 80.2569 11.2656 71.0469 C11.267 69.4164 11.2689 67.786 11.2714 66.1556 C11.2744 62.7567 11.2701 59.3579 11.2607 55.959 C11.2493 51.6125 11.2559 47.2663 11.2679 42.9199 C11.2751 39.5603 11.2728 36.2009 11.2676 32.8413 C11.2663 31.2386 11.2679 29.6359 11.2726 28.0332 C11.2777 25.7938 11.2699 23.5548 11.2588 21.3154 C11.2572 20.0443 11.2556 18.7732 11.254 17.4636 C10.9964 13.9503 10.3897 11.2315 9 8 C6.6172 6.5391 6.6172 6.5391 3.875 5.625 C3.42 5.4664 3.42 5.4664 1.1172 4.6641 C0.4185 4.4449 -0.2802 4.2258 -1 4 C-0.67 2.68 -0.34 1.36 0 0 Z " fill="#0C2942" transform="translate(863,441)"/>
<path d="M0 0 C0.66 0 1.32 0 2 0 C3.2969 1.7578 3.2969 1.7578 4.75 4.125 C6.7387 7.2354 8.7043 9.887 11.375 12.4375 C12.2412 13.2831 13.1075 14.1287 14 15 C14 15.66 14 16.32 14 17 C14.66 17 15.32 17 16 17 C17.7272 18.6285 19.3662 20.2811 21 22 C25.4371 26.6224 29.9811 30.8023 35.125 34.625 C35.8053 35.1322 36.4856 35.6395 37.1865 36.1621 C47.8848 43.9906 59.3624 50.6561 70.75 57.418 C71.6726 57.9671 72.5953 58.5163 73.5459 59.082 C75.3166 60.1333 77.0906 61.1791 78.8682 62.2188 C79.6593 62.6867 80.4505 63.1546 81.2656 63.6367 C81.6151 63.8415 81.6151 63.8415 83.3838 64.8777 C85 66 85 66 86 68 C86.8611 68.2771 87.7222 68.5543 88.6094 68.8398 C92.6341 70.217 95.7513 72.185 99.25 74.5625 C99.9061 75.0058 100.5621 75.4491 101.238 75.9058 C112.2149 83.4622 123.2475 92.3285 126 106 C126.9739 113.5145 125.2247 119.2338 122 126 C119 126 119 126 117.3125 124.625 C116 123 116 123 116 121 C115.4057 120.7319 114.8115 120.4638 114.1992 120.1875 C111.9803 118.9894 110.5974 117.7637 108.8125 116 C102.32 110.2103 94.5183 106.2899 87 102 C67.0763 90.5884 47.9991 78.528 31 63 C30.3091 62.38 29.6181 61.7599 28.9062 61.1211 C12.4174 45.5691 0.9252 22.6682 0 0 Z " fill="#C4954E" transform="translate(461,203)"/>
<path d="M0 0 C1.9578 8.9715 2.5641 17.8572 3 27 C1.68 27.33 0.36 27.66 -1 28 C-1.3751 27.4199 -1.7502 26.8398 -2.1367 26.2422 C-11.4056 12.0938 -11.4056 12.0938 -19 10 C-23.1426 9.5133 -27.2696 9.3991 -31.4375 9.3125 C-32.5506 9.2783 -33.6637 9.2442 -34.8105 9.209 C-37.5403 9.127 -40.2697 9.0577 -43 9 C-42.9851 19.9965 -42.9436 30.9925 -42.8679 41.9888 C-42.8336 47.0949 -42.8085 52.2007 -42.8044 57.3069 C-42.8002 62.2349 -42.7717 67.1623 -42.7266 72.0901 C-42.7136 73.97 -42.7093 75.8498 -42.7138 77.7297 C-42.7187 80.3638 -42.6927 82.9958 -42.6594 85.6296 C-42.6637 86.0181 -42.6637 86.0181 -42.6856 87.9837 C-42.6002 92.0178 -42.1667 93.7953 -39.585 96.9653 C-37.3146 98.7524 -35.9574 99.7151 -33.1875 100.3125 C-32.1356 100.5394 -31.0838 100.7663 -30 101 C-30 102.32 -30 103.64 -30 105 C-46.17 105 -62.34 105 -79 105 C-78.835 104.34 -78.835 104.34 -78 101 C-75.8077 99.7816 -73.5909 99.0506 -71.2266 98.2227 C-68.2201 96.5717 -67.4653 95.1058 -66 92 C-65.7302 89.2222 -65.6195 86.6773 -65.6594 83.905 C-65.659 83.1045 -65.6585 82.304 -65.6581 81.4792 C-65.6602 78.844 -65.6835 76.2094 -65.707 73.5742 C-65.7126 71.7429 -65.7169 69.9116 -65.7199 68.0803 C-65.7313 63.2683 -65.7608 58.4565 -65.794 53.6446 C-65.8247 48.7312 -65.8384 43.8178 -65.8535 38.9043 C-65.8857 29.2694 -65.9368 19.6347 -66 10 C-69.8331 9.8828 -73.6657 9.8124 -77.5 9.75 C-78.0388 9.7332 -78.0388 9.7332 -80.7656 9.6484 C-87.6975 9.5639 -92.1182 10.2531 -98 14 C-100.2773 16.5078 -100.2773 16.5078 -101.9375 19.125 C-102.5034 19.9938 -103.0693 20.8627 -103.6523 21.7578 C-105 24 -105 24 -106 26 C-107.65 26 -109.3 26 -111 26 C-110.6487 19.3866 -109.8924 13.0428 -108.457 6.5703 C-108.1848 5.333 -107.9126 4.0956 -107.6321 2.8208 C-107.4235 1.8899 -107.2149 0.9591 -107 0 C-105.8741 0.0022 -104.7481 0.0044 -103.5881 0.0067 C-92.9373 0.0271 -82.2866 0.042 -71.6358 0.0518 C-66.1612 0.057 -60.6865 0.0641 -55.2119 0.0754 C-49.921 0.0864 -44.6302 0.0923 -39.3393 0.0949 C-37.3284 0.0967 -35.3176 0.1003 -33.3068 0.1057 C-14.0593 0.1556 -14.0593 0.1556 -5.1693 -0.8823 C-3 -1 -3 -1 0 0 Z " fill="#0C2942" transform="translate(234,441)"/>
<path d="M0 0 C15.18 0 30.36 0 46 0 C46 1.32 46 2.64 46 4 C45.3735 4.2539 44.747 4.5079 44.1016 4.7695 C43.2843 5.1137 42.467 5.4579 41.625 5.8125 C40.8129 6.1489 40.0008 6.4854 39.1641 6.832 C37 8 37 8 35 11 C34.8159 13.6886 34.7477 16.2719 34.7729 18.9597 C34.7727 19.7697 34.7724 20.5797 34.7721 21.4142 C34.7735 24.0927 34.789 26.7708 34.8047 29.4492 C34.8084 31.3058 34.8113 33.1624 34.8133 35.019 C34.8209 39.9066 34.8406 44.7941 34.8627 49.6816 C34.8831 54.6686 34.8923 59.6556 34.9023 64.6426 C34.9238 74.4284 34.9579 84.2142 35 94 C42.6536 96.2533 42.6536 96.2533 46.8555 96.2656 C47.7194 96.27 48.5833 96.2743 49.4734 96.2788 C50.369 96.2693 51.2647 96.2598 52.1875 96.25 C52.6531 96.2459 52.6531 96.2459 55.009 96.2251 C67.4149 96.0241 77.9839 95.0035 87.1758 85.8281 C88.855 83.9302 90.4588 82.0107 92 80 C92.66 80.165 92.66 80.165 96 81 C95 89 95 89 90 105 C59.97 105 29.94 105 -1 105 C-1 103.68 -1 102.36 -1 101 C-0.3013 100.7577 0.3973 100.5153 1.1172 100.2656 C1.5722 100.098 1.5722 100.098 3.875 99.25 C4.3275 99.0876 4.3275 99.0876 6.6172 98.2656 C9.5197 96.724 9.8988 96.0639 11 93 C11.1954 90.3256 11.2835 87.7559 11.2747 85.082 C11.2798 84.2881 11.2849 83.4941 11.2901 82.6761 C11.304 80.0548 11.3031 77.4338 11.3008 74.8125 C11.3047 72.9893 11.309 71.1662 11.3138 69.343 C11.3212 65.5232 11.3209 61.7036 11.3157 57.8838 C11.3099 52.9876 11.3268 48.0918 11.35 43.1957 C11.3647 39.4313 11.3656 35.6671 11.3625 31.9027 C11.363 30.0974 11.3683 28.292 11.3783 26.4867 C11.3906 23.9636 11.3839 21.4411 11.3723 18.918 C11.38 18.1719 11.3876 17.4258 11.3955 16.6571 C11.3633 13.4974 11.194 11.3377 9.6044 8.5706 C7.754 6.7592 6.2635 6.0536 3.8125 5.25 C3.0971 5.0077 2.3816 4.7653 1.6445 4.5156 C1.1018 4.3455 0.5591 4.1753 0 4 C0 2.68 0 1.36 0 0 Z " fill="#0C2942" transform="translate(1094,441)"/>
<path d="M0 0 C15.18 0 30.36 0 46 0 C46 1.32 46 2.64 46 4 C45.3735 4.2655 44.747 4.5311 44.1016 4.8047 C43.2843 5.1579 42.467 5.5111 41.625 5.875 C41.2189 6.049 41.2189 6.049 39.1641 6.9297 C36.7596 8.1189 35.3346 9.0972 34.3831 11.6646 C33.8525 14.8993 33.861 18.0992 33.8706 21.3672 C33.8689 22.1026 33.8671 22.838 33.8653 23.5958 C33.8609 26.0222 33.8638 28.4486 33.8672 30.875 C33.8665 32.5636 33.8655 34.2523 33.8643 35.9409 C33.8628 39.4782 33.865 43.0155 33.8696 46.5527 C33.8753 51.0856 33.872 55.6184 33.8661 60.1512 C33.8624 63.6376 33.8636 67.124 33.8662 70.6104 C33.8669 72.2818 33.866 73.9531 33.8637 75.6245 C33.8612 77.9606 33.865 80.2967 33.8706 82.6328 C33.8686 83.3228 33.8666 84.0128 33.8645 84.7237 C33.893 91.1949 33.893 91.1949 35 94 C44.485 98.9963 61.7591 97.0761 71.9375 94.9375 C78.8515 92.7921 83.9744 88.2931 88.75 83 C89.4925 82.34 90.235 81.68 91 81 C93.6406 81.375 93.6406 81.375 96 82 C95.2886 84.6083 94.5769 87.2165 93.8633 89.8242 C93.2911 91.9291 92.7259 94.0359 92.168 96.1445 C91.9063 97.1281 91.6446 98.1116 91.375 99.125 C91.1352 100.0351 90.8955 100.9452 90.6484 101.8828 C90 104 90 104 89 105 C86.2001 105.0952 83.4249 105.1255 80.6248 105.1135 C80.1858 105.1136 80.1858 105.1136 77.9642 105.114 C75.0478 105.1133 72.1313 105.1055 69.2148 105.0977 C67.1985 105.0958 65.1821 105.0944 63.1657 105.0934 C57.8473 105.0895 52.5291 105.0797 47.2108 105.0687 C41.7883 105.0585 36.3658 105.0539 30.9434 105.0488 C20.2956 105.0381 9.6478 105.021 -1 105 C-1 103.68 -1 102.36 -1 101 C-0.6507 100.8846 -0.6507 100.8846 1.1172 100.3008 C2.0273 99.9746 2.9373 99.6485 3.875 99.3125 C4.7799 98.9993 5.6848 98.686 6.6172 98.3633 C9.7367 96.5785 9.9771 95.4216 11 92 C11.1914 89.3534 11.2837 86.8131 11.2747 84.168 C11.2798 83.395 11.2849 82.622 11.2901 81.8256 C11.304 79.2795 11.3031 76.7336 11.3008 74.1875 C11.3047 72.413 11.309 70.6385 11.3138 68.864 C11.3212 65.1486 11.3209 61.4332 11.3157 57.7178 C11.3099 52.9596 11.3268 48.2018 11.35 43.4437 C11.3648 39.7805 11.3656 36.1175 11.3625 32.4543 C11.363 30.7 11.3683 28.9457 11.3783 27.1915 C11.3907 24.7381 11.3839 22.2854 11.3723 19.832 C11.38 19.1098 11.3876 18.3876 11.3955 17.6435 C11.3498 13.2636 10.6882 10.4859 8 7 C5.9922 5.9258 5.9922 5.9258 3.875 5.3125 C1.7422 4.6758 1.7422 4.6758 0 4 C-0.33 3.34 -0.66 2.68 -1 2 C-0.67 1.34 -0.34 0.68 0 0 Z " fill="#0C2942" transform="translate(982,441)"/>
<path d="M0 0 C0.66 0 1.32 0 2 0 C3.2969 1.7578 3.2969 1.7578 4.75 4.125 C6.7387 7.2354 8.7043 9.887 11.375 12.4375 C12.2412 13.2831 13.1075 14.1287 14 15 C14 15.66 14 16.32 14 17 C14.66 17 15.32 17 16 17 C18.734 19.5289 20.9306 21.896 23 25 C23 25.66 23 26.32 23 27 C24.4474 28.4302 25.9581 29.7972 27.5 31.125 C28.3353 31.8495 29.1706 32.5739 30.0312 33.3203 C30.3561 33.5975 30.3561 33.5975 32 35 C31.67 35.165 31.67 35.165 30 36 C30 36.99 30 37.98 30 39 C33.0585 39.5437 35.8877 40 39 40 C41.3011 41.4443 43.4893 42.9139 45.6875 44.5 C46.294 44.9293 46.9005 45.3585 47.5254 45.8008 C49.0214 46.8609 50.5113 47.9297 52 49 C50.1871 51.7194 48.3352 53.7426 46 56 C46.33 56.66 46.66 57.32 47 58 C47.99 58 48.98 58 50 58 C50.33 58.66 50.66 59.32 51 60 C51.99 60 52.98 60 54 60 C54 60.66 54 61.32 54 62 C54.33 62.165 54.33 62.165 56 63 C56.33 63.66 56.66 64.32 57 65 C56.67 65.165 56.67 65.165 55 66 C54.375 68.5625 54.375 68.5625 54 71 C49.7061 71.6262 46.3517 71.8856 42.6211 69.4414 C40.6578 67.6958 38.7951 65.9174 37 64 C37.66 62.35 38.32 60.7 39 59 C38.0306 59.1856 37.0612 59.3713 36.0625 59.5625 C32.0644 59.5544 30.2998 57.8576 27.5 55.125 C23.1519 50.4338 19.4789 45.3582 16 40 C18.8303 45.6606 22.4704 49.9494 26.7812 54.5703 C29 57 29 57 30.9805 59.5469 C34.6895 64.0522 39.4053 67.4409 44 71 C44.5562 71.4312 45.1125 71.8624 45.6855 72.3066 C54.8945 79.3817 64.5195 85.5289 74.4805 91.4819 C79.2227 94.3392 83.9211 97.2676 88.625 100.1875 C90.4297 101.306 92.2344 102.4245 94.0391 103.543 C95.3594 104.3619 96.6798 105.1809 98 106 C97.67 106.165 97.67 106.165 96 107 C94.1467 106.2024 94.1467 106.2024 91.8789 104.8945 C91.0355 104.4118 90.192 103.929 89.323 103.4316 C88.412 102.8973 87.5011 102.363 86.5625 101.8125 C85.6225 101.2666 84.6826 100.7207 83.7141 100.1582 C49.3084 80.0408 14.1846 56.8719 2.25 16.5 C0.8574 11.0478 0.3146 5.6082 0 0 Z " fill="#A7783A" transform="translate(461,203)"/>
<path d="M0 0 C4.3748 -0.1165 8.7491 -0.1874 13.125 -0.25 C14.3625 -0.2835 15.6 -0.317 16.875 -0.3516 C25.1723 -0.4408 28.8444 0.1214 34.875 5.75 C36.5618 9.1236 36.53 12.3479 36 16 C34.8125 18.875 34.8125 18.875 33 21 C31.35 21.66 29.7 22.32 28 23 C30.97 27.29 33.94 31.58 37 36 C36.835 36.33 36.835 36.33 36 38 C33.3125 38.3125 33.3125 38.3125 30 38 C27.4627 35.9578 25.5546 34.0291 24 31.1445 C22.8057 29.015 21.8835 27.5738 20 26 C15.8927 25.0807 12.2489 25.0467 8 25 C8 28.96 8 32.92 8 37 C5.6739 37.3806 3.3394 37.7127 1 38 C0 37 0 37 -0.1135 33.49 C-0.1134 31.9295 -0.1077 30.369 -0.0977 28.8086 C-0.0962 27.9888 -0.0948 27.1689 -0.0934 26.3242 C-0.0878 23.6953 -0.0752 21.0664 -0.0625 18.4375 C-0.0575 16.6595 -0.0529 14.8815 -0.0488 13.1035 C-0.0378 8.7356 -0.0205 4.3678 0 0 Z M8 6 C8 9.96 8 13.92 8 18 C10.7714 18.0809 13.5405 18.1404 16.3125 18.1875 C16.7053 18.2001 16.7053 18.2001 18.6934 18.2637 C19.4507 18.2733 20.208 18.283 20.9883 18.293 C21.6848 18.3087 22.3813 18.3244 23.0989 18.3406 C25.6249 17.888 26.5062 17.0619 28 15 C27.8125 11.375 27.8125 11.375 27 8 C23.7004 6.3502 20.0087 6.6174 16.375 6.4375 C15.5732 6.3943 14.7714 6.3511 13.9453 6.3066 C11.9637 6.2005 9.9819 6.0997 8 6 Z " fill="#AD7D3E" transform="translate(966,591)"/>
<path d="M0 0 C4.1873 -0.1168 8.3741 -0.1875 12.5625 -0.25 C13.1532 -0.2668 13.1532 -0.2668 16.1426 -0.3516 C22.9962 -0.4284 27.5016 -0.2568 33 4 C35.4124 7.317 36.2639 9.9565 36.125 14 C35.4049 18.4054 32.9426 20.3613 29.4961 22.9688 C29.0024 23.3091 28.5087 23.6494 28 24 C28.5775 24.7593 29.155 25.5185 29.75 26.3008 C30.4925 27.2946 31.235 28.2885 32 29.3125 C32.7425 30.2986 33.485 31.2848 34.25 32.3008 C36 35 36 35 36 38 C31.8205 38.4098 29.745 38.5854 26.375 35.9375 C24 33 24 33 22.9688 31.1094 C21.777 29.0153 20.8628 27.5443 19 26 C15.2655 25.3978 11.7488 25.5864 8 26 C7.9394 26.7825 7.8788 27.5649 7.8164 28.3711 C7.7326 29.383 7.6488 30.3949 7.5625 31.4375 C7.4813 32.4468 7.4001 33.4562 7.3164 34.4961 C7 37 7 37 6 38 C3.5 38.125 3.5 38.125 1 38 C0 37 0 37 -0.1135 33.49 C-0.1134 31.9295 -0.1077 30.369 -0.0977 28.8086 C-0.0962 27.9888 -0.0948 27.1689 -0.0934 26.3242 C-0.0878 23.6953 -0.0752 21.0664 -0.0625 18.4375 C-0.0575 16.6595 -0.0529 14.8815 -0.0488 13.1035 C-0.0378 8.7356 -0.0205 4.3678 0 0 Z M7 7 C7 10.63 7 14.26 7 18 C9.7511 18.1081 12.4979 18.1873 15.25 18.25 C15.6387 18.2668 15.6387 18.2668 17.6055 18.3516 C23.3788 18.4503 23.3788 18.4503 26.5547 16.1484 C28 14 28 14 27.875 11.375 C27 9 27 9 25 7 C19.1004 5.2922 13.0092 6.368 7 7 Z " fill="#AB7B3D" transform="translate(716,591)"/>
<path d="M0 0 C0.0246 5.2511 0.0428 10.5021 0.0549 15.7532 C0.06 17.5409 0.0668 19.3287 0.0754 21.1165 C0.0875 23.6805 0.0932 26.2445 0.0977 28.8086 C0.1028 29.6128 0.108 30.4169 0.1133 31.2455 C0.1135 33.164 0.062 35.0825 0 37 C-1 38 -1 38 -3.3203 38.2812 C-6.7113 37.9253 -7.5832 36.9725 -9.875 34.5 C-10.2198 34.1333 -10.2198 34.1333 -11.9648 32.2773 C-14.3801 29.5747 -16.7635 26.8473 -19.125 24.0977 C-22.58 20.2324 -26.3051 16.6338 -30 13 C-30.0251 13.7218 -30.0501 14.4436 -30.0759 15.1873 C-30.1915 18.4375 -30.3144 21.6875 -30.4375 24.9375 C-30.4768 26.0738 -30.5161 27.2101 -30.5566 28.3809 C-30.5985 29.4604 -30.6404 30.54 -30.6836 31.6523 C-30.7019 32.1525 -30.7019 32.1525 -30.7947 34.6833 C-31 37 -31 37 -32 38 C-35 38.125 -35 38.125 -38 38 C-39.7276 36.2724 -39.1302 33.9539 -39.1328 31.6016 C-39.1341 30.4814 -39.1354 29.3612 -39.1367 28.207 C-39.1329 27.025 -39.129 25.8429 -39.125 24.625 C-39.1289 23.4816 -39.1327 22.3382 -39.1367 21.1602 C-39.1286 14.0515 -38.7858 7.0654 -38 0 C-34.028 -0.4715 -32.453 -0.3425 -29.2075 2.1113 C-28.2504 3.0694 -27.3095 4.0438 -26.3828 5.0312 C-25.8808 5.5418 -25.3788 6.0523 -24.8615 6.5782 C-23.268 8.2053 -21.6967 9.8519 -20.125 11.5 C-19.0457 12.6094 -17.965 13.7175 -16.8828 14.8242 C-14.2389 17.5341 -11.6147 20.2619 -9 23 C-8.2336 17.9532 -7.8923 13.1712 -7.9375 8.0625 C-7.942 7.3787 -7.9465 6.6948 -7.9512 5.9902 C-7.9628 4.3268 -7.9807 2.6634 -8 1 C-2.25 -1.125 -2.25 -1.125 0 0 Z " fill="#A07439" transform="translate(876,591)"/>
<path d="M0 0 C10.56 0 21.12 0 32 0 C32 1.98 32 3.96 32 6 C23.75 6 15.5 6 7 6 C7 8.97 7 11.94 7 15 C13.93 15 20.86 15 28 15 C28 16.98 28 18.96 28 21 C27 22 27 22 25.0505 22.1135 C24.2179 22.1083 23.3852 22.1031 22.5273 22.0977 C21.6282 22.0944 20.7291 22.0912 19.8027 22.0879 C18.8572 22.0795 17.9117 22.0711 16.9375 22.0625 C15.9881 22.058 15.0387 22.0535 14.0605 22.0488 C11.707 22.037 9.3535 22.0191 7 22 C7 24.97 7 27.94 7 31 C7.7521 30.9948 8.5042 30.9895 9.2791 30.9841 C12.6652 30.9634 16.0513 30.9504 19.4375 30.9375 C20.6215 30.9291 21.8055 30.9207 23.0254 30.9121 C24.1501 30.9089 25.2748 30.9057 26.4336 30.9023 C27.4757 30.8971 28.5178 30.8919 29.5916 30.8865 C32 31 32 31 33 32 C33.125 34.5 33.125 34.5 33 37 C31.0955 38.9045 27.7166 38.1306 25.1914 38.1328 C24.8504 38.1333 24.8504 38.1333 23.125 38.1357 C21.6799 38.1364 20.2349 38.1345 18.7898 38.1304 C16.5753 38.125 14.361 38.1303 12.1465 38.1367 C10.7448 38.1361 9.3431 38.1348 7.9414 38.1328 C6.6595 38.1317 5.3776 38.1306 4.0569 38.1294 C1 38 1 38 -1 37 C-1.0248 32.3735 -1.0429 27.7471 -1.0549 23.1206 C-1.06 21.5474 -1.0668 19.9741 -1.0754 18.4009 C-1.0876 16.137 -1.0932 13.8732 -1.0977 11.6094 C-1.1028 10.9082 -1.108 10.207 -1.1133 9.4846 C-1.1137 6.0664 -0.8378 3.3512 0 0 Z " fill="#AA7B3D" transform="translate(906,591)"/>
<path d="M0 0 C1.8945 2.8418 3.0019 5.3156 4.1875 8.5 C4.5523 9.4591 4.9171 10.4181 5.293 11.4062 C6 14 6 14 5 17 C3.68 17 2.36 17 1 17 C1.66 17.99 2.32 18.98 3 20 C4.65 19.67 6.3 19.34 8 19 C10.31 22.3 12.62 25.6 15 29 C14.67 29.66 14.34 30.32 14 31 C13.6483 32.3286 13.3123 33.6616 13 35 C14.0325 35.0503 15.0651 35.1005 16.1289 35.1523 C20.7378 36.1615 22.8881 38.1841 25.9375 41.5625 C26.4306 42.0826 26.9236 42.6028 27.4316 43.1387 C28.6353 44.4125 29.8197 45.7045 31 47 C27.42 47 26.7661 46.0745 24 44 C23.01 44 22.02 44 21 44 C21 45.65 21 47.3 21 49 C22.65 49.33 24.3 49.66 26 50 C27.251 53.7529 27 57.0598 27 61 C26.1131 60.9794 25.2262 60.9588 24.3125 60.9375 C21 61 21 61 18.3125 61.625 C16 62 16 62 13 60 C12.8125 56.875 12.8125 56.875 13 54 C12.3813 53.9588 11.7625 53.9175 11.125 53.875 C10.7744 53.7306 10.7744 53.7306 9 53 C8.2829 51.0175 7.6171 49.0158 7 47 C6.01 46.34 5.02 45.68 4 45 C2.832 42.9766 2.832 42.9766 1.8125 40.625 C1.4683 39.8541 1.1241 39.0833 0.7695 38.2891 C0 36 0 36 0 32 C-0.66 32 -1.32 32 -2 32 C-2.33 32.99 -2.66 33.98 -3 35 C-3.33 31.7 -3.66 28.4 -4 25 C-3.67 25 -3.34 25 -3 25 C-2.67 19.39 -2.34 13.78 -2 8 C-1.01 8 -0.02 8 1 8 C0.67 5.36 0.34 2.72 0 0 Z " fill="#A8783A" transform="translate(462,135)"/>
<path d="M0 0 C4.1873 -0.1168 8.3741 -0.1875 12.5625 -0.25 C13.1532 -0.2668 13.1532 -0.2668 16.1426 -0.3516 C22.9982 -0.4284 27.4973 -0.2524 33 4 C35.5861 7.4751 36.2535 10.2536 36.125 14.5 C35.4328 19.0031 33.5466 21.0908 30.082 23.9062 C25.2724 26.4329 19.9333 26.1126 14.625 26.0625 C14.0024 26.058 14.0024 26.058 10.8516 26.0352 C10.3811 26.0294 10.3811 26.0294 8 26 C8 29.63 8 33.26 8 37 C5.6739 37.3806 3.3394 37.7127 1 38 C0 37 0 37 -0.1135 33.49 C-0.1134 31.9295 -0.1077 30.369 -0.0977 28.8086 C-0.0962 27.9888 -0.0948 27.1689 -0.0934 26.3242 C-0.0878 23.6953 -0.0752 21.0664 -0.0625 18.4375 C-0.0575 16.6595 -0.0529 14.8815 -0.0488 13.1035 C-0.0378 8.7356 -0.0205 4.3678 0 0 Z M8 7 C8 10.96 8 14.92 8 19 C10.417 19.0541 12.8327 19.0937 15.25 19.125 C15.591 19.1334 15.591 19.1334 17.3164 19.1758 C24.0767 19.2414 24.0767 19.2414 27 17 C27.9375 13.5625 27.9375 13.5625 28 10 C26.4996 7.9466 25.6229 7.1116 23.0989 6.6594 C22.4024 6.6751 21.7059 6.6908 20.9883 6.707 C20.231 6.7167 19.4736 6.7264 18.6934 6.7363 C17.9077 6.7615 17.122 6.7866 16.3125 6.8125 C15.5152 6.826 14.7179 6.8396 13.8965 6.8535 C11.9307 6.8888 9.9653 6.9426 8 7 Z " fill="#AE7E3E" transform="translate(278,591)"/>
<path d="M0 0 C3.1875 -0.5 3.1875 -0.5 7 0 C9.2587 2.3348 10.5594 5.1104 12 8 C12.8447 9.5523 13.6897 11.1044 14.5352 12.6562 C15.3808 14.2692 16.2232 15.8838 17.0625 17.5 C17.4834 18.3031 17.9043 19.1062 18.3379 19.9336 C19.1668 21.5194 19.9907 23.1079 20.8091 24.6992 C21.6018 26.2308 22.4101 27.7544 23.2339 29.2695 C24.2304 31.1419 25.1244 33.0681 26 35 C25.67 35.99 25.34 36.98 25 38 C22.25 38.375 22.25 38.375 19 38 C16.3609 34.8748 15 33.1353 15 29 C-4.1258 27.5094 -4.1258 27.5094 -8.5195 31.0039 C-9.9375 33.5 -9.9375 33.5 -11.0039 35.9961 C-11.3326 36.6574 -11.6613 37.3187 -12 38 C-15.375 38.5625 -15.375 38.5625 -18 38 C-19 35 -19 35 -18.123 32.8462 C-17.6596 32.023 -17.1962 31.1997 -16.7188 30.3516 C-16.464 29.8927 -16.464 29.8927 -15.1748 27.5708 C-14.6221 26.5987 -14.0694 25.6266 -13.5 24.625 C-12.3904 22.6356 -11.281 20.646 -10.1719 18.6562 C-9.6285 17.6895 -9.0852 16.7227 -8.5254 15.7266 C-6.5602 12.2138 -4.6469 8.675 -2.75 5.125 C-2.2086 4.117 -1.6672 3.1089 -1.1094 2.0703 C-0.7433 1.3871 -0.3772 0.7039 0 0 Z M3 9 C1.9976 10.978 0.9981 12.9574 0 14.9375 C-0.5569 16.0396 -1.1138 17.1418 -1.6875 18.2773 C-3 21 -3 21 -3 22 C1.29 22 5.58 22 10 22 C7.75 15.25 7.75 15.25 6.375 12.125 C5.9212 11.0938 5.4675 10.0625 5 9 C4.34 9 3.68 9 3 9 Z " fill="#A6783B" transform="translate(227,591)"/>
<path d="M0 0 C4.4966 6.3874 7.882 13.424 11.3586 20.4016 C12.321 22.3295 13.2939 24.2517 14.2676 26.1738 C14.8835 27.4033 15.4987 28.6331 16.1133 29.8633 C16.668 30.9697 17.2227 32.0761 17.7942 33.2161 C19 36 19 36 19 39 C16.375 39.5625 16.375 39.5625 13 39 C12.2409 37.525 11.5408 36.0194 10.875 34.5 C9.4531 32.0039 9.4531 32.0039 7 30 C0.4734 28.7472 -6.4172 29.4599 -13 30 C-13.2771 30.5659 -13.5543 31.1318 -13.8398 31.7148 C-14.2021 32.4483 -14.5643 33.1818 -14.9375 33.9375 C-15.2971 34.6684 -15.6568 35.3993 -16.0273 36.1523 C-17 38 -17 38 -18 39 C-20.333 39.0409 -22.6671 39.0424 -25 39 C-24.383 34.311 -22.4084 30.47 -20.2539 26.3281 C-19.8827 25.6051 -19.5116 24.8821 -19.1291 24.1371 C-18.3462 22.6161 -17.5602 21.0966 -16.7712 19.5786 C-15.5617 17.2484 -14.3652 14.9118 -13.1699 12.5742 C-12.407 11.096 -11.6434 9.6181 -10.8789 8.1406 C-10.5205 7.4396 -10.1621 6.7386 -9.7929 6.0164 C-7.3072 1.2624 -5.6672 -1.1861 0 0 Z M-3 9 C-5.31 13.62 -7.62 18.24 -10 23 C-5.38 23 -0.76 23 4 23 C3.4019 21.4325 2.8038 19.865 2.1875 18.25 C1.8511 17.3683 1.5146 16.4866 1.168 15.5781 C0 13 0 13 -3 9 Z " fill="#AA7B3D" transform="translate(671,590)"/>
<path d="M0 0 C1 3 1 3 0.0625 5.1875 C-0.1128 5.4866 -0.1128 5.4866 -1 7 C-1.9281 6.67 -2.8563 6.34 -3.8125 6 C-8.9244 4.523 -16.1315 3.5658 -21 6 C-21 7.32 -21 8.64 -21 10 C-20.3793 10.1573 -20.3793 10.1573 -17.2383 10.9531 C-15.5962 11.3848 -13.9543 11.8171 -12.3125 12.25 C-11.4959 12.455 -10.6793 12.6599 -9.8379 12.8711 C-5.0602 14.1477 -1.6127 15.4372 2 19 C3.6117 22.2234 3.5954 25.5144 3 29 C0.1209 32.784 -2.5348 34.5518 -7 36 C-15.4685 36.8796 -22.6088 36.38 -30 32 C-30 28 -30 28 -28 26 C-25.3802 26.6448 -22.7879 27.3378 -20.1875 28.0625 C-15.5225 29.2179 -11.1168 29.8684 -6.5625 28 C-6.0469 27.67 -5.5312 27.34 -5 27 C-5 25.68 -5 24.36 -5 23 C-8.7707 21.3569 -12.4098 20.4315 -16.4375 19.625 C-25.5698 17.5255 -25.5698 17.5255 -29 14 C-30.3966 10.1574 -30.3759 7.1028 -29.0625 3.25 C-21.3197 -5.1967 -9.7136 -4.8568 0 0 Z " fill="#AD7D3D" transform="translate(1058,593)"/>
<path d="M0 0 C3.625 -0.1875 3.625 -0.1875 7 0 C11.4624 7.9003 15.637 15.9405 19.8027 24 C20.3151 24.9874 20.8275 25.9748 21.3555 26.9922 C21.8159 27.8828 22.2763 28.7733 22.7507 29.6909 C24 32 24 32 26 35 C26 35.99 26 36.98 26 38 C22.75 38.375 22.75 38.375 19 38 C16.2955 34.8794 15 33.1673 15 29 C11.4149 28.9647 7.8347 29.0065 4.25 29.0625 C3.2342 29.0515 2.2184 29.0406 1.1719 29.0293 C-1.714 29.0957 -4.2185 29.2189 -7 30 C-9.0182 32.1889 -9.7841 34.2208 -11 37 C-14.75 37.9375 -14.75 37.9375 -18 38 C-18.33 37.34 -18.66 36.68 -19 36 C-17.8941 33.4926 -16.7266 31.1104 -15.4492 28.6914 C-15.0752 27.9689 -14.7012 27.2464 -14.3159 26.5019 C-13.1138 24.1848 -11.9006 21.8738 -10.6875 19.5625 C-9.8802 18.0075 -9.0735 16.4522 -8.2676 14.8965 C-7.4954 13.4111 -6.7226 11.9261 -5.9492 10.4414 C-5.5846 9.7413 -5.2199 9.0413 -4.8442 8.32 C-3.3358 5.4476 -1.8015 2.7022 0 0 Z M3 9 C1.9949 10.7888 0.9961 12.5811 0 14.375 C-0.5569 15.3727 -1.1137 16.3705 -1.6875 17.3984 C-3 20 -3 20 -3 22 C1.29 22 5.58 22 10 22 C7.75 15.25 7.75 15.25 5.875 12.125 C5.2563 11.0938 4.6375 10.0625 4 9 C3.67 9 3.34 9 3 9 Z " fill="#A8793C" transform="translate(449,591)"/>
<path d="M0 0 C4.0206 -0.1169 8.0407 -0.1875 12.0625 -0.25 C13.1962 -0.2835 14.33 -0.317 15.498 -0.3516 C22.2375 -0.4302 26.5967 -0.1834 32 4 C34.6385 8.0777 35.297 10.9831 34.5 15.6875 C33.3637 19.8304 31.7766 21.7893 28 24 C25.2343 24.9219 23.6172 25.1179 20.7695 25.0977 C19.9671 25.0944 19.1646 25.0912 18.3379 25.0879 C17.9212 25.0837 17.9212 25.0837 15.8125 25.0625 C14.9675 25.058 14.1225 25.0535 13.252 25.0488 C11.1679 25.0371 9.084 25.0191 7 25 C7 28.96 7 32.92 7 37 C4.125 37.625 4.125 37.625 1 38 C-1 36 -1 36 -1.1353 32.4683 C-1.0929 30.9551 -1.0392 29.4422 -0.9766 27.9297 C-0.9515 27.1335 -0.9265 26.3372 -0.9007 25.5169 C-0.8184 22.9692 -0.7219 20.4222 -0.625 17.875 C-0.5668 16.1498 -0.5095 14.4245 -0.4531 12.6992 C-0.3128 8.4657 -0.1598 4.2328 0 0 Z M7 6 C7 10.29 7 14.58 7 19 C9.3977 19.1357 11.7878 19.2344 14.1875 19.3125 C14.861 19.3544 15.5346 19.3963 16.2285 19.4395 C20.2034 19.5364 21.83 19.1336 24.9922 16.6484 C27 14 27 14 26.9375 11.3125 C26 9 26 9 24 7 C21.1003 6.6932 18.2822 6.4883 15.375 6.375 C14.5732 6.3363 13.7714 6.2977 12.9453 6.2578 C10.9639 6.1635 8.982 6.0806 7 6 Z " fill="#AD7D3D" transform="translate(594,591)"/>
<path d="M0 0 C-0.506 2.1687 -0.9998 3.9997 -2 6 C-4.6137 5.5519 -6.8429 5.0742 -9.25 3.9375 C-14.428 2.1723 -19.242 2.3815 -24.375 4.1875 C-27.3854 6.2661 -28.6156 7.616 -30 11 C-30.5675 16.2018 -29.8615 19.6056 -27 24 C-23.6195 26.2743 -20.57 26.2986 -16.5625 26.3125 C-16.0063 26.3209 -16.0063 26.3209 -13.1914 26.3633 C-9.6871 25.9644 -7.9175 24.8967 -5 23 C-4.01 23 -3.02 23 -2 23 C1 26.3333 1 26.3333 1 29 C-7.0748 33.8138 -13.4693 34.9739 -23 34 C-30.1391 31.709 -34.6747 28.3018 -38.25 21.6875 C-39.6723 16.5911 -39.405 12.4429 -38 7.4375 C-34.8827 2.0796 -30.7353 -1.5702 -25.25 -4.4375 C-15.5 -6.125 -8.4614 -5.2416 0 0 Z " fill="#AA7A3C" transform="translate(184,595)"/>
<path d="M0 0 C1.5182 0.0002 3.0363 0.0059 4.5544 0.0159 C5.3521 0.0173 6.1497 0.0187 6.9715 0.0202 C9.5292 0.0258 12.0867 0.0383 14.6443 0.051 C16.3741 0.056 18.1039 0.0606 19.8337 0.0647 C24.0831 0.0757 28.3324 0.093 32.5818 0.1135 C32.6243 2.1131 32.6226 4.1139 32.5818 6.1135 C31.5818 7.1135 31.5818 7.1135 28.6404 7.2112 C28.0429 7.2054 28.0429 7.2054 25.0193 7.176 C24.4205 7.1715 24.4205 7.1715 21.3904 7.1487 C20.4635 7.1371 19.5367 7.1255 18.5818 7.1135 C18.5844 7.5653 18.5844 7.5653 18.5977 9.8516 C18.6147 13.193 18.6272 16.5345 18.6367 19.876 C18.6418 21.3242 18.6486 22.7725 18.6572 24.2207 C18.6693 26.2983 18.675 28.3758 18.6794 30.4534 C18.6821 31.0792 18.6821 31.0792 18.6953 34.2461 C18.5818 37.1135 18.5818 37.1135 17.5818 38.1135 C14.5818 38.2385 14.5818 38.2385 11.5818 38.1135 C10.5818 37.1135 10.5818 37.1135 10.4683 34.2461 C10.4735 32.9945 10.4787 31.7429 10.4841 30.4534 C10.4855 29.7889 10.487 29.1244 10.4884 28.4398 C10.494 26.3102 10.5066 24.1806 10.5193 22.051 C10.5243 20.6103 10.5289 19.1695 10.533 17.7288 C10.544 14.1903 10.5613 10.6519 10.5818 7.1135 C9.5828 7.1251 8.5837 7.1367 7.5544 7.1487 C6.2641 7.1577 4.9737 7.1667 3.6443 7.176 C2.3565 7.1876 1.0687 7.1992 -0.2581 7.2112 C-3.4182 7.1135 -3.4182 7.1135 -4.4182 6.1135 C-4.5432 3.6135 -4.5432 3.6135 -4.4182 1.1135 C-3.4182 0.1135 -3.4182 0.1135 0 0 Z " fill="#AD7E3E" transform="translate(778.418212890625,590.886474609375)"/>
<path d="M0 0 C12.21 0 24.42 0 37 0 C37 1.98 37 3.96 37 6 C36.67 6.33 36.34 6.66 36 7 C31.71 7 27.42 7 23 7 C22.67 16.9 22.34 26.8 22 37 C20.845 37.165 20.845 37.165 15 38 C14 37 14 37 13.8865 34.1326 C13.8917 32.881 13.8969 31.6294 13.9023 30.3398 C13.9038 29.6754 13.9052 29.0109 13.9066 28.3263 C13.9122 26.1967 13.9248 24.0671 13.9375 21.9375 C13.9425 20.4967 13.9471 19.056 13.9512 17.6152 C13.9614 14.0768 13.9809 10.5385 14 7 C9.38 7 4.76 7 0 7 C0 4.69 0 2.38 0 0 Z " fill="#AC7D3E" transform="translate(375,591)"/>
<path d="M0 0 C2.64 0 5.28 0 8 0 C8 10.23 8 20.46 8 31 C15.59 31 23.18 31 31 31 C31 33.31 31 35.62 31 38 C26.7459 38.0247 22.4917 38.0428 18.2375 38.0549 C16.7893 38.06 15.3411 38.0668 13.8928 38.0754 C11.8153 38.0875 9.7378 38.0932 7.6602 38.0977 C6.4086 38.1029 5.157 38.1081 3.8674 38.1135 C1 38 1 38 0 37 C-0.0886 34.2611 -0.1152 31.5475 -0.0977 28.8086 C-0.0962 27.9888 -0.0948 27.1689 -0.0934 26.3242 C-0.0878 23.6953 -0.0752 21.0664 -0.0625 18.4375 C-0.0575 16.6595 -0.0529 14.8815 -0.0488 13.1035 C-0.0378 8.7356 -0.0205 4.3678 0 0 Z " fill="#B0803F" transform="translate(500,591)"/>
<path d="M0 0 C2.4375 0.1875 2.4375 0.1875 3.4375 1.1875 C3.5385 3.9147 3.5772 6.6161 3.5703 9.3438 C3.5713 10.1612 3.5722 10.9787 3.5732 11.8209 C3.5739 13.5527 3.572 15.2844 3.5679 17.0161 C3.5625 19.6762 3.5678 22.336 3.5742 24.9961 C3.5736 26.6745 3.5723 28.3529 3.5703 30.0312 C3.5723 30.8323 3.5744 31.6333 3.5764 32.4586 C3.5525 38.0725 3.5525 38.0725 2.4375 39.1875 C0.4379 39.2283 -1.563 39.23 -3.5625 39.1875 C-4.6478 32.4216 -4.7486 25.7818 -4.7478 18.9519 C-4.75 16.8629 -4.7683 14.7744 -4.7871 12.6855 C-4.789 11.3701 -4.791 10.0546 -4.793 8.6992 C-4.7971 7.4974 -4.8012 6.2956 -4.8054 5.0574 C-4.4889 1.3178 -3.8032 0.2783 0 0 Z " fill="#AE7E3E" transform="translate(344.5625,589.8125)"/>
</svg>
