<svg xmlns="http://www.w3.org/2000/svg" viewBox="0 0 38 20" width="38" height="20">
  <rect width="38" height="20" fill="#fff"/>
  <g fill="#b22234">
    <rect width="38" height="1.538" y="0"/>
    <rect width="38" height="1.538" y="3.077"/>
    <rect width="38" height="1.538" y="6.154"/>
    <rect width="38" height="1.538" y="9.231"/>
    <rect width="38" height="1.538" y="12.308"/>
    <rect width="38" height="1.538" y="15.385"/>
    <rect width="38" height="1.538" y="18.462"/>
  </g>
  <rect width="15.2" height="10.769" fill="#3c3b6e"/>
  <g fill="#fff">
    <circle cx="1.6" cy="1.4" r="0.5"/><circle cx="4.6" cy="1.4" r="0.5"/><circle cx="7.6" cy="1.4" r="0.5"/><circle cx="10.6" cy="1.4" r="0.5"/><circle cx="13.6" cy="1.4" r="0.5"/>
    <circle cx="3.1" cy="3.1" r="0.5"/><circle cx="6.1" cy="3.1" r="0.5"/><circle cx="9.1" cy="3.1" r="0.5"/><circle cx="12.1" cy="3.1" r="0.5"/>
    <circle cx="1.6" cy="4.8" r="0.5"/><circle cx="4.6" cy="4.8" r="0.5"/><circle cx="7.6" cy="4.8" r="0.5"/><circle cx="10.6" cy="4.8" r="0.5"/><circle cx="13.6" cy="4.8" r="0.5"/>
    <circle cx="3.1" cy="6.5" r="0.5"/><circle cx="6.1" cy="6.5" r="0.5"/><circle cx="9.1" cy="6.5" r="0.5"/><circle cx="12.1" cy="6.5" r="0.5"/>
    <circle cx="1.6" cy="8.2" r="0.5"/><circle cx="4.6" cy="8.2" r="0.5"/><circle cx="7.6" cy="8.2" r="0.5"/><circle cx="10.6" cy="8.2" r="0.5"/><circle cx="13.6" cy="8.2" r="0.5"/>
    <circle cx="3.1" cy="9.9" r="0.5"/><circle cx="6.1" cy="9.9" r="0.5"/><circle cx="9.1" cy="9.9" r="0.5"/><circle cx="12.1" cy="9.9" r="0.5"/>
  </g>
</svg>
